<svg width="132" height="125" viewBox="0 0 132 125" fill="none" xmlns="http://www.w3.org/2000/svg">
<path d="M30.4375 19.7344C27.8437 19.7344 26.0312 19.3281 25 18.5156C23.625 17.4531 22.9375 15.3906 22.9375 12.3281L22.9375 10.0781L10 10.0781L10 1.6875L42.25 1.6875L42.25 10.125C42.25 12.1562 42.1406 13.7031 41.9219 14.7656C41.7344 15.8281 41.2969 16.7656 40.6094 17.5781C39.9219 18.3906 39.1406 18.9531 38.2656 19.2656C37.4219 19.5781 35.75 19.7344 33.25 19.7344L30.4375 19.7344ZM31.4687 12.7031L34.0469 12.7031C35.1719 12.7031 35.8906 12.5312 36.2031 12.1875C36.5469 11.875 36.7187 11.1719 36.7187 10.0781L28.5156 10.0781L28.5156 10.6875C28.5156 11.5 28.7187 12.0312 29.125 12.2812C29.5625 12.5625 30.3437 12.7031 31.4687 12.7031ZM10 29.9062L10 22.4062L42.25 22.4062L42.25 29.9062L10 29.9062ZM10 49.125L10 42.0469L12.3437 42.0469C11.4375 41.5781 10.8125 41.0312 10.4687 40.4062C10.125 39.8125 9.95312 38.9375 9.95312 37.7812C9.95312 36.7812 10.0781 35.9062 10.3281 35.1562C10.6094 34.4375 11.0312 33.9219 11.5937 33.6094C12.1562 33.2969 12.7969 33.0781 13.5156 32.9531C14.2656 32.8281 15.0625 32.7656 15.9062 32.7656L18.0625 32.7656C19.9687 32.7656 21.2656 32.9844 21.9531 33.4219C22.6719 33.8906 23.4219 35 24.2031 36.75L25.8437 40.4062C26.125 40.9687 26.4531 41.3437 26.8281 41.5312C27.2344 41.75 27.9219 41.8594 28.8906 41.8594C31.1094 41.8594 32.2187 41.4844 32.2187 40.7344C32.2187 40.3594 32.0937 40.0625 31.8437 39.8437C31.5937 39.625 31.0312 39.5156 30.1562 39.5156L27.1094 39.5156L27.1094 32.7656L27.9531 32.7656C29.6406 32.7656 30.9844 32.8906 31.9844 33.1406C32.9844 33.4219 33.9219 34.0156 34.7969 34.9219C35.4531 35.6094 35.8594 36.3906 36.0156 37.2656C36.1719 38.1719 36.25 39.3906 36.25 40.9219C36.25 42.7656 36.0937 44.2344 35.7812 45.3281C35.4687 46.4531 34.875 47.2969 34 47.8594C33.125 48.4531 31.9219 48.8125 30.3906 48.9375C28.8594 49.0625 26.4844 49.125 23.2656 49.125L10 49.125ZM15.8594 41.8594L22.5625 41.8594C21.7187 40.8594 21.0937 40.25 20.6875 40.0312C20.0312 39.6875 18.9687 39.5156 17.5 39.5156C16.9062 39.5156 16.3281 39.5156 15.7656 39.5156C14.7344 39.6094 14.2187 40.0312 14.2187 40.7812C14.2187 41.5 14.7656 41.8594 15.8594 41.8594ZM36.4375 68.1094L17.3125 65.9062C13.3437 65.4375 10.9062 65.0469 10 64.7344C7.5625 63.8906 6.34375 61.3125 6.34375 57L6.34375 52.4062L10.4687 52.4062L10.4687 52.8281C10.4687 53.7344 10.5312 54.3437 10.6562 54.6562C10.7812 54.9687 11.0937 55.125 11.5937 55.125C12 55.125 12.9062 54.9844 14.3125 54.7031L36.4375 50.5312L36.4375 57.4687L18.5781 59.9531L36.4375 61.1719L36.4375 68.1094ZM38.125 77.4844L38.125 69.6094L42.25 69.6094L42.25 77.4844L38.125 77.4844ZM10 77.4844L10 69.6094L36.4375 69.6094L36.4375 77.4844L10 77.4844ZM10 96.7031L10 89.4375L28.3281 89.4375C28.7656 89.4375 29.0937 89.4375 29.3125 89.4375C30.5312 89.4375 31.3125 89.3906 31.6562 89.2969C32.0312 89.2031 32.2187 88.9062 32.2187 88.4062C32.2187 87.8125 31.875 87.4687 31.1875 87.375C30.5312 87.2812 29.7656 87.2344 28.8906 87.2344C28.4531 87.2344 28.1094 87.2344 27.8594 87.2344L10 87.2344L10 80.0156L36.4375 80.0156L36.4375 87.4219L34 87.2344C35.7812 88.2969 36.6719 89.8281 36.6719 91.8281C36.6719 92.5781 36.5937 93.2187 36.4375 93.75C36.3125 94.3125 36.0312 94.8125 35.5937 95.25C34.9062 95.9062 34.0625 96.3125 33.0625 96.4687C32.0937 96.625 30.5781 96.7031 28.5156 96.7031L10 96.7031ZM13.375 115.547C12.4687 115.547 11.7656 115.516 11.2656 115.453C10.7969 115.422 10.2969 115.297 9.76562 115.078C6.89062 113.859 5.45312 111.031 5.45312 106.594C5.45312 103.812 5.98437 101.828 7.04687 100.641C8.10937 99.4531 9.71875 98.8594 11.875 98.8594L11.875 105.844C10.7187 105.844 10.1406 106.266 10.1406 107.109C10.1406 107.672 10.3594 108.031 10.7969 108.187C11.2656 108.344 11.9531 108.422 12.8594 108.422L14.875 108.422C14.25 107.703 13.7812 107.062 13.4687 106.5C13.1875 105.937 13.0469 105.203 13.0469 104.297C13.0469 103.297 13.2187 102.406 13.5625 101.625C13.9375 100.844 14.4375 100.234 15.0625 99.7969C15.6875 99.3906 16.3906 99.125 17.1719 99C17.9844 98.9062 19 98.8594 20.2187 98.8594L29.8281 98.8594C32.1719 98.8594 33.8594 99.2187 34.8906 99.9375C35.9219 100.687 36.4375 101.984 36.4375 103.828C36.4375 104.859 36.2812 105.703 35.9687 106.359C35.6875 107.047 35.1719 107.687 34.4219 108.281L36.4375 108.797L36.4375 115.547L13.375 115.547ZM21.25 108.281L29.4531 108.281C29.7344 108.281 29.9375 108.281 30.0625 108.281C30.8437 108.281 31.3906 108.219 31.7031 108.094C32.0469 107.969 32.2187 107.672 32.2187 107.203C32.2187 106.766 31.9687 106.469 31.4687 106.312C30.9687 106.187 30.2969 106.125 29.4531 106.125L20.5469 106.125C19.4844 106.125 18.75 106.172 18.3437 106.266C17.9375 106.391 17.7344 106.672 17.7344 107.109C17.7344 107.891 18.9062 108.281 21.25 108.281Z" fill="white"/>
<path d="M48 21.9844L48 14.8125L63.1406 8.625L48 8.625L48 1.64062L80.25 1.64062L80.25 8.76562L65.25 15L80.25 15L80.25 21.9844L48 21.9844ZM58.6875 41.3906C58.2812 41.3906 57.9844 41.3906 57.7969 41.3906C57.0781 41.3906 56.3594 41.3906 55.6406 41.3906C54.4531 41.3281 53.4219 41.1406 52.5469 40.8281C50.9531 40.2969 49.7812 39.375 49.0312 38.0625C48.3125 36.75 47.9531 35.0625 47.9531 33C47.9531 32.625 47.9531 32.3594 47.9531 32.2031C47.9531 31.0156 48.0156 30.0781 48.1406 29.3906C48.2656 28.7031 48.5781 28.0312 49.0781 27.375C49.8906 26.2812 50.9531 25.5625 52.2656 25.2187C53.6094 24.9062 55.4531 24.75 57.7969 24.75L64.5469 24.75C65.1094 24.75 65.6562 24.75 66.1875 24.75C66.7187 24.75 67.2812 24.7969 67.875 24.8906C70.125 25.2031 71.7969 26.0156 72.8906 27.3281C74.0156 28.6719 74.5781 30.5 74.5781 32.8125C74.5781 37.0312 73.0469 39.7187 69.9844 40.875C69.4531 41.0937 68.75 41.2344 67.875 41.2969C67 41.3594 66.0937 41.3906 65.1562 41.3906L58.6875 41.3906ZM53.625 34.125L67.1719 34.125C67.4531 34.125 67.6562 34.125 67.7812 34.125C68.8437 34.125 69.5156 34.0469 69.7969 33.8906C70.0781 33.7344 70.2187 33.4531 70.2187 33.0469C70.2187 32.5156 69.9375 32.2031 69.375 32.1094C68.8437 32.0156 68.3125 31.9687 67.7812 31.9687C67.5 31.9687 67.2969 31.9687 67.1719 31.9687L54.4687 31.9687C53.75 31.9687 53.1875 32.0312 52.7812 32.1562C52.4062 32.3125 52.2187 32.6094 52.2187 33.0469C52.2187 33.7656 52.6875 34.125 53.625 34.125ZM74.4375 71.1562L48 67.9687L48 59.2031C50.5625 58.7969 54.7969 58.25 60.7031 57.5625C58.7344 57.375 56.7969 57.1406 54.8906 56.8594C52.5781 56.4844 50.2812 56.125 48 55.7812L48 47.0156L74.4375 43.5937L74.4375 50.5312C73.5937 50.5312 72.3906 50.625 70.8281 50.8125C66.9844 51.2812 63.1406 51.7656 59.2969 52.2656C61.0156 52.2656 63.9375 52.5781 68.0625 53.2031C70.875 53.6406 73 53.9375 74.4375 54.0937L74.4375 60.7031C65.25 61.8281 60.2031 62.3906 59.2969 62.3906C61.2969 62.3906 63.7187 62.5781 66.5625 62.9531C68.3437 63.2031 70.9687 63.625 74.4375 64.2187L74.4375 71.1562Z" fill="white"/>
<rect x="111" y="104" width="21" height="21" fill="white"/>
<rect x="111" y="76" width="21" height="21" fill="white"/>
<rect x="112" y="49" width="19" height="19" stroke="white" stroke-width="2"/>
</svg>
