<svg width="180" height="180" viewBox="0 0 180 180" fill="none" xmlns="http://www.w3.org/2000/svg">
<path d="M159.05 89.9904L173.272 90.7044L173.17 92.7418L172.251 92.6957C172.531 92.9634 172.764 93.2355 172.951 93.5118C173.137 93.7882 173.218 94.1794 173.192 94.6854C173.15 95.5244 172.801 96.1009 172.144 96.415C171.912 96.5235 171.628 96.596 171.292 96.6326C170.957 96.6691 170.509 96.6734 169.95 96.6453L166.095 96.4517C165.349 96.4143 164.811 96.3672 164.48 96.3106C163.818 96.1973 163.334 95.8659 163.028 95.3165C162.868 95.0415 162.801 94.651 162.826 94.1449C162.846 93.7455 162.951 93.3902 163.14 93.0793C163.342 92.7824 163.615 92.5291 163.959 92.3195L163.961 92.2795L158.948 92.0278L159.05 89.9904ZM169.773 94.5938C170.185 94.6145 170.522 94.5514 170.783 94.4043C171.044 94.2572 171.184 94.0105 171.201 93.6643C171.216 93.358 171.109 93.1056 170.879 92.9072C170.662 92.7094 170.367 92.6011 169.994 92.5824L166.059 92.3848C165.739 92.3688 165.468 92.4486 165.246 92.6243C165.036 92.8141 164.924 93.0554 164.909 93.3484C164.89 93.7346 164.996 94.0002 165.229 94.1454C165.462 94.304 165.738 94.3912 166.057 94.4073L169.773 94.5938Z" fill="white"/>
<path d="M176.782 99.3972L176.539 101.423L165.24 100.066C164.856 100.02 164.583 100.055 164.422 100.17C164.272 100.299 164.154 100.554 164.068 100.933L162.162 100.704C162.218 100.241 162.307 99.8284 162.431 99.4673C162.542 99.1046 162.719 98.8035 162.963 98.5642C163.193 98.3233 163.496 98.1514 163.871 98.0487C164.257 97.9608 164.748 97.9527 165.344 98.0242L176.782 99.3972Z" fill="white"/>
<path d="M161.605 104.381L162.627 104.572L162.634 104.533C162.316 104.202 162.085 103.881 161.94 103.569C161.792 103.27 161.763 102.878 161.854 102.393C161.898 102.157 161.983 101.922 162.108 101.687C162.217 101.464 162.391 101.259 162.63 101.073C162.855 100.884 163.151 100.75 163.519 100.669C163.897 100.604 164.362 100.623 164.912 100.726C165.476 100.831 165.959 100.969 166.361 101.139C166.776 101.312 167.105 101.549 167.347 101.852C167.578 102.139 167.721 102.499 167.776 102.929C167.844 103.363 167.82 103.894 167.702 104.523C167.69 104.588 167.677 104.66 167.662 104.739C167.647 104.818 167.627 104.889 167.602 104.952C167.577 105.015 167.555 105.092 167.538 105.184C167.521 105.276 167.496 105.373 167.463 105.475L168.505 105.67C168.846 105.733 169.141 105.714 169.391 105.611C169.641 105.509 169.801 105.268 169.872 104.887C169.921 104.625 169.881 104.367 169.753 104.112C169.621 103.871 169.398 103.687 169.083 103.56L169.446 101.614C170.328 101.832 170.992 102.269 171.44 102.922C171.653 103.233 171.797 103.585 171.873 103.979C171.962 104.376 171.963 104.803 171.878 105.262C171.799 105.681 171.66 106.062 171.461 106.405C171.261 106.747 171.004 107.032 170.691 107.258C170.38 107.471 170.013 107.62 169.59 107.704C169.168 107.787 168.694 107.78 168.17 107.682L161.23 106.386L161.605 104.381ZM165.891 105.181C165.972 104.966 166.025 104.786 166.052 104.642C166.133 104.209 166.098 103.816 165.947 103.463C165.807 103.124 165.468 102.905 164.931 102.805C164.551 102.734 164.225 102.768 163.955 102.907C163.685 103.047 163.519 103.28 163.458 103.608C163.394 103.949 163.457 104.232 163.645 104.457C163.832 104.695 164.128 104.852 164.534 104.928L165.891 105.181Z" fill="white"/>
<path d="M171.017 109.068L170.429 111.146L163.966 110.771L163.955 110.809L169.66 113.859L169.088 115.88L158.434 109.827C158.027 109.601 157.709 109.352 157.482 109.08C157.25 108.82 157.079 108.543 156.969 108.248C156.858 107.954 156.811 107.656 156.827 107.356C156.826 107.065 156.867 106.771 156.951 106.476L157.104 105.938L158.951 106.461L158.826 106.903C158.771 107.096 158.749 107.27 158.761 107.425C158.772 107.581 158.851 107.742 158.998 107.908C159.149 108.062 159.378 108.231 159.686 108.415C159.981 108.596 160.401 108.826 160.946 109.105L171.017 109.068Z" fill="white"/>
<path d="M155.578 119.237C155.355 119.148 155.11 119.136 154.844 119.203C154.571 119.281 154.362 119.478 154.215 119.792C154.074 120.094 154.069 120.356 154.2 120.58C154.319 120.797 154.523 120.974 154.813 121.109L156.625 121.956L156.642 121.92C156.436 121.574 156.316 121.216 156.282 120.847C156.255 120.496 156.329 120.133 156.504 119.759C156.866 118.986 157.407 118.584 158.128 118.553C158.384 118.54 158.675 118.58 158.999 118.673C159.324 118.766 159.74 118.931 160.247 119.168L163.743 120.803C164.408 121.114 164.888 121.361 165.185 121.544C165.755 121.899 166.076 122.394 166.146 123.031C166.196 123.334 166.113 123.715 165.899 124.174C165.791 124.403 165.677 124.585 165.555 124.719C165.428 124.866 165.291 124.986 165.144 125.079C164.997 125.173 164.838 125.245 164.667 125.297C164.507 125.355 164.333 125.414 164.143 125.472L164.977 125.862L164.113 127.71L153.804 122.889C153.49 122.743 153.201 122.541 152.938 122.286C152.657 122.037 152.444 121.738 152.297 121.39C152.139 121.036 152.063 120.648 152.07 120.224C152.064 119.795 152.175 119.338 152.401 118.855C152.531 118.577 152.714 118.31 152.952 118.053C153.178 117.791 153.459 117.584 153.795 117.432C154.125 117.262 154.51 117.162 154.95 117.133C155.373 117.11 155.87 117.195 156.442 117.389L155.578 119.237ZM159.473 121.059C159.183 120.923 158.902 120.865 158.628 120.884C158.348 120.915 158.126 121.106 157.963 121.456C157.838 121.722 157.827 121.982 157.929 122.235C158.038 122.507 158.237 122.71 158.527 122.846L162.096 124.515C162.434 124.673 162.746 124.716 163.03 124.643C163.326 124.575 163.54 124.403 163.67 124.125C163.816 123.811 163.809 123.528 163.647 123.275C163.486 123.023 163.217 122.809 162.843 122.634L159.473 121.059Z" fill="white"/>
<path d="M152.245 128.053L153.141 128.582L153.161 128.548C152.975 128.128 152.867 127.747 152.838 127.404C152.801 127.073 152.908 126.695 153.159 126.27C153.281 126.063 153.441 125.871 153.639 125.694C153.818 125.521 154.052 125.388 154.339 125.295C154.615 125.195 154.94 125.169 155.313 125.219C155.691 125.288 156.121 125.464 156.603 125.749C157.096 126.041 157.503 126.335 157.823 126.633C158.154 126.937 158.382 127.273 158.506 127.64C158.625 127.989 158.637 128.375 158.541 128.799C158.457 129.229 158.252 129.72 157.927 130.271C157.893 130.329 157.856 130.392 157.815 130.461C157.774 130.53 157.731 130.589 157.686 130.64C157.64 130.691 157.594 130.756 157.547 130.836C157.499 130.917 157.442 130.999 157.377 131.084L158.289 131.624C158.588 131.8 158.872 131.883 159.142 131.872C159.412 131.861 159.645 131.689 159.841 131.356C159.977 131.126 160.028 130.87 159.994 130.586C159.953 130.315 159.806 130.065 159.553 129.838L160.56 128.133C161.314 128.641 161.789 129.278 161.987 130.045C162.08 130.41 162.096 130.79 162.032 131.186C161.98 131.589 161.835 131.992 161.598 132.393C161.381 132.761 161.12 133.071 160.815 133.325C160.511 133.578 160.172 133.758 159.8 133.863C159.435 133.957 159.039 133.972 158.614 133.906C158.188 133.84 157.745 133.672 157.286 133.4L151.208 129.81L152.245 128.053ZM155.999 130.271C156.149 130.096 156.261 129.945 156.336 129.819C156.559 129.44 156.661 129.059 156.64 128.675C156.624 128.309 156.38 127.987 155.91 127.709C155.577 127.512 155.259 127.433 154.958 127.472C154.656 127.511 154.421 127.673 154.251 127.96C154.075 128.259 154.037 128.546 154.137 128.822C154.23 129.11 154.455 129.359 154.811 129.569L155.999 130.271Z" fill="white"/>
<path d="M150.907 130.451L158.929 136.652L157.681 138.266L156.906 137.667L156.882 137.699C157.004 138.063 157.055 138.422 157.034 138.777C157.015 139.15 156.863 139.521 156.578 139.89C156.308 140.238 156 140.463 155.652 140.565C155.303 140.667 154.972 140.714 154.657 140.706C154.724 141.078 154.743 141.446 154.713 141.811C154.684 142.176 154.502 142.575 154.168 143.008C154.013 143.208 153.817 143.385 153.58 143.539C153.354 143.701 153.096 143.805 152.807 143.852C152.519 143.898 152.207 143.876 151.872 143.786C151.548 143.704 151.207 143.524 150.848 143.247L144.693 138.489L145.94 136.875L151.494 141.168C151.79 141.397 152.075 141.508 152.35 141.501C152.624 141.494 152.86 141.364 153.055 141.111C153.292 140.805 153.36 140.521 153.26 140.258C153.16 139.995 152.93 139.725 152.572 139.448L147.176 135.277L148.423 133.663L153.977 137.956C154.273 138.185 154.558 138.295 154.833 138.289C155.107 138.282 155.343 138.152 155.538 137.899C155.775 137.593 155.843 137.309 155.743 137.046C155.643 136.783 155.413 136.513 155.055 136.236L149.659 132.065L150.907 130.451Z" fill="white"/>
<path d="M142.626 146.611L145.462 143.734L144.479 142.765C144.251 142.541 144.015 142.429 143.769 142.431C143.515 142.442 143.28 142.557 143.065 142.775C142.793 143.051 142.696 143.311 142.774 143.555C142.841 143.809 142.947 144.026 143.089 144.204L141.657 145.657C141.021 145.03 140.7 144.329 140.695 143.556C140.682 143.17 140.75 142.788 140.898 142.409C141.046 142.031 141.284 141.676 141.612 141.343C142.061 140.888 142.54 140.592 143.048 140.456C143.547 140.33 144.037 140.336 144.519 140.474C144.812 140.557 145.1 140.701 145.385 140.906C145.669 141.111 145.958 141.359 146.253 141.649L148.632 143.994C148.926 144.284 149.178 144.57 149.387 144.851C149.597 145.132 149.745 145.419 149.832 145.71C149.977 146.19 149.99 146.68 149.871 147.181C149.743 147.691 149.454 148.174 149.005 148.63C148.677 148.962 148.325 149.205 147.949 149.359C147.564 149.522 147.178 149.6 146.791 149.593C145.99 149.552 145.266 149.213 144.62 148.577L142.626 146.611ZM146.601 144.857L145.198 146.281L146.024 147.096C146.299 147.367 146.569 147.502 146.833 147.5C147.097 147.517 147.337 147.416 147.552 147.198C147.767 146.979 147.869 146.733 147.858 146.46C147.846 146.206 147.703 145.943 147.428 145.671L146.601 144.857Z" fill="white"/>
<path d="M132.971 143.848L141.39 155.332L139.745 156.538L139.201 155.796C139.17 156.183 139.106 156.535 139.009 156.854C138.912 157.173 138.66 157.483 138.251 157.782C137.574 158.279 136.906 158.371 136.248 158.06C136.017 157.948 135.782 157.774 135.542 157.536C135.301 157.299 135.016 156.955 134.685 156.503L132.403 153.39C131.961 152.788 131.658 152.34 131.493 152.048C131.164 151.463 131.116 150.878 131.349 150.294C131.461 149.997 131.722 149.698 132.131 149.399C132.453 149.162 132.795 149.019 133.155 148.97C133.513 148.939 133.882 148.991 134.262 149.126L134.294 149.102L131.326 145.054L132.971 143.848ZM136.165 155.071C136.409 155.405 136.671 155.626 136.949 155.736C137.228 155.846 137.507 155.798 137.787 155.593C138.034 155.412 138.162 155.169 138.171 154.865C138.188 154.572 138.085 154.275 137.865 153.974L135.535 150.796C135.346 150.538 135.113 150.378 134.837 150.316C134.557 150.273 134.299 150.338 134.062 150.512C133.751 150.74 133.612 150.991 133.646 151.263C133.67 151.544 133.776 151.813 133.965 152.071L136.165 155.071Z" fill="white"/>
<path d="M136.72 163.616L134.991 164.698L128.953 155.052C128.748 154.725 128.55 154.534 128.359 154.48C128.164 154.445 127.892 154.513 127.543 154.685L126.524 153.057C126.92 152.81 127.297 152.621 127.656 152.49C128.008 152.349 128.353 152.298 128.692 152.337C129.025 152.365 129.348 152.493 129.664 152.72C129.975 152.966 130.29 153.343 130.608 153.851L136.72 163.616Z" fill="white"/>
<path d="M123.359 154.91L123.854 155.824L123.889 155.805C123.946 155.35 124.05 154.968 124.2 154.659C124.34 154.356 124.626 154.087 125.06 153.852C125.271 153.737 125.507 153.655 125.768 153.604C126.01 153.549 126.279 153.555 126.574 153.623C126.862 153.679 127.153 153.824 127.447 154.059C127.736 154.312 128.014 154.685 128.281 155.177C128.554 155.681 128.751 156.143 128.872 156.562C129 156.994 129.022 157.399 128.939 157.777C128.862 158.138 128.673 158.475 128.373 158.789C128.08 159.115 127.652 159.431 127.089 159.736C127.03 159.767 126.966 159.802 126.896 159.841C126.825 159.879 126.758 159.908 126.693 159.928C126.628 159.948 126.554 159.98 126.472 160.025C126.39 160.069 126.299 160.111 126.199 160.15L126.704 161.082C126.869 161.387 127.07 161.604 127.307 161.733C127.544 161.862 127.833 161.835 128.172 161.651C128.407 161.524 128.583 161.33 128.699 161.07C128.804 160.815 128.806 160.526 128.706 160.201L130.447 159.258C130.832 160.08 130.912 160.871 130.687 161.63C130.579 161.992 130.396 162.326 130.138 162.633C129.886 162.951 129.555 163.222 129.145 163.444C128.77 163.648 128.386 163.78 127.994 163.84C127.603 163.901 127.22 163.881 126.847 163.78C126.485 163.672 126.139 163.481 125.808 163.206C125.476 162.93 125.184 162.558 124.93 162.089L121.565 155.882L123.359 154.91ZM125.436 158.743C125.655 158.67 125.828 158.599 125.957 158.529C126.344 158.319 126.627 158.045 126.807 157.705C126.981 157.383 126.938 156.981 126.678 156.501C126.493 156.161 126.262 155.93 125.984 155.808C125.705 155.686 125.419 155.704 125.126 155.863C124.822 156.028 124.641 156.255 124.585 156.543C124.517 156.838 124.582 157.167 124.779 157.53L125.436 158.743Z" fill="white"/>
<path d="M125.648 165.165L123.662 166.014L119.89 160.753L119.854 160.769L121.068 167.122L119.137 167.948L117.146 155.858C117.066 155.399 117.06 154.995 117.129 154.647C117.185 154.304 117.293 153.997 117.453 153.725C117.612 153.454 117.814 153.23 118.057 153.054C118.283 152.87 118.537 152.718 118.819 152.598L119.334 152.378L120.089 154.143L119.666 154.324C119.482 154.402 119.333 154.495 119.219 154.602C119.105 154.708 119.03 154.871 118.993 155.09C118.968 155.304 118.981 155.588 119.031 155.944C119.077 156.287 119.162 156.758 119.287 157.357L125.648 165.165Z" fill="white"/>
<path d="M108.002 159.562C107.932 159.332 107.787 159.134 107.568 158.969C107.335 158.806 107.051 158.767 106.714 158.85C106.391 158.929 106.183 159.091 106.092 159.333C105.997 159.562 105.988 159.832 106.065 160.143L106.544 162.085L106.583 162.075C106.723 161.697 106.926 161.379 107.192 161.121C107.448 160.88 107.777 160.709 108.179 160.61C109.007 160.406 109.66 160.574 110.137 161.116C110.307 161.307 110.459 161.558 110.59 161.869C110.722 162.18 110.855 162.607 110.989 163.151L111.913 166.899C112.089 167.611 112.199 168.14 112.243 168.486C112.325 169.152 112.141 169.713 111.69 170.167C111.485 170.396 111.137 170.572 110.645 170.693C110.399 170.754 110.186 170.779 110.005 170.768C109.811 170.761 109.631 170.73 109.466 170.675C109.302 170.619 109.145 170.541 108.997 170.44C108.851 170.353 108.696 170.253 108.532 170.143L108.752 171.036L106.772 171.525L104.046 160.476C103.963 160.139 103.938 159.788 103.972 159.423C103.989 159.048 104.087 158.694 104.266 158.362C104.442 158.016 104.697 157.713 105.031 157.452C105.361 157.178 105.786 156.978 106.303 156.85C106.601 156.776 106.925 156.752 107.274 156.775C107.62 156.786 107.957 156.874 108.287 157.04C108.626 157.19 108.945 157.427 109.245 157.752C109.528 158.066 109.775 158.507 109.983 159.073L108.002 159.562ZM109.032 163.737C108.956 163.426 108.824 163.17 108.637 162.969C108.437 162.771 108.149 162.719 107.774 162.811C107.489 162.881 107.28 163.036 107.147 163.275C107.004 163.53 106.97 163.813 107.047 164.123L107.991 167.949C108.08 168.311 108.242 168.58 108.478 168.756C108.717 168.944 108.985 169.001 109.283 168.928C109.619 168.845 109.835 168.661 109.93 168.377C110.024 168.093 110.022 167.75 109.923 167.348L109.032 163.737Z" fill="white"/>
<path d="M99.027 162.512L99.1787 163.54L99.2182 163.535C99.4276 163.126 99.6562 162.803 99.904 162.564C100.139 162.327 100.5 162.173 100.988 162.101C101.226 162.066 101.475 162.07 101.738 162.112C101.985 162.143 102.235 162.241 102.489 162.406C102.74 162.557 102.964 162.794 103.159 163.115C103.344 163.452 103.477 163.897 103.558 164.451C103.642 165.019 103.669 165.52 103.639 165.956C103.61 166.405 103.492 166.793 103.285 167.12C103.088 167.432 102.795 167.684 102.405 167.876C102.018 168.082 101.508 168.231 100.874 168.324C100.808 168.334 100.736 168.345 100.657 168.356C100.578 168.368 100.504 168.372 100.436 168.369C100.368 168.365 100.288 168.37 100.196 168.384C100.104 168.397 100.004 168.405 99.8961 168.408L100.051 169.456C100.101 169.799 100.216 170.072 100.394 170.275C100.572 170.478 100.852 170.551 101.235 170.495C101.499 170.456 101.73 170.334 101.929 170.13C102.115 169.927 102.216 169.656 102.234 169.317L104.192 169.028C104.272 169.933 104.075 170.703 103.603 171.339C103.378 171.641 103.092 171.892 102.744 172.092C102.398 172.305 101.994 172.445 101.532 172.513C101.11 172.575 100.705 172.568 100.316 172.49C99.9272 172.413 99.5748 172.263 99.2589 172.04C98.9562 171.815 98.6966 171.516 98.4799 171.144C98.2633 170.771 98.1161 170.321 98.0383 169.794L97.0088 162.809L99.027 162.512ZM99.6628 166.825C99.8929 166.831 100.08 166.824 100.226 166.803C100.661 166.738 101.021 166.578 101.307 166.32C101.581 166.077 101.678 165.686 101.598 165.145C101.542 164.762 101.404 164.466 101.184 164.256C100.965 164.045 100.69 163.965 100.36 164.013C100.017 164.064 99.77 164.215 99.6184 164.466C99.4535 164.72 99.4013 165.051 99.4616 165.46L99.6628 166.825Z" fill="white"/>
<path d="M96.3999 162.962L96.6348 173.099L94.5953 173.146L94.5726 172.167L94.5326 172.167C94.3268 172.492 94.0795 172.758 93.7909 172.965C93.4892 173.185 93.1051 173.301 92.6386 173.312C92.1987 173.322 91.8297 173.224 91.5315 173.017C91.2333 172.811 90.988 172.583 90.7955 172.334C90.5487 172.62 90.2743 172.866 89.9724 173.073C89.6704 173.28 89.2462 173.39 88.6997 173.403C88.4464 173.409 88.1854 173.368 87.9166 173.281C87.6482 173.207 87.405 173.073 87.1871 172.878C86.9692 172.683 86.7899 172.427 86.6492 172.11C86.5088 171.806 86.4333 171.428 86.4228 170.975L86.2427 163.197L88.2821 163.15L88.4447 170.168C88.4533 170.541 88.5468 170.832 88.725 171.042C88.9032 171.251 89.1523 171.352 89.4722 171.344C89.8588 171.335 90.1226 171.209 90.2637 170.966C90.4047 170.723 90.47 170.374 90.4595 169.921L90.3016 163.103L92.341 163.056L92.5036 170.074C92.5122 170.447 92.6057 170.738 92.7839 170.948C92.9621 171.157 93.2112 171.258 93.5311 171.25C93.9177 171.241 94.1815 171.115 94.3226 170.872C94.4636 170.629 94.5289 170.28 94.5184 169.827L94.3605 163.009L96.3999 162.962Z" fill="white"/>
<path d="M78.2898 166.662L82.3096 167.066L82.4477 165.693C82.4797 165.375 82.4181 165.121 82.263 164.931C82.0946 164.74 81.8579 164.629 81.5528 164.598C81.168 164.56 80.9046 164.647 80.7625 164.861C80.6072 165.073 80.5049 165.29 80.4557 165.513L78.4259 165.309C78.5153 164.42 78.8594 163.731 79.458 163.242C79.7513 162.99 80.0918 162.803 80.4792 162.681C80.8667 162.559 81.2926 162.522 81.7569 162.569C82.3937 162.633 82.9243 162.82 83.3487 163.131C83.7598 163.44 84.0627 163.826 84.2575 164.287C84.3767 164.567 84.4455 164.883 84.4639 165.233C84.4822 165.583 84.4707 165.964 84.4294 166.375L84.0951 169.698C84.0538 170.11 83.9892 170.485 83.9014 170.825C83.8137 171.164 83.6835 171.459 83.5109 171.71C83.228 172.124 82.8544 172.441 82.3899 172.663C81.9122 172.883 81.3549 172.961 80.7181 172.896C80.2538 172.85 79.8439 172.728 79.4884 172.532C79.1197 172.334 78.8167 172.082 78.5794 171.777C78.1088 171.126 77.9189 170.35 78.0096 169.448L78.2898 166.662ZM82.1494 168.658L80.1595 168.458L80.0434 169.612C80.0047 169.997 80.0689 170.292 80.2359 170.496C80.3883 170.713 80.6171 170.836 80.9223 170.867C81.2274 170.897 81.4828 170.823 81.6886 170.642C81.8797 170.474 81.9946 170.197 82.0333 169.813L82.1494 168.658Z" fill="white"/>
<path d="M74.4172 157.401L70.7447 171.16L68.7737 170.634L69.011 169.745C68.6906 169.963 68.3758 170.134 68.0665 170.259C67.7573 170.383 67.3579 170.38 66.8684 170.249C66.0568 170.033 65.5661 169.57 65.3962 168.863C65.3387 168.613 65.3272 168.32 65.3616 167.984C65.3961 167.648 65.4855 167.21 65.6299 166.669L66.6254 162.939C66.818 162.218 66.9765 161.701 67.1012 161.39C67.3504 160.766 67.7756 160.362 68.3769 160.178C68.6792 160.079 69.0752 160.095 69.5647 160.225C69.9512 160.329 70.2766 160.505 70.5411 160.755C70.7893 161.015 70.9799 161.335 71.1129 161.715L71.1515 161.725L72.4462 156.875L74.4172 157.401ZM67.6731 166.924C67.5665 167.324 67.5579 167.666 67.6471 167.952C67.7364 168.238 67.9485 168.426 68.2834 168.515C68.5797 168.595 68.849 168.542 69.0912 168.358C69.33 168.188 69.4976 167.922 69.5938 167.561L70.61 163.754C70.6925 163.445 70.6711 163.164 70.5457 162.909C70.4041 162.664 70.1916 162.504 69.9081 162.429C69.5346 162.329 69.2524 162.378 69.0617 162.575C68.8581 162.769 68.715 163.021 68.6325 163.33L67.6731 166.924Z" fill="white"/>
<path d="M61.42 172.721L59.4918 172.055L63.208 161.299C63.3343 160.934 63.3584 160.66 63.2802 160.478C63.1851 160.304 62.9614 160.135 62.609 159.971L63.236 158.156C63.6771 158.308 64.061 158.483 64.3877 158.681C64.7188 158.866 64.9755 159.103 65.1579 159.391C65.3447 159.667 65.4486 159.999 65.4696 160.388C65.4737 160.784 65.3778 161.266 65.1819 161.833L61.42 172.721Z" fill="white"/>
<path d="M59.8078 156.833L59.4027 157.791L59.4395 157.806C59.8305 157.566 60.194 157.409 60.5297 157.334C60.8533 157.253 61.2422 157.309 61.6966 157.501C61.9176 157.595 62.1292 157.728 62.3314 157.9C62.5264 158.055 62.6894 158.269 62.8202 158.541C62.9563 158.801 63.0243 159.12 63.0244 159.496C63.0069 159.88 62.8891 160.329 62.671 160.845C62.4476 161.373 62.2099 161.815 61.9577 162.172C61.7003 162.541 61.3979 162.811 61.0503 162.983C60.7202 163.147 60.3388 163.21 59.9062 163.172C59.4684 163.146 58.9547 163.008 58.3653 162.759C58.3039 162.733 58.2363 162.704 58.1627 162.673C58.089 162.642 58.024 162.607 57.9678 162.569C57.9116 162.531 57.8405 162.494 57.7546 162.457C57.6686 162.421 57.5791 162.376 57.4861 162.322L57.0731 163.298C56.9381 163.618 56.894 163.91 56.9407 164.176C56.9875 164.442 57.189 164.65 57.5451 164.801C57.7907 164.905 58.0516 164.921 58.3279 164.85C58.5919 164.773 58.8196 164.594 59.0108 164.313L60.8344 165.085C60.4321 165.899 59.864 166.455 59.1301 166.752C58.7806 166.894 58.4054 166.96 58.0044 166.949C57.5982 166.951 57.1802 166.861 56.7504 166.68C56.3575 166.513 56.015 166.296 55.7231 166.028C55.4312 165.76 55.2083 165.448 55.0543 165.094C54.9125 164.744 54.8459 164.354 54.8544 163.923C54.8628 163.493 54.971 163.032 55.1787 162.54L57.9289 156.038L59.8078 156.833ZM58.1094 160.848C58.3025 160.974 58.4667 161.065 58.6017 161.122C59.007 161.293 59.3985 161.343 59.7763 161.271C60.1367 161.206 60.4233 160.922 60.6363 160.419C60.7869 160.063 60.823 159.738 60.7446 159.444C60.6662 159.15 60.4735 158.938 60.1665 158.809C59.8472 158.674 59.5574 158.674 59.2972 158.81C59.0247 158.941 58.8079 159.197 58.6469 159.577L58.1094 160.848Z" fill="white"/>
<path d="M53.2786 165.045L51.372 164.03L53.1069 157.794L53.0716 157.775L48.883 162.705L47.0294 161.718L55.2 152.586C55.5072 152.236 55.8181 151.979 56.1325 151.814C56.4351 151.643 56.7421 151.534 57.0534 151.489C57.3648 151.443 57.6656 151.46 57.9558 151.539C58.2406 151.6 58.5183 151.702 58.789 151.846L59.2832 152.11L58.3808 153.804L57.9748 153.588C57.7983 153.494 57.6327 153.436 57.4782 153.414C57.3237 153.393 57.1496 153.436 56.9559 153.544C56.774 153.659 56.5604 153.847 56.3151 154.109C56.0761 154.36 55.7626 154.721 55.3746 155.195L53.2786 165.045Z" fill="white"/>
<path d="M46.5979 147.775C46.7327 147.576 46.7958 147.339 46.7871 147.064C46.7678 146.781 46.6203 146.535 46.3445 146.325C46.0793 146.123 45.8237 146.063 45.5778 146.143C45.3399 146.214 45.1241 146.376 44.9302 146.631L43.7186 148.222L43.7504 148.246C44.1327 148.118 44.5077 148.077 44.8753 148.122C45.2243 148.17 45.5632 148.319 45.8921 148.57C46.571 149.087 46.8492 149.701 46.7267 150.412C46.6848 150.665 46.5842 150.94 46.4247 151.238C46.2652 151.535 46.0158 151.907 45.6765 152.352L43.3381 155.423C42.8938 156.007 42.5507 156.424 42.3089 156.676C41.8414 157.158 41.2892 157.366 40.6523 157.3C40.3457 157.284 39.9909 157.123 39.5878 156.816C39.3863 156.663 39.2327 156.512 39.1271 156.365C39.0109 156.209 38.9227 156.05 38.8626 155.887C38.8024 155.724 38.765 155.553 38.7503 155.374C38.7275 155.206 38.7075 155.023 38.6903 154.825L38.1329 155.557L36.5099 154.322L43.4041 145.268C43.6141 144.992 43.8719 144.752 44.1774 144.549C44.4803 144.327 44.8174 144.182 45.1886 144.113C45.5678 144.033 45.9638 144.041 46.3764 144.137C46.7971 144.223 47.2197 144.427 47.644 144.75C47.888 144.936 48.1103 145.172 48.3108 145.459C48.5195 145.735 48.6625 146.054 48.7399 146.414C48.8359 146.772 48.8517 147.17 48.7872 147.607C48.7201 148.025 48.5314 148.493 48.2209 149.011L46.5979 147.775ZM43.9929 151.196C44.1868 150.941 44.3033 150.678 44.3427 150.407C44.3714 150.127 44.2319 149.87 43.9243 149.635C43.6909 149.458 43.4394 149.392 43.1697 149.438C42.8813 149.486 42.6402 149.638 42.4464 149.893L40.0594 153.027C39.8333 153.324 39.7258 153.62 39.737 153.913C39.7401 154.217 39.8636 154.462 40.1076 154.648C40.3834 154.858 40.6617 154.91 40.9425 154.806C41.2233 154.701 41.4889 154.484 41.7393 154.156L43.9929 151.196Z" fill="white"/>
<path d="M38.6596 142.617L37.9514 143.378L37.9807 143.405C38.4302 143.314 38.8256 143.29 39.1668 143.334C39.4983 143.369 39.8447 143.555 40.206 143.891C40.3817 144.054 40.5351 144.251 40.6662 144.482C40.7965 144.695 40.8766 144.951 40.9064 145.252C40.9453 145.543 40.9004 145.865 40.7718 146.219C40.6243 146.574 40.3599 146.956 39.9785 147.366C39.5881 147.786 39.2135 148.12 38.8546 148.369C38.4866 148.628 38.11 148.778 37.7247 148.821C37.3583 148.862 36.9783 148.791 36.5848 148.607C36.1823 148.433 35.7466 148.128 35.2779 147.693C35.2291 147.647 35.1754 147.597 35.1168 147.543C35.0582 147.488 35.0091 147.433 34.9693 147.378C34.9296 147.323 34.8756 147.264 34.8072 147.2C34.7389 147.137 34.6702 147.064 34.6011 146.981L33.8793 147.758C33.6432 148.011 33.5017 148.271 33.4548 148.537C33.4079 148.803 33.526 149.068 33.8091 149.331C34.0044 149.512 34.2441 149.617 34.5281 149.644C34.8024 149.663 35.0774 149.573 35.3532 149.374L36.8032 150.722C36.1468 151.35 35.4228 151.678 34.6314 151.707C34.2545 151.72 33.8794 151.654 33.5062 151.507C33.1238 151.37 32.7618 151.143 32.42 150.825C32.1075 150.534 31.86 150.213 31.6774 149.861C31.4948 149.509 31.3918 149.14 31.3683 148.754C31.3546 148.378 31.4253 147.988 31.5806 147.586C31.7358 147.184 31.995 146.788 32.3581 146.398L37.1657 141.227L38.6596 142.617ZM35.6906 145.81C35.8294 145.993 35.9525 146.135 36.0599 146.235C36.3821 146.534 36.733 146.715 37.1127 146.777C37.4734 146.839 37.8399 146.67 38.2122 146.27C38.4755 145.987 38.6205 145.694 38.6472 145.391C38.674 145.088 38.5653 144.823 38.3212 144.596C38.0673 144.36 37.7948 144.261 37.5038 144.3C37.203 144.33 36.9118 144.496 36.6304 144.799L35.6906 145.81Z" fill="white"/>
<path d="M36.6891 140.885L28.9454 147.431L27.6284 145.873L28.3768 145.241L28.351 145.21C27.9689 145.254 27.6067 145.228 27.2646 145.133C26.9037 145.037 26.5726 144.81 26.2714 144.454C25.9873 144.118 25.8321 143.769 25.8056 143.407C25.7792 143.046 25.8024 142.712 25.8754 142.406C25.498 142.393 25.1339 142.334 24.7832 142.229C24.4325 142.124 24.0807 141.863 23.7278 141.445C23.5642 141.252 23.432 141.023 23.3311 140.759C23.2201 140.504 23.172 140.23 23.187 139.938C23.2021 139.646 23.2887 139.346 23.447 139.037C23.5951 138.738 23.8423 138.441 24.1885 138.149L30.13 133.126L31.447 134.684L26.0859 139.216C25.8008 139.457 25.6327 139.713 25.5817 139.983C25.5307 140.253 25.6085 140.51 25.8151 140.754C26.0647 141.05 26.3285 141.176 26.6065 141.133C26.8844 141.09 27.1965 140.922 27.5427 140.629L32.7511 136.227L34.0681 137.785L28.707 142.317C28.4219 142.558 28.2538 142.813 28.2028 143.083C28.1518 143.353 28.2296 143.611 28.4361 143.855C28.6858 144.15 28.9496 144.276 29.2275 144.233C29.5055 144.191 29.8176 144.023 30.1638 143.73L35.3722 139.327L36.6891 140.885Z" fill="white"/>
<path d="M22.5871 129.313L24.7932 132.697L25.9493 131.944C26.2174 131.769 26.3767 131.562 26.4273 131.322C26.4705 131.071 26.4084 130.817 26.241 130.56C26.0298 130.236 25.7966 130.086 25.5411 130.109C25.2784 130.121 25.0449 130.178 24.8404 130.279L23.7264 128.57C24.4748 128.082 25.2273 127.918 25.9837 128.077C26.3639 128.148 26.723 128.296 27.0609 128.521C27.3988 128.747 27.6951 129.055 27.95 129.446C28.2995 129.982 28.4863 130.513 28.5104 131.038C28.5273 131.552 28.417 132.03 28.1794 132.471C28.0361 132.74 27.8338 132.991 27.5725 133.225C27.3112 133.459 27.0074 133.689 26.6612 133.915L23.8631 135.739C23.5169 135.964 23.184 136.149 22.8644 136.294C22.5449 136.439 22.2334 136.522 21.9299 136.545C21.4302 136.584 20.9486 136.492 20.4849 136.269C20.0139 136.035 19.6037 135.65 19.2542 135.114C18.9994 134.723 18.8371 134.328 18.7672 133.927C18.6901 133.516 18.6961 133.122 18.785 132.746C18.9964 131.972 19.4819 131.337 20.2414 130.842L22.5871 129.313ZM23.4529 133.571L22.3607 131.895L21.3889 132.529C21.065 132.74 20.8758 132.975 20.8214 133.233C20.7485 133.487 20.7958 133.743 20.9632 134C21.1307 134.257 21.3492 134.409 21.6186 134.456C21.8697 134.499 22.1571 134.415 22.4811 134.204L23.4529 133.571Z" fill="white"/>
<path d="M27.3921 120.597L14.3827 126.387L13.5531 124.524L14.3936 124.15C14.0226 124.037 13.6915 123.9 13.4004 123.738C13.1092 123.576 12.8606 123.263 12.6546 122.8C12.313 122.033 12.364 121.361 12.8077 120.784C12.966 120.582 13.1866 120.389 13.4694 120.205C13.7522 120.02 14.1495 119.814 14.6611 119.587L18.1875 118.017C18.8696 117.713 19.3711 117.512 19.6919 117.413C20.3335 117.215 20.915 117.292 21.4364 117.643C21.7032 117.816 21.9396 118.134 22.1456 118.597C22.3083 118.963 22.3755 119.327 22.3473 119.69C22.3015 120.046 22.1724 120.395 21.96 120.738L21.9763 120.774L26.5625 118.733L27.3921 120.597ZM15.7465 121.336C15.3689 121.504 15.0969 121.713 14.9305 121.962C14.7641 122.211 14.7514 122.494 14.8924 122.811C15.0171 123.091 15.227 123.268 15.5222 123.341C15.8052 123.419 16.1172 123.382 16.4583 123.231L20.0578 121.628C20.3501 121.498 20.5558 121.304 20.6748 121.047C20.7762 120.783 20.7672 120.517 20.6479 120.249C20.4907 119.896 20.2753 119.707 20.0018 119.683C19.7229 119.647 19.4373 119.693 19.145 119.824L15.7465 121.336Z" fill="white"/>
<path d="M7.30693 120.154L6.61183 118.236L17.3108 114.358C17.6744 114.226 17.9024 114.073 17.9948 113.897C18.0702 113.714 18.0608 113.434 17.9667 113.057L19.7718 112.402C19.9308 112.841 20.0363 113.25 20.0883 113.628C20.1528 114.002 20.1302 114.35 20.0205 114.674C19.9233 114.992 19.7305 115.282 19.442 115.543C19.1365 115.795 18.7017 116.024 18.1376 116.228L7.30693 120.154Z" fill="white"/>
<path d="M18.5967 108.78L17.5971 109.067L17.6082 109.105C18.0406 109.259 18.3916 109.442 18.6612 109.656C18.927 109.857 19.1281 110.195 19.2643 110.669C19.3306 110.9 19.3603 111.148 19.3533 111.413C19.3556 111.662 19.2918 111.923 19.1622 112.197C19.0454 112.466 18.8407 112.719 18.548 112.956C18.2388 113.183 17.8151 113.374 17.2769 113.529C16.7258 113.687 16.2324 113.781 15.7965 113.809C15.3479 113.84 14.9476 113.775 14.5957 113.613C14.2603 113.459 13.9715 113.202 13.7292 112.842C13.4741 112.485 13.2582 111.999 13.0814 111.384C13.063 111.32 13.0427 111.25 13.0207 111.173C12.9986 111.096 12.9847 111.024 12.9791 110.956C12.9735 110.888 12.9578 110.809 12.9321 110.72C12.9063 110.63 12.8851 110.532 12.8684 110.426L11.8497 110.718C11.5165 110.814 11.2612 110.964 11.0839 111.167C10.9065 111.371 10.8712 111.659 10.978 112.03C11.0517 112.287 11.2031 112.5 11.4323 112.67C11.6578 112.827 11.9399 112.891 12.2787 112.863L12.8255 114.766C11.9394 114.966 11.1499 114.873 10.457 114.49C10.127 114.307 9.84004 114.057 9.59598 113.738C9.3391 113.424 9.14622 113.042 9.01735 112.594C8.89952 112.184 8.85313 111.781 8.87817 111.385C8.90322 110.989 9.00523 110.62 9.1842 110.277C9.36686 109.947 9.62831 109.65 9.96857 109.386C10.3088 109.122 10.7353 108.916 11.2478 108.769L18.0333 106.819L18.5967 108.78ZM14.4062 109.984C14.4304 110.213 14.4627 110.398 14.5032 110.539C14.6247 110.962 14.8322 111.297 15.1256 111.546C15.4025 111.785 15.8037 111.83 16.3291 111.679C16.7007 111.572 16.9761 111.396 17.1552 111.15C17.3343 110.904 17.3778 110.621 17.2858 110.301C17.19 109.968 17.0075 109.743 16.7381 109.626C16.465 109.496 16.1298 109.489 15.7326 109.603L14.4062 109.984Z" fill="white"/>
<path d="M8.14631 109.071L7.73351 106.951L13.6695 104.369L13.6618 104.33L7.19458 104.183L6.79324 102.122L19.032 102.714C19.4973 102.732 19.8931 102.811 20.2192 102.951C20.5428 103.079 20.8204 103.249 21.0521 103.462C21.2837 103.675 21.4603 103.919 21.5818 104.194C21.7138 104.453 21.8092 104.734 21.8678 105.035L21.9748 105.584L20.0902 105.951L20.0023 105.5C19.964 105.304 19.9047 105.138 19.8244 105.005C19.744 104.871 19.6007 104.763 19.3945 104.681C19.1909 104.612 18.9101 104.565 18.552 104.539C18.2069 104.511 17.7285 104.496 17.1166 104.493L8.14631 109.071Z" fill="white"/>
<path d="M17.3298 92.9888C17.5693 92.9681 17.793 92.8678 18.0009 92.688C18.2083 92.4948 18.3067 92.225 18.296 91.8785C18.2857 91.5453 18.1717 91.3087 17.954 91.1687C17.7495 91.0283 17.4874 90.963 17.1675 90.9729L15.1685 91.0346L15.1697 91.0746C15.5099 91.2909 15.7782 91.556 15.9747 91.8701C16.1574 92.1713 16.2551 92.5284 16.2679 92.9416C16.2942 93.7945 15.9927 94.3974 15.3633 94.7504C15.1404 94.8773 14.8632 94.9726 14.5317 95.0362C14.2002 95.0998 13.7546 95.1402 13.1948 95.1575L9.33667 95.2767C8.60368 95.2993 8.06332 95.296 7.71559 95.2667C7.04677 95.2073 6.53733 94.9096 6.18728 94.3735C6.00621 94.1256 5.90786 93.7485 5.89221 93.242C5.88439 92.9888 5.90446 92.7748 5.95242 92.5999C5.99996 92.4117 6.06812 92.2428 6.15688 92.0933C6.24564 91.9438 6.3548 91.8071 6.48437 91.683C6.6006 91.5594 6.72996 91.4286 6.87244 91.2909L5.95288 91.3193L5.8899 89.2802L17.2645 88.9289C17.611 88.9182 17.9593 88.9675 18.3095 89.0767C18.6727 89.1722 18.9981 89.3422 19.2858 89.5868C19.5868 89.831 19.8299 90.1436 20.0151 90.5247C20.2136 90.9055 20.3211 91.3624 20.3375 91.8954C20.347 92.202 20.3036 92.5235 20.2072 92.8599C20.1242 93.196 19.9671 93.5077 19.7359 93.7949C19.5184 94.0951 19.2197 94.3578 18.8398 94.583C18.4728 94.7944 17.9905 94.9427 17.3928 95.0278L17.3298 92.9888ZM13.0319 93.1216C13.3517 93.1117 13.6296 93.0364 13.8653 92.8957C14.1007 92.7417 14.2124 92.4715 14.2005 92.085C14.1914 91.7918 14.084 91.555 13.8784 91.3746C13.659 91.1813 13.3893 91.0896 13.0695 91.0994L9.13137 91.2211C8.75821 91.2326 8.46124 91.3352 8.24044 91.5287C8.00632 91.7227 7.89399 91.973 7.90346 92.2795C7.91416 92.626 8.04859 92.8753 8.30674 93.0274C8.56489 93.1795 8.90053 93.2492 9.31367 93.2364L13.0319 93.1216Z" fill="white"/>
<path d="M16.3424 83.2337L15.3049 83.1615L15.3021 83.2014C15.656 83.4933 15.923 83.7859 16.1031 84.0791C16.2841 84.359 16.3575 84.745 16.3233 85.2372C16.3066 85.4766 16.2496 85.7199 16.1522 85.9671C16.0691 86.2019 15.9199 86.4254 15.7046 86.6376C15.5027 86.8508 15.2237 87.0185 14.8677 87.1408C14.4993 87.2488 14.0358 87.2834 13.4772 87.2445C12.9052 87.2048 12.4097 87.1235 11.9905 87.0008C11.558 86.8772 11.2043 86.6788 10.9292 86.4057C10.6665 86.1469 10.483 85.8067 10.3787 85.3851C10.2611 84.9626 10.2245 84.4321 10.2689 83.7936C10.2735 83.7271 10.2786 83.654 10.2841 83.5741C10.2897 83.4943 10.3014 83.4216 10.3193 83.3561C10.3373 83.2905 10.3495 83.2111 10.356 83.118C10.3624 83.0249 10.376 82.9256 10.3967 82.8201L9.33927 82.7466C8.99344 82.7225 8.70238 82.7758 8.46608 82.9064C8.22979 83.037 8.09822 83.2951 8.07139 83.6809C8.05289 83.9469 8.12223 84.199 8.27942 84.4371C8.43754 84.662 8.68055 84.8192 9.00845 84.9089L8.87107 86.8841C7.97029 86.768 7.26 86.4112 6.7402 85.8137C6.49268 85.5291 6.30872 85.1956 6.18831 84.8129C6.0546 84.4294 6.00393 84.0049 6.03631 83.5393C6.06591 83.1137 6.16017 82.7193 6.31909 82.3561C6.47801 81.9929 6.70019 81.6809 6.98564 81.4201C7.27017 81.1726 7.6175 80.9829 8.02764 80.851C8.43777 80.7192 8.90887 80.6717 9.44092 80.7087L16.4839 81.1986L16.3424 83.2337ZM11.9929 82.9312C11.9372 83.1545 11.9043 83.3393 11.8942 83.4856C11.8636 83.9246 11.9437 84.3111 12.1343 84.6451C12.3125 84.9649 12.6743 85.1438 13.2197 85.1817C13.6054 85.2085 13.9245 85.1372 14.1768 84.9676C14.4292 84.798 14.567 84.547 14.5901 84.2145C14.6141 83.8686 14.5196 83.5947 14.3064 83.3928C14.0942 83.1775 13.7819 83.0556 13.3695 83.0269L11.9929 82.9312Z" fill="white"/>
<path d="M16.4467 80.5536L6.49358 78.6158L6.88345 76.6134L7.84538 76.8007L7.85303 76.7614C7.5797 76.4908 7.3729 76.1925 7.23265 75.8663C7.08186 75.5246 7.05105 75.1246 7.14024 74.6666C7.22433 74.2347 7.3991 73.8952 7.66456 73.648C7.93002 73.4008 8.20492 73.2099 8.48926 73.075C8.26284 72.7729 8.08077 72.4522 7.94307 72.1129C7.80536 71.7737 7.78874 71.3358 7.89322 70.7992C7.94163 70.5505 8.03713 70.3042 8.1797 70.0603C8.30919 69.8139 8.49248 69.605 8.72956 69.4339C8.96665 69.2627 9.25498 69.1422 9.59457 69.0725C9.92106 69.0002 10.3068 69.0074 10.7518 69.0941L18.3884 70.5809L17.9985 72.5833L11.1079 71.2417C10.7414 71.1704 10.437 71.1994 10.1944 71.3287C9.9519 71.4581 9.80006 71.6798 9.73891 71.9939C9.66501 72.3735 9.73183 72.6582 9.93938 72.848C10.1469 73.0378 10.4732 73.1761 10.9182 73.2627L17.6125 74.5661L17.2226 76.5685L10.332 75.2269C9.96553 75.1555 9.66104 75.1845 9.41852 75.3139C9.17599 75.4433 9.02415 75.665 8.96299 75.9791C8.8891 76.3586 8.95592 76.6433 9.16347 76.8332C9.37101 77.023 9.69728 77.1612 10.1423 77.2479L16.8365 78.5512L16.4467 80.5536Z" fill="white"/>
<path d="M16.5399 62.5576L15.2928 66.4003L16.6054 66.8263C16.9097 66.9251 17.1711 66.9188 17.3895 66.8074C17.612 66.6834 17.7705 66.4755 17.8652 66.1838C17.9846 65.816 17.955 65.5401 17.7764 65.356C17.602 65.1592 17.4111 65.0131 17.2037 64.9178L17.8334 62.9774C18.6832 63.2532 19.2836 63.7354 19.6348 64.4241C19.8188 64.7642 19.9293 65.1365 19.9663 65.541C20.0032 65.9455 19.9496 66.3697 19.8056 66.8135C19.608 67.4223 19.3124 67.9011 18.9189 68.25C18.5294 68.5862 18.0884 68.8005 17.5958 68.8929C17.2969 68.9501 16.9743 68.9506 16.6281 68.8943C16.2819 68.838 15.9122 68.7461 15.5191 68.6185L12.3422 67.5875C11.949 67.4599 11.5958 67.3172 11.2826 67.1595C10.9693 67.0017 10.7085 66.8119 10.5001 66.5901C10.1557 66.226 9.92455 65.7935 9.80673 65.2927C9.69303 64.7792 9.73495 64.2181 9.93252 63.6093C10.0766 63.1655 10.2823 62.7907 10.5497 62.485C10.8213 62.1666 11.1314 61.9238 11.48 61.7566C12.2154 61.4345 13.0142 61.4134 13.8766 61.6933L16.5399 62.5576ZM13.7709 65.9064L14.3883 64.0041L13.2849 63.646C12.9171 63.5266 12.6157 63.5269 12.3805 63.6468C12.1368 63.75 11.9676 63.9474 11.8729 64.2391C11.7782 64.5308 11.7972 64.7962 11.9298 65.0355C12.0538 65.258 12.2998 65.4289 12.6675 65.5483L13.7709 65.9064Z" fill="white"/>
<path d="M26.4468 60.5577L13.8043 54.0045L14.7431 52.1933L15.5599 52.6167C15.416 52.2568 15.3167 51.9125 15.2618 51.5837C15.207 51.2549 15.2961 50.8656 15.5293 50.4157C15.9159 49.67 16.473 49.2905 17.2008 49.2772C17.4572 49.275 17.7457 49.3269 18.0662 49.4329C18.3867 49.539 18.7955 49.7209 19.2927 49.9786L22.7196 51.755C23.3825 52.0986 23.8528 52.3648 24.1303 52.5537C24.6854 52.9316 24.9881 53.4339 25.0386 54.0608C25.0698 54.3774 24.9688 54.7605 24.7356 55.2104C24.5516 55.5655 24.3089 55.8452 24.0078 56.0495C23.7009 56.2359 23.3474 56.353 22.9471 56.4008L22.9287 56.4364L27.3856 58.7466L26.4468 60.5577ZM18.6025 51.9186C18.2355 51.7284 17.9027 51.646 17.6042 51.6715C17.3056 51.6969 17.0766 51.8636 16.9171 52.1713C16.7759 52.4436 16.769 52.7178 16.8961 52.994C17.0115 53.264 17.2349 53.4849 17.5663 53.6568L21.0643 55.4699C21.3484 55.6172 21.6281 55.6571 21.9034 55.5895C22.173 55.504 22.3753 55.331 22.5103 55.0706C22.6883 54.7273 22.7014 54.4412 22.5497 54.2124C22.4041 53.9718 22.1892 53.7778 21.9051 53.6305L18.6025 51.9186Z" fill="white"/>
<path d="M14.1993 44.6679L15.2626 42.9269L24.9745 48.8586C25.3045 49.0601 25.5668 49.1422 25.7615 49.1049C25.9517 49.0492 26.1647 48.8668 26.4003 48.5577L28.0389 49.5585C27.7956 49.9567 27.5426 50.2943 27.2797 50.5712C27.0282 50.8551 26.742 51.0552 26.4209 51.1716C26.1112 51.2949 25.7645 51.3253 25.3809 51.2629C24.9928 51.182 24.5427 50.9853 24.0306 50.6725L14.1993 44.6679Z" fill="white"/>
<path d="M30.1459 46.3335L29.296 45.7341L29.273 45.7668C29.4244 46.1999 29.5011 46.5885 29.5032 46.9326C29.5129 47.2658 29.3756 47.6339 29.0913 48.0371C28.9529 48.2332 28.7781 48.4117 28.5667 48.5726C28.3739 48.7303 28.1304 48.8442 27.8363 48.9141C27.5532 48.9918 27.2277 48.9906 26.8598 48.9106C26.4888 48.8121 26.0745 48.6015 25.6168 48.2787C25.1483 47.9482 24.7666 47.6219 24.4717 47.2997C24.166 46.9699 23.9662 46.6169 23.8725 46.2408C23.782 45.8833 23.8014 45.4972 23.9307 45.0826C24.0491 44.6603 24.2927 44.1876 24.6616 43.6646C24.7 43.6102 24.7423 43.5502 24.7884 43.4849C24.8345 43.4195 24.8822 43.3634 24.9315 43.3166C24.9809 43.2698 25.0324 43.2083 25.0862 43.132C25.14 43.0557 25.2031 42.9779 25.2755 42.8984L24.4092 42.2874C24.1259 42.0876 23.8494 41.9823 23.5797 41.9715C23.3099 41.9607 23.0636 42.1133 22.8407 42.4293C22.687 42.6472 22.6157 42.8988 22.6267 43.1839C22.6454 43.4581 22.7717 43.7186 23.0057 43.9652L21.8645 45.5832C21.1543 45.017 20.7318 44.3438 20.5969 43.5634C20.5327 43.1918 20.5482 42.8111 20.6435 42.4215C20.728 42.0242 20.9047 41.6349 21.1736 41.2535C21.4196 40.9049 21.7046 40.6164 22.0287 40.3882C22.3529 40.1599 22.7046 40.0083 23.0839 39.9332C23.4555 39.8689 23.8508 39.8867 24.2699 39.9865C24.689 40.0863 25.1165 40.2899 25.5523 40.5973L31.3217 44.6665L30.1459 46.3335ZM26.583 43.8206C26.4196 43.9827 26.2957 44.1238 26.2112 44.2436C25.9576 44.6032 25.8257 44.9752 25.8156 45.3596C25.8023 45.7255 26.019 46.066 26.4657 46.3811C26.7817 46.6039 27.0916 46.7083 27.3953 46.6941C27.699 46.6798 27.9469 46.5365 28.139 46.2641C28.3388 45.9808 28.3999 45.6976 28.3223 45.4144C28.2523 45.1203 28.0485 44.8542 27.7107 44.6159L26.583 43.8206Z" fill="white"/>
<path d="M23.3045 38.4402L24.6989 36.7906L30.4292 39.8016L30.4551 39.771L26.5195 34.637L27.8752 33.0333L35.078 42.9457C35.3553 43.3199 35.5414 43.678 35.6363 44.0201C35.7398 44.352 35.7811 44.675 35.7601 44.989C35.7391 45.3029 35.6594 45.5934 35.5209 45.8605C35.4012 46.126 35.2424 46.3758 35.0444 46.61L34.6829 47.0377L33.2166 45.7982L33.5136 45.4469C33.6427 45.2941 33.7343 45.1445 33.7882 44.9981C33.8422 44.8517 33.8366 44.6724 33.7715 44.4602C33.6978 44.2582 33.5587 44.0097 33.3543 43.7146C33.1599 43.4282 32.8724 43.0454 32.4917 42.5664L23.3045 38.4402Z" fill="white"/>
<path d="M41.5079 35.552C41.6743 35.7255 41.8927 35.8368 42.1632 35.8858C42.4438 35.9262 42.7156 35.8335 42.9787 35.6078C43.2317 35.3907 43.3444 35.1535 43.3168 34.8961C43.2979 34.6488 43.1843 34.4037 42.9759 34.1609L41.6737 32.6429L41.6433 32.669C41.6883 33.0695 41.6502 33.4448 41.5288 33.7949C41.409 34.1261 41.1922 34.4263 40.8785 34.6954C40.2308 35.2511 39.5721 35.3945 38.9024 35.1258C38.6637 35.0319 38.4156 34.8758 38.1581 34.6576C37.9006 34.4393 37.5895 34.1177 37.2249 33.6927L34.7116 30.763C34.2341 30.2065 33.8976 29.7836 33.7023 29.4944C33.3289 28.9364 33.2411 28.3529 33.439 27.7439C33.5184 27.4474 33.7504 27.1342 34.1349 26.8043C34.3272 26.6394 34.5065 26.5207 34.6728 26.4483C34.8492 26.3672 35.0234 26.3144 35.1955 26.2897C35.3676 26.2651 35.5426 26.2643 35.7205 26.2873C35.8897 26.3003 36.0726 26.319 36.2693 26.3435L35.6703 25.6452L37.2186 24.3169L44.6284 32.954C44.8541 33.2171 45.0343 33.5193 45.169 33.8605C45.3224 34.2032 45.3942 34.5633 45.3842 34.9407C45.3829 35.3283 45.292 35.7138 45.1114 36.0971C44.9395 36.4905 44.6511 36.8609 44.2463 37.2082C44.0136 37.4078 43.736 37.5757 43.4135 37.7118C43.0998 37.858 42.7585 37.9312 42.3897 37.9314C42.0195 37.9503 41.6275 37.8825 41.2139 37.728C40.819 37.5748 40.4009 37.2923 39.9596 36.8803L41.5079 35.552ZM38.7081 32.2885C38.9164 32.5313 39.1494 32.7004 39.4068 32.7958C39.6744 32.8824 39.9549 32.7999 40.2484 32.5481C40.471 32.3571 40.5881 32.1249 40.5995 31.8516C40.6124 31.5595 40.5147 31.292 40.3063 31.0491L37.7409 28.0587C37.4978 27.7754 37.2316 27.6085 36.9424 27.558C36.6444 27.4974 36.3791 27.5669 36.1463 27.7666C35.8832 27.9923 35.7734 28.2534 35.8169 28.5499C35.8604 28.8463 36.0168 29.1514 36.2859 29.4651L38.7081 32.2885Z" fill="white"/>
<path d="M48.3959 28.7025L47.7996 27.8505L47.7668 27.8734C47.7624 28.3322 47.7028 28.7238 47.5881 29.0482C47.4843 29.3649 47.2303 29.6647 46.8261 29.9476C46.6295 30.0852 46.4045 30.1939 46.151 30.2736C45.9162 30.3566 45.6486 30.3811 45.3482 30.3472C45.0554 30.3242 44.7496 30.2128 44.4307 30.0129C44.115 29.7944 43.7966 29.4557 43.4756 28.9969C43.1468 28.5272 42.8984 28.0908 42.7302 27.6877C42.5544 27.2737 42.4861 26.8739 42.5255 26.4883C42.5616 26.1213 42.7107 25.7647 42.9729 25.4185C43.2275 25.0613 43.6169 24.6992 44.1413 24.3323C44.1959 24.2941 44.256 24.252 44.3215 24.2061C44.3871 24.1603 44.451 24.1237 44.5132 24.0964C44.5755 24.0691 44.6449 24.0287 44.7213 23.9752C44.7978 23.9216 44.8835 23.8698 44.9786 23.8195L44.3708 22.9511C44.172 22.6671 43.9476 22.4742 43.6975 22.3726C43.4473 22.271 43.1639 22.3311 42.8471 22.5528C42.6286 22.7057 42.4762 22.9181 42.3899 23.1901C42.3145 23.4544 42.345 23.7422 42.4815 24.0536L40.8593 25.1889C40.3832 24.4154 40.2139 23.6388 40.3517 22.8589C40.4172 22.4875 40.5609 22.1347 40.7827 21.8005C40.9968 21.4554 41.295 21.149 41.6774 20.8814C42.027 20.6368 42.3929 20.462 42.7752 20.3572C43.1575 20.2524 43.5398 20.229 43.9221 20.2869C44.2935 20.3525 44.6594 20.5033 45.0199 20.7392C45.3803 20.9752 45.7134 21.3117 46.0192 21.7486L50.0672 27.5328L48.3959 28.7025ZM45.896 25.1304C45.6873 25.2276 45.5229 25.3182 45.4028 25.4023C45.0423 25.6546 44.7921 25.9599 44.6523 26.3182C44.5157 26.6579 44.6041 27.0516 44.9176 27.4995C45.1393 27.8163 45.3954 28.0195 45.6859 28.1091C45.9765 28.1987 46.2583 28.148 46.5314 27.9568C46.8154 27.7581 46.9689 27.5123 46.9919 27.2196C47.0258 26.9192 46.9242 26.5997 46.6872 26.261L45.896 25.1304Z" fill="white"/>
<path d="M50.3658 27.1926L45.5998 18.2425L47.4004 17.2836L47.861 18.1487L47.8963 18.1298C47.9342 17.7471 48.0356 17.3986 48.2005 17.0842C48.3709 16.7517 48.6621 16.4758 49.074 16.2565C49.4624 16.0497 49.8361 15.9715 50.1953 16.0219C50.5545 16.0723 50.876 16.1655 51.1598 16.3013C51.2518 15.9351 51.3862 15.5917 51.5629 15.271C51.7395 14.9503 52.0691 14.6615 52.5516 14.4046C52.7752 14.2855 53.0267 14.2045 53.3059 14.1615C53.5789 14.1068 53.8565 14.1176 54.1388 14.1938C54.4211 14.2701 54.6963 14.4181 54.9644 14.6379C55.2263 14.8459 55.4637 15.15 55.6768 15.5501L59.3336 22.4172L57.533 23.376L54.2334 17.1798C54.0579 16.8503 53.8435 16.6321 53.5903 16.5253C53.337 16.4184 53.0692 16.4402 52.7867 16.5906C52.4454 16.7724 52.2664 17.0036 52.2498 17.2844C52.2331 17.5652 52.3314 17.9056 52.5444 18.3058L55.75 24.3255L53.9494 25.2843L50.6498 19.0881C50.4743 18.7586 50.26 18.5404 50.0067 18.4336C49.7534 18.3267 49.4856 18.3485 49.2031 18.4989C48.8618 18.6807 48.6829 18.9119 48.6662 19.1927C48.6496 19.4735 48.7478 19.8139 48.9609 20.2141L52.1664 26.2338L50.3658 27.1926Z" fill="white"/>
<path d="M64.5266 15.8593L60.7548 17.3069L61.2493 18.5952C61.364 18.894 61.5333 19.0932 61.7572 19.1929C61.9936 19.2879 62.2549 19.2804 62.5412 19.1705C62.9022 19.032 63.0981 18.8354 63.1289 18.5808C63.1722 18.3214 63.1657 18.0811 63.1093 17.8599L65.0139 17.129C65.334 17.963 65.3368 18.7331 65.0223 19.4394C64.8737 19.7963 64.6537 20.1164 64.3625 20.3995C64.0713 20.6827 63.7079 20.9078 63.2722 21.0751C62.6747 21.3044 62.1165 21.3758 61.5978 21.2893C61.0914 21.198 60.6474 20.9899 60.2657 20.6651C60.0332 20.4687 59.8299 20.2183 59.6559 19.9137C59.4819 19.6092 59.3209 19.264 59.1728 18.8781L57.976 15.7599C57.8279 15.374 57.7166 15.0097 57.6422 14.6669C57.5677 14.3241 57.5512 14.002 57.5926 13.7005C57.659 13.2037 57.8498 12.752 58.165 12.3454C58.4927 11.934 58.9553 11.6136 59.5528 11.3843C59.9885 11.2171 60.4093 11.1413 60.8152 11.1569C61.2335 11.1677 61.6173 11.2561 61.9666 11.4219C62.6795 11.791 63.1984 12.3987 63.5233 13.2452L64.5266 15.8593ZM60.1815 15.8131L62.0487 15.0965L61.633 14.0135C61.4945 13.6525 61.3046 13.4183 61.0635 13.3109C60.83 13.1863 60.5701 13.179 60.2838 13.2889C59.9975 13.3987 59.803 13.5805 59.7004 13.8341C59.6055 14.0705 59.6273 14.3692 59.7659 14.7301L60.1815 15.8131Z" fill="white"/>
<path d="M72.1488 22.3193L69.2674 8.37388L71.2652 7.9611L71.4514 8.86207C71.6401 8.52354 71.8448 8.22937 72.0655 7.97954C72.2862 7.72972 72.6446 7.55355 73.1408 7.45103C73.9634 7.28106 74.6092 7.47438 75.0782 8.031C75.2416 8.22869 75.3831 8.48537 75.5028 8.80101C75.6225 9.11666 75.739 9.54869 75.8523 10.0971L76.6333 13.8773C76.7844 14.6085 76.8741 15.1414 76.9024 15.4759C76.9589 16.145 76.7598 16.6967 76.3049 17.131C76.0789 17.3547 75.7177 17.5178 75.2215 17.6204C74.8298 17.7013 74.4597 17.6893 74.1113 17.5843C73.7732 17.4635 73.4594 17.2629 73.17 16.9823L73.1308 16.9904L74.1466 21.9065L72.1488 22.3193ZM73.9112 10.7841C73.8275 10.3793 73.6817 10.0691 73.4738 9.85335C73.2658 9.63763 72.9921 9.56484 72.6526 9.63499C72.3523 9.69704 72.135 9.86447 72.0008 10.1373C71.8638 10.397 71.8331 10.7097 71.9087 11.0753L72.7059 14.9338C72.7706 15.2472 72.916 15.4895 73.142 15.6606C73.3783 15.816 73.6401 15.864 73.9274 15.8047C74.306 15.7264 74.5364 15.5563 74.6184 15.2943C74.7135 15.0296 74.7286 14.7405 74.6639 14.4271L73.9112 10.7841Z" fill="white"/>
<path d="M77.1493 2.73025L79.1718 2.46377L80.6583 13.7463C80.7088 14.1296 80.8098 14.3853 80.9611 14.5133C81.1239 14.6263 81.3996 14.6774 81.7882 14.6666L82.039 16.5701C81.5764 16.6311 81.1547 16.6463 80.7741 16.6157C80.3953 16.5984 80.0598 16.5014 79.7675 16.3247C79.477 16.1613 79.2355 15.9107 79.0431 15.5729C78.8621 15.2202 78.7325 14.7464 78.6541 14.1515L77.1493 2.73025Z" fill="white"/>
<path d="M85.8748 16.1819L85.8066 15.1441L85.7667 15.1467C85.5251 15.5367 85.2711 15.8407 85.0048 16.0586C84.7518 16.2757 84.3792 16.4004 83.8869 16.4327C83.6474 16.4484 83.3987 16.4247 83.1406 16.3615C82.8968 16.3107 82.6552 16.1929 82.4159 16.0082C82.1775 15.8368 81.9738 15.5829 81.8047 15.2466C81.6481 14.8961 81.5514 14.4415 81.5147 13.8827C81.4771 13.3106 81.4909 12.8086 81.5561 12.3767C81.6204 11.9316 81.7693 11.5543 82.0029 11.245C82.224 10.9499 82.5364 10.7223 82.9401 10.5621C83.343 10.3887 83.8637 10.281 84.5023 10.239C84.5688 10.2347 84.642 10.2299 84.7218 10.2246C84.8017 10.2194 84.8753 10.2212 84.9427 10.2302C85.0101 10.2391 85.0903 10.2405 85.1835 10.2344C85.2766 10.2283 85.3768 10.2284 85.4841 10.2347L85.4147 9.17697C85.3919 8.83104 85.3 8.5498 85.1388 8.33323C84.9776 8.11667 84.704 8.02105 84.3182 8.0464C84.0521 8.06387 83.8117 8.16652 83.5968 8.35434C83.3953 8.54128 83.2722 8.80324 83.2276 9.14023L81.2518 9.27C81.2456 8.36178 81.5036 7.60993 82.0257 7.01443C82.2743 6.73086 82.58 6.50366 82.943 6.33284C83.305 6.14872 83.7189 6.04137 84.1845 6.01078C84.6103 5.98282 85.0138 6.02313 85.395 6.1317C85.7763 6.24028 86.1154 6.41844 86.4123 6.66619C86.6958 6.9148 86.9306 7.23344 87.1164 7.62209C87.3023 8.01074 87.4127 8.47116 87.4477 9.00335L87.9104 16.0482L85.8748 16.1819ZM85.589 11.8312C85.3602 11.8062 85.1726 11.7985 85.0263 11.8081C84.5872 11.8369 84.215 11.9683 83.9097 12.2021C83.6168 12.4218 83.4883 12.8044 83.5241 13.3498C83.5494 13.7357 83.6631 14.0422 83.8651 14.2695C84.0671 14.4967 84.3344 14.5994 84.667 14.5776C85.0129 14.5549 85.2716 14.4243 85.443 14.1859C85.6277 13.9466 85.7065 13.6207 85.6794 13.2083L85.589 11.8312Z" fill="white"/>
<path d="M88.3387 5.89504L90.4979 5.95339L91.7266 12.3089L91.7666 12.31L93.3169 6.02957L95.4161 6.0863L92.1757 17.9031C92.0568 18.3534 91.8934 18.7224 91.6856 19.0102C91.4911 19.2984 91.2647 19.5324 91.0064 19.7122C90.7481 19.8919 90.4714 20.0111 90.1764 20.0699C89.8944 20.1423 89.6 20.1743 89.2935 20.166L88.7337 20.1509L88.7856 18.2316L89.2454 18.244C89.4453 18.2494 89.6193 18.2275 89.7674 18.1781C89.9154 18.1288 90.0519 18.0124 90.1769 17.8291C90.2886 17.6453 90.3958 17.3815 90.4984 17.0375C90.6008 16.7068 90.72 16.2431 90.8562 15.6466L88.3387 5.89504Z" fill="white"/>
<path d="M101.598 18.2591C101.567 18.4975 101.617 18.7375 101.749 18.979C101.893 19.223 102.135 19.3768 102.476 19.4404C102.804 19.5016 103.059 19.4408 103.243 19.2581C103.424 19.0884 103.543 18.8463 103.602 18.5317L103.969 16.5657L103.93 16.5584C103.646 16.8444 103.33 17.0498 102.981 17.1746C102.647 17.2886 102.278 17.3077 101.871 17.2318C101.033 17.0752 100.508 16.6517 100.298 15.9613C100.222 15.7165 100.188 15.4253 100.197 15.0879C100.205 14.7504 100.261 14.3065 100.364 13.756L101.073 9.9616C101.207 9.24073 101.326 8.71358 101.429 8.38015C101.63 7.73951 102.03 7.30554 102.628 7.07824C102.909 6.95436 103.299 6.93894 103.797 7.03197C104.046 7.07848 104.251 7.14386 104.411 7.22811C104.585 7.31481 104.735 7.4175 104.862 7.53617C104.989 7.65485 105.1 7.79073 105.193 7.94383C105.289 8.08383 105.389 8.23815 105.493 8.4068L105.662 7.50244L107.668 7.87699L105.578 19.0635C105.514 19.4043 105.392 19.7341 105.21 20.0528C105.039 20.3871 104.804 20.6686 104.503 20.8973C104.2 21.1392 103.843 21.3098 103.431 21.4092C103.017 21.5217 102.547 21.529 102.023 21.4311C101.722 21.3748 101.417 21.2636 101.109 21.0975C100.798 20.9446 100.527 20.7244 100.296 20.4371C100.049 20.1604 99.8567 19.8125 99.718 19.3932C99.5899 18.9895 99.5482 18.4866 99.5928 17.8846L101.598 18.2591ZM102.388 14.0322C102.329 14.3468 102.343 14.6343 102.43 14.8947C102.53 15.1575 102.77 15.3244 103.15 15.3954C103.439 15.4493 103.693 15.3951 103.913 15.2327C104.149 15.0597 104.296 14.816 104.355 14.5014L105.078 10.6284C105.147 10.2614 105.11 9.94936 104.968 9.69228C104.829 9.42208 104.608 9.25883 104.307 9.20253C103.966 9.13888 103.694 9.21688 103.49 9.43653C103.286 9.65618 103.147 9.96916 103.071 10.3755L102.388 14.0322Z" fill="white"/>
<path d="M111.208 19.3238L111.499 18.3254L111.461 18.3142C111.1 18.598 110.758 18.7967 110.433 18.9104C110.121 19.0278 109.728 19.0175 109.254 18.8794C109.024 18.8123 108.798 18.7049 108.578 18.5572C108.366 18.426 108.179 18.2327 108.017 17.9773C107.852 17.7347 107.747 17.4264 107.704 17.0526C107.676 16.6696 107.741 16.2093 107.898 15.6717C108.058 15.1213 108.243 14.6543 108.452 14.2708C108.665 13.8745 108.934 13.571 109.259 13.3602C109.568 13.1586 109.939 13.0516 110.373 13.0392C110.811 13.014 111.337 13.091 111.952 13.2701C112.016 13.2887 112.086 13.3092 112.163 13.3316C112.24 13.354 112.308 13.3809 112.368 13.4124C112.429 13.4438 112.504 13.4726 112.593 13.4987C112.683 13.5248 112.777 13.5592 112.876 13.6019L113.172 12.5842C113.269 12.2514 113.279 11.9557 113.202 11.697C113.124 11.4384 112.9 11.2549 112.529 11.1467C112.273 11.0721 112.012 11.0863 111.746 11.1893C111.492 11.296 111.287 11.5001 111.13 11.8014L109.229 11.2474C109.534 10.3919 110.033 9.77367 110.728 9.39272C111.058 9.21132 111.423 9.10244 111.823 9.06609C112.226 9.01694 112.652 9.05765 113.1 9.18822C113.509 9.3076 113.875 9.48353 114.196 9.71599C114.517 9.94846 114.774 10.2319 114.969 10.5662C115.15 10.8969 115.262 11.2766 115.303 11.7054C115.345 12.1342 115.291 12.6046 115.142 13.1166L113.167 19.8946L111.208 19.3238ZM112.428 15.138C112.222 15.0361 112.048 14.9647 111.907 14.9237C111.485 14.8006 111.09 14.7966 110.723 14.9119C110.373 15.0181 110.121 15.3336 109.968 15.8585C109.86 16.2297 109.862 16.5566 109.974 16.8393C110.086 17.1219 110.302 17.3099 110.622 17.4031C110.955 17.5001 111.243 17.4659 111.485 17.3006C111.741 17.1389 111.926 16.8597 112.042 16.4628L112.428 15.138Z" fill="white"/>
<path d="M113.87 20.0069L117.89 10.6977L119.762 11.5063L119.374 12.4061L119.411 12.4219C119.733 12.2127 120.069 12.0744 120.418 12.0071C120.784 11.9328 121.181 11.9882 121.609 12.1732C122.013 12.3476 122.308 12.5909 122.492 12.903C122.677 13.2151 122.805 13.5245 122.876 13.8311C123.22 13.6744 123.572 13.5651 123.933 13.503C124.293 13.441 124.725 13.5183 125.227 13.735C125.459 13.8355 125.679 13.9814 125.887 14.1728C126.1 14.3519 126.265 14.5756 126.382 14.8438C126.498 15.112 126.554 15.4194 126.55 15.766C126.551 16.1004 126.461 16.4757 126.282 16.8919L123.198 24.0345L121.325 23.2258L124.107 16.7809C124.255 16.4382 124.292 16.1345 124.218 15.87C124.143 15.6054 123.959 15.4097 123.665 15.2828C123.31 15.1296 123.018 15.134 122.788 15.2962C122.558 15.4584 122.353 15.7476 122.174 16.1638L119.47 22.425L117.597 21.6163L120.38 15.1715C120.528 14.8287 120.565 14.5251 120.49 14.2605C120.416 13.996 120.232 13.8002 119.938 13.6734C119.583 13.5201 119.29 13.5246 119.061 13.6868C118.831 13.849 118.626 14.1381 118.446 14.5543L115.743 20.8156L113.87 20.0069Z" fill="white"/>
<path d="M131.529 23.9923L128.043 21.9503L127.346 23.141C127.184 23.4172 127.134 23.6738 127.196 23.911C127.269 24.1549 127.438 24.3543 127.703 24.5094C128.037 24.7048 128.313 24.735 128.531 24.6001C128.76 24.4719 128.944 24.3168 129.081 24.1347L130.842 25.1658C130.39 25.9366 129.79 26.4197 129.042 26.6151C128.671 26.7219 128.283 26.75 127.88 26.6994C127.477 26.6487 127.075 26.5055 126.672 26.2696C126.12 25.9461 125.715 25.5547 125.459 25.0955C125.214 24.643 125.099 24.1663 125.115 23.6653C125.123 23.3611 125.192 23.0459 125.321 22.7199C125.45 22.3938 125.619 22.0524 125.828 21.6958L127.516 18.8138C127.725 18.4572 127.94 18.1428 128.161 17.8706C128.383 17.5984 128.624 17.3844 128.885 17.2284C129.315 16.9701 129.787 16.837 130.301 16.8293C130.827 16.8284 131.366 16.9896 131.918 17.3131C132.321 17.549 132.643 17.8303 132.884 18.1571C133.137 18.4906 133.308 18.8455 133.396 19.2219C133.553 20.0092 133.403 20.794 132.944 21.5763L131.529 23.9923ZM128.852 20.5697L130.578 21.5806L131.164 20.5797C131.359 20.2461 131.424 19.9516 131.357 19.6961C131.309 19.436 131.152 19.2284 130.887 19.0734C130.623 18.9184 130.359 18.88 130.097 18.9582C129.853 19.0316 129.634 19.2352 129.438 19.5688L128.852 20.5697Z" fill="white"/>
<path d="M131.248 33.9985L140.322 23.0238L141.894 24.3237L141.308 25.0328C141.69 24.9681 142.047 24.9437 142.38 24.9595C142.713 24.9753 143.075 25.1446 143.466 25.4674C144.113 26.0027 144.366 26.6274 144.226 27.3415C144.174 27.5927 144.062 27.8637 143.891 28.1546C143.72 28.4455 143.455 28.8067 143.099 29.2383L140.639 32.2132C140.163 32.7886 139.804 33.192 139.56 33.4234C139.074 33.8863 138.519 34.0762 137.896 33.9932C137.58 33.9569 137.226 33.7773 136.836 33.4545C136.528 33.1996 136.305 32.9034 136.169 32.5659C136.052 32.2266 136.012 31.8563 136.05 31.455L136.019 31.4295L132.82 35.2984L131.248 33.9985ZM141.348 28.1542C141.611 27.8356 141.762 27.5277 141.8 27.2306C141.838 26.9334 141.724 26.6743 141.457 26.4534C141.22 26.258 140.954 26.1933 140.657 26.2593C140.369 26.3151 140.106 26.4868 139.868 26.7745L137.357 29.811C137.153 30.0577 137.055 30.3227 137.063 30.606C137.09 30.8876 137.216 31.1218 137.442 31.3088C137.74 31.5551 138.017 31.6283 138.273 31.5283C138.539 31.4368 138.774 31.2678 138.978 31.0211L141.348 28.1542Z" fill="white"/>
<path d="M149.312 25.3234L150.791 26.7287L142.951 34.9776C142.685 35.2579 142.55 35.4971 142.545 35.6953C142.56 35.893 142.693 36.1395 142.946 36.4349L141.623 37.8266C141.285 37.5051 141.008 37.1868 140.793 36.8716C140.568 36.5661 140.433 36.2442 140.386 35.9058C140.331 35.5772 140.374 35.2318 140.515 34.8698C140.676 34.5074 140.963 34.1087 141.376 33.6738L149.312 25.3234Z" fill="white"/>
<path d="M144.341 40.5605L145.105 39.8551L145.078 39.8257C144.623 39.883 144.227 39.8766 143.89 39.8065C143.562 39.7462 143.231 39.5348 142.896 39.1723C142.733 38.9959 142.596 38.7876 142.482 38.5472C142.369 38.3256 142.308 38.0637 142.302 37.7615C142.285 37.4683 142.354 37.1503 142.51 36.8074C142.684 36.4652 142.976 36.1042 143.388 35.7244C143.809 35.3355 144.208 35.0306 144.585 34.8098C144.972 34.5799 145.359 34.4586 145.746 34.4458C146.115 34.4322 146.488 34.5321 146.866 34.7454C147.255 34.9496 147.666 35.2868 148.1 35.7571C148.145 35.8061 148.195 35.86 148.249 35.9188C148.303 35.9775 148.348 36.036 148.383 36.094C148.419 36.152 148.468 36.2153 148.532 36.2839C148.595 36.3525 148.658 36.4305 148.72 36.5179L149.499 35.7989C149.754 35.5638 149.915 35.3155 149.982 35.0539C150.049 34.7924 149.951 34.5196 149.689 34.2355C149.508 34.0395 149.277 33.9171 148.996 33.8681C148.724 33.8289 148.443 33.8979 148.153 34.075L146.81 32.6201C147.512 32.0443 148.259 31.7722 149.05 31.8039C149.427 31.8189 149.796 31.9139 150.157 32.0887C150.528 32.2545 150.872 32.5089 151.188 32.8518C151.478 33.1653 151.7 33.5044 151.855 33.8692C152.01 34.234 152.085 34.6097 152.079 34.9963C152.064 35.3731 151.964 35.7559 151.778 36.1448C151.593 36.5337 151.304 36.909 150.912 37.2708L145.725 42.0595L144.341 40.5605ZM147.545 37.6032C147.42 37.4095 147.308 37.2588 147.209 37.151C146.91 36.8277 146.574 36.6208 146.201 36.5304C145.846 36.4407 145.467 36.5812 145.066 36.952C144.781 37.2143 144.615 37.4954 144.565 37.7954C144.515 38.0953 144.603 38.3678 144.829 38.6127C145.064 38.8674 145.329 38.9865 145.622 38.9699C145.924 38.9631 146.227 38.8196 146.531 38.5392L147.545 37.6032Z" fill="white"/>
<path d="M153.807 35.9011L155.122 37.6148L150.96 42.5726L150.984 42.6044L156.839 39.8522L158.117 41.5183L146.898 46.4453C146.474 46.6366 146.084 46.7422 145.73 46.7621C145.383 46.7925 145.059 46.7641 144.757 46.6767C144.454 46.5894 144.187 46.4496 143.956 46.2575C143.722 46.084 143.512 45.8756 143.325 45.6323L142.984 45.188L144.507 44.0193L144.787 44.3842C144.909 44.5429 145.036 44.6642 145.167 44.7481C145.299 44.832 145.475 44.8647 145.697 44.8463C145.91 44.8173 146.182 44.7343 146.514 44.5974C146.835 44.4685 147.27 44.2691 147.819 43.9991L153.807 35.9011Z" fill="white"/>
<path d="M152.792 54.4171C152.587 54.5425 152.431 54.732 152.326 54.9856C152.226 55.251 152.258 55.5364 152.422 55.8418C152.58 56.1354 152.788 56.2964 153.045 56.3246C153.29 56.3592 153.554 56.3007 153.836 56.1493L155.598 55.2027L155.579 55.1674C155.178 55.1255 154.82 55.0078 154.504 54.8143C154.206 54.6262 153.959 54.35 153.764 53.9859C153.36 53.2342 153.361 52.5601 153.767 51.9636C153.91 51.7506 154.115 51.5417 154.384 51.337C154.652 51.1322 155.033 50.8973 155.526 50.6323L158.927 48.8054C159.573 48.4583 160.058 48.2204 160.382 48.0916C161.007 47.8465 161.596 47.8859 162.148 48.2097C162.421 48.3508 162.677 48.6445 162.917 49.0909C163.037 49.314 163.114 49.5146 163.149 49.6925C163.191 49.8822 163.205 50.0637 163.192 50.2371C163.179 50.4105 163.143 50.5816 163.082 50.7504C163.033 50.9129 162.976 51.0876 162.91 51.2744L163.72 50.839L164.685 52.6361L154.661 58.022C154.355 58.1861 154.022 58.2973 153.659 58.3557C153.292 58.4321 152.925 58.425 152.558 58.3343C152.18 58.25 151.823 58.0786 151.487 57.82C151.14 57.5677 150.84 57.2067 150.587 56.7368C150.442 56.4667 150.338 56.1596 150.274 55.8154C150.198 55.4776 150.2 55.1286 150.279 54.7684C150.34 54.4027 150.49 54.0344 150.73 53.6634C150.964 53.3106 151.33 52.9628 151.827 52.6201L152.792 54.4171ZM156.58 52.382C156.298 52.5335 156.083 52.7247 155.935 52.9558C155.793 53.1986 155.813 53.4903 155.996 53.8309C156.135 54.0893 156.337 54.2534 156.601 54.3231C156.884 54.3984 157.166 54.3602 157.448 54.2088L160.919 52.3441C161.248 52.1674 161.468 51.9432 161.579 51.6714C161.702 51.3934 161.691 51.1193 161.546 50.8492C161.382 50.5438 161.15 50.3806 160.851 50.3595C160.553 50.3385 160.221 50.4258 159.857 50.6214L156.58 52.382Z" fill="white"/>
<path d="M157.861 62.3154L158.82 61.9139L158.805 61.877C158.357 61.7751 157.987 61.6337 157.695 61.4526C157.407 61.2839 157.168 60.9719 156.978 60.5169C156.885 60.2955 156.827 60.0525 156.803 59.7879C156.772 59.5408 156.805 59.2741 156.902 58.9877C156.986 58.7066 157.16 58.4314 157.423 58.1623C157.704 57.9003 158.103 57.6612 158.619 57.445C159.148 57.2236 159.627 57.0736 160.057 56.9949C160.499 56.9112 160.904 56.9295 161.272 57.0499C161.623 57.1632 161.94 57.3847 162.223 57.7145C162.518 58.0392 162.789 58.4967 163.036 59.087C163.061 59.1485 163.09 59.2162 163.121 59.29C163.151 59.3638 163.174 59.434 163.187 59.5007C163.201 59.5673 163.225 59.6437 163.261 59.7298C163.297 59.8159 163.33 59.9107 163.359 60.0142L164.337 59.6049C164.656 59.4711 164.892 59.2928 165.045 59.07C165.197 58.8471 165.199 58.5574 165.05 58.2007C164.947 57.9547 164.771 57.7606 164.524 57.6185C164.282 57.4886 163.994 57.4573 163.661 57.5245L162.896 55.698C163.753 55.3972 164.548 55.3969 165.281 55.6973C165.63 55.8403 165.944 56.0557 166.224 56.3434C166.515 56.626 166.751 56.9826 166.931 57.413C167.096 57.8066 167.189 58.2014 167.21 58.5972C167.231 58.9931 167.173 59.3716 167.035 59.7329C166.892 60.0818 166.667 60.4073 166.36 60.7094C166.053 61.0114 165.653 61.2654 165.161 61.4713L158.649 64.1972L157.861 62.3154ZM161.883 60.632C161.832 60.4075 161.779 60.2275 161.722 60.0923C161.552 59.6864 161.307 59.377 160.987 59.1642C160.684 58.9585 160.28 58.9613 159.776 59.1723C159.419 59.3216 159.166 59.5287 159.017 59.7936C158.867 60.0584 158.857 60.3446 158.986 60.6521C159.12 60.9719 159.327 61.1741 159.608 61.2588C159.895 61.3557 160.229 61.3244 160.61 61.1648L161.883 60.632Z" fill="white"/>
<path d="M158.991 64.8104L168.758 62.084L169.306 64.0489L168.362 64.3124L168.373 64.3509C168.738 64.4704 169.057 64.6445 169.329 64.8732C169.616 65.1112 169.823 65.455 169.949 65.9045C170.067 66.3283 170.063 66.7101 169.936 67.05C169.81 67.3899 169.649 67.6838 169.456 67.9317C169.793 68.1004 170.1 68.3056 170.375 68.5472C170.65 68.7888 170.861 69.1728 171.008 69.6994C171.076 69.9434 171.101 70.2064 171.083 70.4883C171.077 70.7667 171.007 71.0355 170.872 71.2947C170.737 71.554 170.533 71.7908 170.26 72.0053C170.001 72.2162 169.653 72.3825 169.216 72.5044L161.723 74.5963L161.174 72.6314L167.936 70.7439C168.295 70.6435 168.554 70.4812 168.713 70.2569C168.872 70.0326 168.909 69.7663 168.823 69.4581C168.719 69.0856 168.531 68.8611 168.261 68.7843C167.99 68.7076 167.637 68.7302 167.2 68.8521L160.631 70.6858L160.083 68.7209L166.844 66.8334C167.204 66.733 167.463 66.5707 167.622 66.3464C167.781 66.1221 167.817 65.8558 167.731 65.5476C167.627 65.1752 167.44 64.9506 167.169 64.8738C166.899 64.7971 166.545 64.8197 166.108 64.9416L159.539 66.7753L158.991 64.8104Z" fill="white"/>
<path d="M166.983 81.0454L166.378 77.0509L165.014 77.2574C164.697 77.3053 164.466 77.4278 164.321 77.6252C164.177 77.8357 164.129 78.0925 164.174 78.3957C164.232 78.7781 164.382 79.0116 164.624 79.0963C164.868 79.1942 165.104 79.2394 165.333 79.2319L165.638 81.2489C164.755 81.3826 164.002 81.22 163.379 80.7613C163.063 80.5395 162.797 80.2561 162.583 79.9109C162.369 79.5657 162.227 79.1624 162.157 78.701C162.062 78.0682 162.112 77.5077 162.308 77.0196C162.505 76.5446 162.804 76.1556 163.203 75.8525C163.445 75.6675 163.733 75.5228 164.068 75.4182C164.403 75.3136 164.774 75.2304 165.183 75.1685L168.485 74.6688C168.894 74.6069 169.274 74.5764 169.624 74.5773C169.975 74.5782 170.293 74.6312 170.579 74.7363C171.05 74.9077 171.45 75.1911 171.78 75.5862C172.111 75.9945 172.325 76.5151 172.421 77.1479C172.49 77.6093 172.474 78.0365 172.372 78.4296C172.271 78.8359 172.103 79.1918 171.866 79.4973C171.352 80.1144 170.647 80.4908 169.751 80.6265L166.983 81.0454ZM167.96 76.8115L168.259 78.789L169.406 78.6154C169.789 78.5576 170.058 78.4224 170.215 78.2099C170.386 78.0086 170.449 77.7563 170.404 77.4531C170.358 77.1499 170.222 76.921 169.996 76.7663C169.786 76.6229 169.489 76.5801 169.107 76.6379L167.96 76.8115Z" fill="white"/>
<path d="M106.475 92.4749C107.842 91.108 107.842 88.892 106.475 87.5251L84.201 65.2513C82.8342 63.8844 80.6181 63.8844 79.2513 65.2513C77.8844 66.6181 77.8844 68.8342 79.2513 70.201L99.0503 90L79.2513 109.799C77.8844 111.166 77.8844 113.382 79.2513 114.749C80.6181 116.116 82.8342 116.116 84.201 114.749L106.475 92.4749ZM102 93.5H104V86.5H102V93.5Z" fill="white"/>
</svg>
