<svg width="700" height="40" viewBox="0 0 700 40" fill="none" xmlns="http://www.w3.org/2000/svg">
<rect width="700" height="40" fill="#FFEC41"/>
<rect y="3" width="700" height="3" fill="black"/>
<rect y="34" width="700" height="3" fill="black"/>
<path d="M297.2 18.1338C296.68 18.9205 296.393 19.7805 296.34 20.7138V22.4138C296.407 23.2938 296.707 24.1005 297.24 24.8338L298.66 26.3938L297.22 27.6938L295.78 26.1138C295.34 25.5805 295.007 25.0005 294.78 24.3738C294.513 23.7205 294.38 23.0672 294.38 22.4138V20.7138C294.393 20.0338 294.513 19.3738 294.74 18.7338C294.953 18.0938 295.247 17.5005 295.62 16.9538L298.12 13.6538H291.54V11.6938H298.32C299.12 11.6672 299.727 11.9872 300.14 12.6538C300.42 13.3738 300.307 14.0472 299.8 14.6738L297.2 18.1338ZM299.14 18.9138V17.2738H300.78V18.9138H299.14ZM301.56 18.9138V17.2738H303.2V18.9138H301.56ZM309.5 27.3738C308.767 27.3472 308.18 27.0538 307.74 26.4938C307.327 25.9472 307.12 25.3272 307.12 24.6338V20.5938C307.28 18.9272 308.193 18.0138 309.86 17.8538H309.92V14.2338H307.5V12.2938H309.92V10.8138H311.86V12.2938H314.42V14.2338H311.86V17.8538H313.72C315.373 18.0138 316.287 18.9272 316.46 20.5938V24.6338C316.447 26.1538 315.727 27.0672 314.3 27.3738H313.16V25.4138H314.24C314.413 25.1738 314.5 24.9138 314.5 24.6338V20.5938C314.447 20.1138 314.187 19.8538 313.72 19.8138H311.86V24.6338C311.86 25.3138 311.653 25.9338 311.24 26.4938C310.787 27.0538 310.207 27.3472 309.5 27.3738ZM309.08 20.5938V24.6338C309.067 24.9805 309.207 25.2405 309.5 25.4138C309.78 25.2538 309.92 24.9938 309.92 24.6338V19.8138H309.86C309.38 19.8538 309.12 20.1138 309.08 20.5938ZM317.98 17.4538L316.06 17.8538L315.24 13.8738L317.16 13.4738L317.98 17.4538ZM326.64 16.2138V17.6138H329.36V16.2138H326.64ZM326.64 14.4138H329.36V13.0738H326.64V14.4138ZM321.22 17.6538C322.313 17.0938 323.347 16.4738 324.32 15.7938L324.64 17.3338V13.4138L323.78 15.0938C323.007 14.1605 322.187 13.2472 321.32 12.3538L322.44 10.5938C323.347 11.4872 324.08 12.3738 324.64 13.2538V11.0738H326.68C326.72 10.8472 326.8 10.3205 326.92 9.49383L329.02 9.65383C328.94 10.0938 328.86 10.5672 328.78 11.0738H331.36V13.2138C332.013 12.4005 332.72 11.5272 333.48 10.5938L334.7 12.2938C334.007 13.2138 333.18 14.1272 332.22 15.0338L331.36 13.4738V17.1538L331.68 15.7738C332.853 16.3472 333.887 16.9738 334.78 17.6538L334 19.7538C333.093 19.0872 332.213 18.4872 331.36 17.9538V19.4738H329.06V20.4338H334.24V22.6338H329.98C331.1 23.7805 332.693 24.7872 334.76 25.6538L334 27.7938C331.893 26.7672 330.247 25.5805 329.06 24.2338V28.0338H326.94V24.2338C325.753 25.5805 324.107 26.7672 322 27.7938L321.24 25.6538C323.307 24.8005 324.9 23.7938 326.02 22.6338H321.76V20.4338H326.94V19.4738H324.64V17.9338C323.88 18.6272 322.96 19.2405 321.88 19.7738L321.22 17.6538ZM346.92 21.4738L348.8 21.8938L348.12 24.9138C347.64 26.4338 346.607 27.2605 345.02 27.3938H342.92C341.24 27.2338 340.333 26.3205 340.2 24.6538V10.8338H342.14V24.6538C342.167 25.1338 342.427 25.3938 342.92 25.4338H345.02C345.607 25.3538 346.007 25.0338 346.22 24.4738L346.92 21.4738ZM361.52 24.7738C361.813 23.7472 361.987 22.7005 362.04 21.6338V19.8738H359.86L359.68 24.6138C359.653 25.2938 359.427 25.9072 359 26.4538C358.533 26.9872 357.94 27.2738 357.22 27.3138C356.5 27.2738 355.913 26.9805 355.46 26.4338C355.047 25.8738 354.84 25.2538 354.84 24.5738V20.6538C355 18.9738 355.913 18.0605 357.58 17.9138H357.98L358.14 13.6138C358.14 13.4005 358.073 13.2272 357.94 13.0938C357.793 12.9338 357.627 12.8605 357.44 12.8738H355.32V10.9138H357.44C358.187 10.9138 358.827 11.1872 359.36 11.7338C359.867 12.2672 360.113 12.9205 360.1 13.6938L359.94 17.9138H362.04V12.4738H363.98V17.9138H365.32V19.8738H363.98V21.6338C363.94 22.9005 363.74 24.1472 363.38 25.3738L362.8 27.2138L360.94 26.5938L361.52 24.7738ZM357.74 24.5338L357.92 19.8738H357.58C357.1 19.9005 356.84 20.1605 356.8 20.6538V24.5738C356.787 24.9205 356.927 25.1805 357.22 25.3538C357.567 25.1938 357.74 24.9205 357.74 24.5338ZM377.6 27.6538L372.98 20.7938C372.58 20.1805 372.387 19.5138 372.4 18.7938C372.4 18.0605 372.613 17.3938 373.04 16.7938L377.42 10.6538L379 11.7738L374.62 17.9338C374.3 18.5205 374.293 19.1138 374.6 19.7138L379.22 26.5738L377.6 27.6538ZM397.02 17.6538C397.313 18.2272 397.307 18.8005 397 19.3738L396.34 20.5938L394.62 19.6538L395.16 18.6738C395.12 18.6738 395.08 18.6738 395.04 18.6738H391.72V16.7138H395.04C395.867 16.6872 396.527 17.0005 397.02 17.6538ZM390.4 23.3538H392.36V24.8938C392.48 25.2672 392.74 25.4472 393.14 25.4338H397.02V27.3938H393.14C391.527 27.3005 390.613 26.4672 390.4 24.8938V23.3538ZM389.56 14.3538V19.0938C389.533 20.3338 389.407 21.5605 389.18 22.7738L388.24 27.2338L386.34 26.8338L387.28 22.3938C387.48 21.3005 387.587 20.2005 387.6 19.0938V14.3538H386.4V12.4138H387.6V10.8538H389.56V12.4138H393.1V14.3538H389.56ZM394.16 12.3538V10.7138H395.8V12.3538H394.16ZM396.58 12.3538V10.7138H398.24V12.3538H396.58ZM408.64 10.6338L409.1 12.7938H413.34V14.7538H409.48L410.58 20.2738C410.78 21.0872 410.633 21.8405 410.14 22.5338C409.807 22.9338 409.373 23.1472 408.84 23.1738H407.68V21.2138H408.66C408.7 21.0272 408.7 20.8472 408.66 20.6738L407.5 14.7538H403.22V12.7938H407.1L406.74 11.0138L408.64 10.6338ZM402.42 22.0738H404.36V24.6938C404.4 25.1738 404.66 25.4338 405.14 25.4738H408.14V27.4138H405.14C403.473 27.2538 402.567 26.3472 402.42 24.6938V22.0738ZM420.92 27.4138C419.36 27.1872 418.54 26.2805 418.46 24.6938V12.2738H420.4V24.6938C420.387 25.0805 420.56 25.3405 420.92 25.4738C421.413 25.3272 421.747 25.0005 421.92 24.4938L422.7 21.6938L424.56 22.2138L423.78 25.0138C423.58 25.6672 423.233 26.2205 422.74 26.6738C422.207 27.1405 421.6 27.3872 420.92 27.4138ZM427.66 14.2938L429.06 17.8538C429.487 19.0672 429.727 20.3138 429.78 21.5938V25.5138H427.82V21.5938C427.767 20.5538 427.573 19.5472 427.24 18.5738L425.84 14.9938L427.66 14.2938Z" fill="black"/>
<path d="M268.152 28.1738V11.0858H271.824C272.496 11.0858 273.088 11.1738 273.6 11.3498C274.112 11.5258 274.576 11.8378 274.992 12.2858C275.408 12.7338 275.696 13.2618 275.856 13.8698C276.016 14.4618 276.096 15.2698 276.096 16.2938C276.096 17.0618 276.048 17.7098 275.952 18.2378C275.872 18.7658 275.688 19.2618 275.4 19.7258C275.064 20.2858 274.616 20.7258 274.056 21.0458C273.496 21.3498 272.76 21.5018 271.848 21.5018H270.6V28.1738H268.152ZM270.6 13.3898V19.1978H271.776C272.272 19.1978 272.656 19.1258 272.928 18.9818C273.2 18.8378 273.4 18.6378 273.528 18.3818C273.656 18.1418 273.728 17.8458 273.744 17.4938C273.776 17.1418 273.792 16.7498 273.792 16.3178C273.792 15.9178 273.784 15.5418 273.768 15.1898C273.752 14.8218 273.68 14.5018 273.552 14.2298C273.424 13.9578 273.232 13.7498 272.976 13.6058C272.72 13.4618 272.352 13.3898 271.872 13.3898H270.6ZM286.901 23.3018V24.3578C286.901 24.8858 286.797 25.3898 286.589 25.8698C286.397 26.3338 286.125 26.7498 285.773 27.1178C285.421 27.4858 285.005 27.7818 284.525 28.0058C284.061 28.2138 283.557 28.3178 283.013 28.3178C282.549 28.3178 282.077 28.2538 281.597 28.1258C281.117 27.9978 280.685 27.7738 280.301 27.4538C279.917 27.1338 279.597 26.7258 279.341 26.2298C279.101 25.7178 278.981 25.0698 278.981 24.2858V14.8778C278.981 14.3178 279.077 13.7978 279.269 13.3178C279.461 12.8378 279.733 12.4218 280.085 12.0698C280.437 11.7178 280.853 11.4458 281.333 11.2538C281.829 11.0458 282.373 10.9418 282.965 10.9418C284.117 10.9418 285.053 11.3178 285.773 12.0698C286.125 12.4378 286.397 12.8778 286.589 13.3898C286.797 13.8858 286.901 14.4298 286.901 15.0218V15.9818H284.453V15.1658C284.453 14.6858 284.317 14.2698 284.045 13.9178C283.773 13.5658 283.405 13.3898 282.941 13.3898C282.333 13.3898 281.925 13.5818 281.717 13.9658C281.525 14.3338 281.429 14.8058 281.429 15.3818V24.1178C281.429 24.6138 281.533 25.0298 281.741 25.3658C281.965 25.7018 282.357 25.8698 282.917 25.8698C283.077 25.8698 283.245 25.8458 283.421 25.7978C283.613 25.7338 283.789 25.6378 283.949 25.5098C284.093 25.3818 284.213 25.2058 284.309 24.9818C284.405 24.7578 284.453 24.4778 284.453 24.1418V23.3018H286.901Z" fill="black"/>
<path d="M445.008 30.92V13.832H447.456V14.936C447.76 14.584 448.072 14.288 448.392 14.048C448.712 13.808 449.176 13.688 449.784 13.688C450.792 13.688 451.504 14.072 451.92 14.84C452.064 15.112 452.168 15.448 452.232 15.848C452.296 16.248 452.328 16.784 452.328 17.456V22.088C452.328 22.984 452.304 23.632 452.256 24.032C452.16 24.832 451.792 25.432 451.152 25.832C450.832 26.04 450.368 26.144 449.76 26.144C449.28 26.144 448.848 26.04 448.464 25.832C448.096 25.608 447.776 25.296 447.504 24.896H447.456V30.92H445.008ZM449.88 17.792C449.88 17.296 449.784 16.896 449.592 16.592C449.4 16.288 449.096 16.136 448.68 16.136C448.312 16.136 448.016 16.28 447.792 16.568C447.568 16.84 447.456 17.2 447.456 17.648V22.376C447.456 22.76 447.568 23.08 447.792 23.336C448.032 23.576 448.328 23.696 448.68 23.696C449.144 23.696 449.456 23.552 449.616 23.264C449.792 22.976 449.88 22.64 449.88 22.256V17.792ZM454.192 8.912H456.64V22.568C456.64 23.032 456.72 23.352 456.88 23.528C457.056 23.688 457.376 23.792 457.84 23.84V26.144C457.28 26.144 456.776 26.096 456.328 26C455.88 25.92 455.496 25.752 455.176 25.496C454.856 25.256 454.608 24.92 454.432 24.488C454.272 24.04 454.192 23.456 454.192 22.736V8.912ZM463.421 26V24.752H463.373C463.053 25.2 462.725 25.544 462.389 25.784C462.069 26.024 461.613 26.144 461.021 26.144C460.733 26.144 460.437 26.096 460.133 26C459.845 25.92 459.565 25.76 459.293 25.52C459.021 25.296 458.797 24.976 458.621 24.56C458.461 24.128 458.381 23.576 458.381 22.904C458.381 22.216 458.437 21.616 458.549 21.104C458.661 20.576 458.869 20.136 459.173 19.784C459.461 19.448 459.853 19.2 460.349 19.04C460.845 18.864 461.477 18.776 462.245 18.776C462.325 18.776 462.413 18.776 462.509 18.776C462.605 18.776 462.693 18.784 462.773 18.8C462.853 18.816 462.949 18.824 463.061 18.824C463.173 18.824 463.293 18.832 463.421 18.848V17.576C463.421 17.16 463.333 16.816 463.157 16.544C462.981 16.272 462.661 16.136 462.197 16.136C461.877 16.136 461.581 16.24 461.309 16.448C461.053 16.656 460.885 16.96 460.805 17.36H458.429C458.493 16.272 458.861 15.392 459.533 14.72C459.853 14.4 460.237 14.152 460.685 13.976C461.133 13.784 461.637 13.688 462.197 13.688C462.709 13.688 463.189 13.768 463.637 13.928C464.085 14.088 464.477 14.328 464.813 14.648C465.133 14.968 465.389 15.368 465.581 15.848C465.773 16.328 465.869 16.888 465.869 17.528V26H463.421ZM463.421 20.768C463.149 20.72 462.925 20.696 462.749 20.696C462.221 20.696 461.765 20.824 461.381 21.08C461.013 21.32 460.829 21.768 460.829 22.424C460.829 22.888 460.941 23.264 461.165 23.552C461.389 23.84 461.701 23.984 462.101 23.984C462.517 23.984 462.837 23.848 463.061 23.576C463.301 23.304 463.421 22.92 463.421 22.424V20.768ZM466.359 13.832H468.951L470.631 21.416H470.679L472.335 13.832H474.855L471.351 28.112C471.223 28.656 471.039 29.104 470.799 29.456C470.575 29.808 470.311 30.096 470.007 30.32C469.703 30.544 469.375 30.696 469.023 30.776C468.687 30.872 468.335 30.92 467.967 30.92H467.295V28.616H467.847C468.087 28.616 468.295 28.584 468.471 28.52C468.647 28.456 468.807 28.312 468.951 28.088C469.079 27.864 469.199 27.544 469.311 27.128C469.423 26.728 469.551 26.168 469.695 25.448L466.359 13.832ZM480.281 13.832V10.136H482.729V13.832H484.241V15.752H482.729V22.496C482.729 22.784 482.753 23.008 482.801 23.168C482.865 23.328 482.961 23.448 483.089 23.528C483.217 23.608 483.369 23.656 483.545 23.672C483.737 23.688 483.969 23.696 484.241 23.696V26H483.233C482.673 26 482.201 25.912 481.817 25.736C481.449 25.56 481.153 25.336 480.929 25.064C480.705 24.792 480.537 24.488 480.425 24.152C480.329 23.8 480.281 23.464 480.281 23.144V15.752H479.057V13.832H480.281ZM485.18 26V8.912H487.628V15.008H487.676C487.932 14.624 488.236 14.312 488.588 14.072C488.956 13.816 489.42 13.688 489.98 13.688C490.284 13.688 490.588 13.744 490.892 13.856C491.196 13.952 491.468 14.12 491.708 14.36C491.948 14.6 492.14 14.912 492.284 15.296C492.428 15.664 492.5 16.12 492.5 16.664V26H490.052V17.576C490.052 17.128 489.948 16.776 489.74 16.52C489.532 16.264 489.236 16.136 488.852 16.136C488.388 16.136 488.068 16.28 487.892 16.568C487.716 16.856 487.628 17.272 487.628 17.816V26H485.18ZM494.508 26V13.832H496.956V26H494.508ZM494.508 11.36V8.912H496.956V11.36H494.508ZM503.401 17.24C503.385 16.824 503.249 16.512 502.993 16.304C502.753 16.096 502.473 15.992 502.153 15.992C501.769 15.992 501.473 16.12 501.265 16.376C501.057 16.616 500.953 16.896 500.953 17.216C500.953 17.44 501.009 17.664 501.121 17.888C501.233 18.096 501.521 18.288 501.985 18.464L503.425 19.04C504.337 19.392 504.961 19.872 505.297 20.48C505.649 21.088 505.825 21.752 505.825 22.472C505.825 22.984 505.729 23.464 505.537 23.912C505.361 24.344 505.113 24.728 504.793 25.064C504.473 25.4 504.089 25.664 503.641 25.856C503.193 26.048 502.705 26.144 502.177 26.144C501.185 26.144 500.353 25.832 499.681 25.208C499.345 24.904 499.073 24.528 498.865 24.08C498.657 23.616 498.545 23.08 498.529 22.472H500.833C500.881 22.808 500.993 23.12 501.169 23.408C501.361 23.696 501.689 23.84 502.153 23.84C502.505 23.84 502.817 23.728 503.089 23.504C503.377 23.264 503.521 22.936 503.521 22.52C503.521 22.184 503.433 21.896 503.257 21.656C503.081 21.416 502.761 21.208 502.297 21.032L501.121 20.6C500.353 20.312 499.745 19.888 499.297 19.328C498.865 18.752 498.649 18.056 498.649 17.24C498.649 16.728 498.745 16.256 498.937 15.824C499.129 15.376 499.393 14.992 499.729 14.672C500.049 14.352 500.425 14.112 500.857 13.952C501.289 13.776 501.753 13.688 502.249 13.688C502.745 13.688 503.201 13.776 503.617 13.952C504.049 14.128 504.417 14.376 504.721 14.696C505.025 15.016 505.265 15.4 505.441 15.848C505.617 16.28 505.705 16.744 505.705 17.24H503.401ZM514.3 27.416C514.316 27.704 514.428 27.976 514.636 28.232C514.86 28.488 515.18 28.616 515.596 28.616C515.996 28.616 516.284 28.488 516.46 28.232C516.636 27.992 516.724 27.68 516.724 27.296V24.896H516.676C516.404 25.296 516.076 25.608 515.692 25.832C515.324 26.04 514.892 26.144 514.396 26.144C513.372 26.144 512.66 25.76 512.26 24.992C512.116 24.72 512.012 24.384 511.948 23.984C511.884 23.584 511.852 23.048 511.852 22.376V17.744C511.852 16.864 511.876 16.216 511.924 15.8C512.02 15 512.396 14.4 513.052 14C513.356 13.792 513.812 13.688 514.42 13.688C514.724 13.688 514.98 13.72 515.188 13.784C515.412 13.848 515.612 13.936 515.788 14.048C515.964 14.16 516.124 14.296 516.268 14.456C516.412 14.6 516.564 14.76 516.724 14.936V13.832H519.172V27.488C519.172 27.904 519.1 28.32 518.956 28.736C518.828 29.168 518.612 29.552 518.308 29.888C518.004 30.24 517.62 30.52 517.156 30.728C516.692 30.952 516.14 31.064 515.5 31.064C515.132 31.064 514.748 31 514.348 30.872C513.948 30.76 513.58 30.56 513.244 30.272C512.892 30 512.588 29.632 512.332 29.168C512.092 28.72 511.932 28.136 511.852 27.416H514.3ZM514.3 22.256C514.3 22.64 514.38 22.976 514.54 23.264C514.716 23.552 515.036 23.696 515.5 23.696C515.852 23.696 516.14 23.576 516.364 23.336C516.604 23.08 516.724 22.76 516.724 22.376V17.648C516.724 17.2 516.612 16.84 516.388 16.568C516.164 16.28 515.868 16.136 515.5 16.136C515.084 16.136 514.78 16.288 514.588 16.592C514.396 16.896 514.3 17.296 514.3 17.792V22.256ZM525.812 26V24.752H525.764C525.444 25.2 525.116 25.544 524.78 25.784C524.46 26.024 524.004 26.144 523.412 26.144C523.124 26.144 522.828 26.096 522.524 26C522.236 25.92 521.956 25.76 521.684 25.52C521.412 25.296 521.188 24.976 521.012 24.56C520.852 24.128 520.772 23.576 520.772 22.904C520.772 22.216 520.828 21.616 520.94 21.104C521.052 20.576 521.26 20.136 521.564 19.784C521.852 19.448 522.244 19.2 522.74 19.04C523.236 18.864 523.868 18.776 524.636 18.776C524.716 18.776 524.804 18.776 524.9 18.776C524.996 18.776 525.084 18.784 525.164 18.8C525.244 18.816 525.34 18.824 525.452 18.824C525.564 18.824 525.684 18.832 525.812 18.848V17.576C525.812 17.16 525.724 16.816 525.548 16.544C525.372 16.272 525.052 16.136 524.588 16.136C524.268 16.136 523.972 16.24 523.7 16.448C523.444 16.656 523.276 16.96 523.196 17.36H520.82C520.884 16.272 521.252 15.392 521.924 14.72C522.244 14.4 522.628 14.152 523.076 13.976C523.524 13.784 524.028 13.688 524.588 13.688C525.1 13.688 525.58 13.768 526.028 13.928C526.476 14.088 526.868 14.328 527.204 14.648C527.524 14.968 527.78 15.368 527.972 15.848C528.164 16.328 528.26 16.888 528.26 17.528V26H525.812ZM525.812 20.768C525.54 20.72 525.316 20.696 525.14 20.696C524.612 20.696 524.156 20.824 523.772 21.08C523.404 21.32 523.22 21.768 523.22 22.424C523.22 22.888 523.332 23.264 523.556 23.552C523.78 23.84 524.092 23.984 524.492 23.984C524.908 23.984 525.228 23.848 525.452 23.576C525.692 23.304 525.812 22.92 525.812 22.424V20.768ZM530.063 26V13.832H532.511V15.008H532.559C532.815 14.624 533.119 14.312 533.471 14.072C533.839 13.816 534.303 13.688 534.863 13.688C535.391 13.688 535.831 13.816 536.183 14.072C536.535 14.328 536.823 14.608 537.047 14.912C537.351 14.576 537.687 14.288 538.055 14.048C538.423 13.808 538.935 13.688 539.591 13.688C539.895 13.688 540.207 13.744 540.527 13.856C540.847 13.952 541.135 14.12 541.391 14.36C541.647 14.6 541.855 14.912 542.015 15.296C542.175 15.664 542.255 16.12 542.255 16.664V26H539.807V17.576C539.807 17.128 539.703 16.776 539.495 16.52C539.287 16.264 538.991 16.136 538.607 16.136C538.143 16.136 537.823 16.28 537.647 16.568C537.471 16.856 537.383 17.272 537.383 17.816V26H534.935V17.576C534.935 17.128 534.831 16.776 534.623 16.52C534.415 16.264 534.119 16.136 533.735 16.136C533.271 16.136 532.951 16.28 532.775 16.568C532.599 16.856 532.511 17.272 532.511 17.816V26H530.063ZM551.346 20.84H546.498V22.496C546.498 22.88 546.602 23.176 546.81 23.384C547.034 23.592 547.33 23.696 547.698 23.696C548.162 23.696 548.466 23.56 548.61 23.288C548.77 23.016 548.866 22.744 548.898 22.472H551.346C551.346 23.544 551.018 24.408 550.362 25.064C550.042 25.4 549.658 25.664 549.21 25.856C548.762 26.048 548.258 26.144 547.698 26.144C546.93 26.144 546.274 25.984 545.73 25.664C545.202 25.344 544.794 24.92 544.506 24.392C544.33 24.072 544.21 23.704 544.146 23.288C544.082 22.872 544.05 22.416 544.05 21.92V17.912C544.05 17.416 544.082 16.96 544.146 16.544C544.21 16.128 544.33 15.76 544.506 15.44C544.794 14.912 545.202 14.488 545.73 14.168C546.274 13.848 546.93 13.688 547.698 13.688C548.258 13.688 548.762 13.784 549.21 13.976C549.674 14.168 550.066 14.432 550.386 14.768C551.026 15.488 551.346 16.392 551.346 17.48V20.84ZM546.498 18.92H548.898V17.528C548.898 17.064 548.786 16.72 548.562 16.496C548.354 16.256 548.066 16.136 547.698 16.136C547.33 16.136 547.034 16.256 546.81 16.496C546.602 16.72 546.498 17.064 546.498 17.528V18.92ZM557.386 17.912C557.386 17.416 557.418 16.96 557.482 16.544C557.546 16.128 557.666 15.76 557.842 15.44C558.13 14.912 558.538 14.488 559.066 14.168C559.61 13.848 560.266 13.688 561.034 13.688C561.802 13.688 562.45 13.848 562.978 14.168C563.522 14.488 563.938 14.912 564.226 15.44C564.402 15.76 564.522 16.128 564.586 16.544C564.65 16.96 564.682 17.416 564.682 17.912V21.92C564.682 22.416 564.65 22.872 564.586 23.288C564.522 23.704 564.402 24.072 564.226 24.392C563.938 24.92 563.522 25.344 562.978 25.664C562.45 25.984 561.802 26.144 561.034 26.144C560.266 26.144 559.61 25.984 559.066 25.664C558.538 25.344 558.13 24.92 557.842 24.392C557.666 24.072 557.546 23.704 557.482 23.288C557.418 22.872 557.386 22.416 557.386 21.92V17.912ZM559.834 22.304C559.834 22.768 559.938 23.12 560.146 23.36C560.37 23.584 560.666 23.696 561.034 23.696C561.402 23.696 561.69 23.584 561.898 23.36C562.122 23.12 562.234 22.768 562.234 22.304V17.528C562.234 17.064 562.122 16.72 561.898 16.496C561.69 16.256 561.402 16.136 561.034 16.136C560.666 16.136 560.37 16.256 560.146 16.496C559.938 16.72 559.834 17.064 559.834 17.528V22.304ZM566.485 26V13.832H568.933V15.008H568.981C569.237 14.624 569.541 14.312 569.893 14.072C570.261 13.816 570.725 13.688 571.285 13.688C571.589 13.688 571.893 13.744 572.197 13.856C572.501 13.952 572.773 14.12 573.013 14.36C573.253 14.6 573.445 14.912 573.589 15.296C573.733 15.664 573.805 16.12 573.805 16.664V26H571.357V17.576C571.357 17.128 571.253 16.776 571.045 16.52C570.837 16.264 570.541 16.136 570.157 16.136C569.693 16.136 569.373 16.28 569.197 16.568C569.021 16.856 568.933 17.272 568.933 17.816V26H566.485ZM580.266 13.832V10.136H582.714V13.832H584.226V15.752H582.714V22.496C582.714 22.784 582.738 23.008 582.786 23.168C582.85 23.328 582.946 23.448 583.074 23.528C583.202 23.608 583.354 23.656 583.53 23.672C583.722 23.688 583.954 23.696 584.226 23.696V26H583.218C582.658 26 582.186 25.912 581.802 25.736C581.434 25.56 581.138 25.336 580.914 25.064C580.69 24.792 580.522 24.488 580.41 24.152C580.314 23.8 580.266 23.464 580.266 23.144V15.752H579.042V13.832H580.266ZM585.164 26V8.912H587.612V15.008H587.66C587.916 14.624 588.22 14.312 588.572 14.072C588.94 13.816 589.404 13.688 589.964 13.688C590.268 13.688 590.572 13.744 590.876 13.856C591.18 13.952 591.452 14.12 591.692 14.36C591.932 14.6 592.124 14.912 592.268 15.296C592.412 15.664 592.484 16.12 592.484 16.664V26H590.036V17.576C590.036 17.128 589.932 16.776 589.724 16.52C589.516 16.264 589.22 16.136 588.836 16.136C588.372 16.136 588.052 16.28 587.876 16.568C587.7 16.856 587.612 17.272 587.612 17.816V26H585.164ZM601.572 20.84H596.724V22.496C596.724 22.88 596.828 23.176 597.036 23.384C597.26 23.592 597.556 23.696 597.924 23.696C598.388 23.696 598.692 23.56 598.836 23.288C598.996 23.016 599.092 22.744 599.124 22.472H601.572C601.572 23.544 601.244 24.408 600.588 25.064C600.268 25.4 599.884 25.664 599.436 25.856C598.988 26.048 598.484 26.144 597.924 26.144C597.156 26.144 596.5 25.984 595.956 25.664C595.428 25.344 595.02 24.92 594.732 24.392C594.556 24.072 594.436 23.704 594.372 23.288C594.308 22.872 594.276 22.416 594.276 21.92V17.912C594.276 17.416 594.308 16.96 594.372 16.544C594.436 16.128 594.556 15.76 594.732 15.44C595.02 14.912 595.428 14.488 595.956 14.168C596.5 13.848 597.156 13.688 597.924 13.688C598.484 13.688 598.988 13.784 599.436 13.976C599.9 14.168 600.292 14.432 600.612 14.768C601.252 15.488 601.572 16.392 601.572 17.48V20.84ZM596.724 18.92H599.124V17.528C599.124 17.064 599.012 16.72 598.788 16.496C598.58 16.256 598.292 16.136 597.924 16.136C597.556 16.136 597.26 16.256 597.036 16.496C596.828 16.72 596.724 17.064 596.724 17.528V18.92ZM610.42 22.496C610.42 22.88 610.524 23.176 610.732 23.384C610.956 23.592 611.252 23.696 611.62 23.696C612.084 23.696 612.388 23.56 612.532 23.288C612.692 23.016 612.788 22.744 612.82 22.472H615.268C615.268 23.544 614.94 24.408 614.284 25.064C613.964 25.4 613.58 25.664 613.132 25.856C612.684 26.048 612.18 26.144 611.62 26.144C610.852 26.144 610.196 25.984 609.652 25.664C609.124 25.344 608.716 24.92 608.428 24.392C608.252 24.072 608.132 23.704 608.068 23.288C608.004 22.872 607.972 22.416 607.972 21.92V17.912C607.972 17.416 608.004 16.96 608.068 16.544C608.132 16.128 608.252 15.76 608.428 15.44C608.716 14.912 609.124 14.488 609.652 14.168C610.196 13.848 610.852 13.688 611.62 13.688C612.18 13.688 612.684 13.784 613.132 13.976C613.596 14.168 613.988 14.432 614.308 14.768C614.948 15.488 615.268 16.424 615.268 17.576H612.82C612.82 17.08 612.708 16.72 612.484 16.496C612.276 16.256 611.988 16.136 611.62 16.136C611.252 16.136 610.956 16.256 610.732 16.496C610.524 16.72 610.42 17.064 610.42 17.528V22.496ZM616.495 17.912C616.495 17.416 616.527 16.96 616.591 16.544C616.655 16.128 616.775 15.76 616.951 15.44C617.239 14.912 617.647 14.488 618.175 14.168C618.719 13.848 619.375 13.688 620.143 13.688C620.911 13.688 621.559 13.848 622.087 14.168C622.631 14.488 623.047 14.912 623.335 15.44C623.511 15.76 623.631 16.128 623.695 16.544C623.759 16.96 623.791 17.416 623.791 17.912V21.92C623.791 22.416 623.759 22.872 623.695 23.288C623.631 23.704 623.511 24.072 623.335 24.392C623.047 24.92 622.631 25.344 622.087 25.664C621.559 25.984 620.911 26.144 620.143 26.144C619.375 26.144 618.719 25.984 618.175 25.664C617.647 25.344 617.239 24.92 616.951 24.392C616.775 24.072 616.655 23.704 616.591 23.288C616.527 22.872 616.495 22.416 616.495 21.92V17.912ZM618.943 22.304C618.943 22.768 619.047 23.12 619.255 23.36C619.479 23.584 619.775 23.696 620.143 23.696C620.511 23.696 620.799 23.584 621.007 23.36C621.231 23.12 621.343 22.768 621.343 22.304V17.528C621.343 17.064 621.231 16.72 621.007 16.496C620.799 16.256 620.511 16.136 620.143 16.136C619.775 16.136 619.479 16.256 619.255 16.496C619.047 16.72 618.943 17.064 618.943 17.528V22.304ZM625.594 26V13.832H628.042V15.008H628.09C628.346 14.624 628.65 14.312 629.002 14.072C629.37 13.816 629.834 13.688 630.394 13.688C630.922 13.688 631.362 13.816 631.714 14.072C632.066 14.328 632.354 14.608 632.578 14.912C632.882 14.576 633.218 14.288 633.586 14.048C633.954 13.808 634.466 13.688 635.122 13.688C635.426 13.688 635.738 13.744 636.058 13.856C636.378 13.952 636.666 14.12 636.922 14.36C637.178 14.6 637.386 14.912 637.546 15.296C637.706 15.664 637.786 16.12 637.786 16.664V26H635.338V17.576C635.338 17.128 635.234 16.776 635.026 16.52C634.818 16.264 634.522 16.136 634.138 16.136C633.674 16.136 633.354 16.28 633.178 16.568C633.002 16.856 632.914 17.272 632.914 17.816V26H630.466V17.576C630.466 17.128 630.362 16.776 630.154 16.52C629.946 16.264 629.65 16.136 629.266 16.136C628.802 16.136 628.482 16.28 628.306 16.568C628.13 16.856 628.042 17.272 628.042 17.816V26H625.594ZM639.797 30.92V13.832H642.245V14.936C642.549 14.584 642.861 14.288 643.181 14.048C643.501 13.808 643.965 13.688 644.573 13.688C645.581 13.688 646.293 14.072 646.709 14.84C646.853 15.112 646.957 15.448 647.021 15.848C647.085 16.248 647.117 16.784 647.117 17.456V22.088C647.117 22.984 647.093 23.632 647.045 24.032C646.949 24.832 646.581 25.432 645.941 25.832C645.621 26.04 645.157 26.144 644.549 26.144C644.069 26.144 643.637 26.04 643.253 25.832C642.885 25.608 642.565 25.296 642.293 24.896H642.245V30.92H639.797ZM644.669 17.792C644.669 17.296 644.573 16.896 644.381 16.592C644.189 16.288 643.885 16.136 643.469 16.136C643.101 16.136 642.805 16.28 642.581 16.568C642.357 16.84 642.245 17.2 642.245 17.648V22.376C642.245 22.76 642.357 23.08 642.581 23.336C642.821 23.576 643.117 23.696 643.469 23.696C643.933 23.696 644.245 23.552 644.405 23.264C644.581 22.976 644.669 22.64 644.669 22.256V17.792ZM656.445 13.832V26H653.997V24.824H653.949C653.693 25.208 653.381 25.528 653.013 25.784C652.661 26.024 652.205 26.144 651.645 26.144C651.341 26.144 651.037 26.096 650.733 26C650.429 25.888 650.157 25.712 649.917 25.472C649.677 25.232 649.485 24.928 649.341 24.56C649.197 24.176 649.125 23.712 649.125 23.168V13.832H651.573V22.256C651.573 22.704 651.677 23.056 651.885 23.312C652.093 23.568 652.389 23.696 652.773 23.696C653.237 23.696 653.557 23.552 653.733 23.264C653.909 22.976 653.997 22.56 653.997 22.016V13.832H656.445ZM658.453 13.832V10.136H660.901V13.832H662.413V15.752H660.901V22.496C660.901 22.784 660.925 23.008 660.973 23.168C661.037 23.328 661.133 23.448 661.261 23.528C661.389 23.608 661.541 23.656 661.717 23.672C661.909 23.688 662.141 23.696 662.413 23.696V26H661.405C660.845 26 660.373 25.912 659.989 25.736C659.621 25.56 659.325 25.336 659.101 25.064C658.877 24.792 658.709 24.488 658.597 24.152C658.501 23.8 658.453 23.464 658.453 23.144V15.752H657.229V13.832H658.453ZM670.432 20.84H665.584V22.496C665.584 22.88 665.688 23.176 665.896 23.384C666.12 23.592 666.416 23.696 666.784 23.696C667.248 23.696 667.552 23.56 667.696 23.288C667.856 23.016 667.952 22.744 667.984 22.472H670.432C670.432 23.544 670.104 24.408 669.448 25.064C669.128 25.4 668.744 25.664 668.296 25.856C667.848 26.048 667.344 26.144 666.784 26.144C666.016 26.144 665.36 25.984 664.816 25.664C664.288 25.344 663.88 24.92 663.592 24.392C663.416 24.072 663.296 23.704 663.232 23.288C663.168 22.872 663.136 22.416 663.136 21.92V17.912C663.136 17.416 663.168 16.96 663.232 16.544C663.296 16.128 663.416 15.76 663.592 15.44C663.88 14.912 664.288 14.488 664.816 14.168C665.36 13.848 666.016 13.688 666.784 13.688C667.344 13.688 667.848 13.784 668.296 13.976C668.76 14.168 669.152 14.432 669.472 14.768C670.112 15.488 670.432 16.392 670.432 17.48V20.84ZM665.584 18.92H667.984V17.528C667.984 17.064 667.872 16.72 667.648 16.496C667.44 16.256 667.152 16.136 666.784 16.136C666.416 16.136 666.12 16.256 665.896 16.496C665.688 16.72 665.584 17.064 665.584 17.528V18.92ZM672.235 26V13.832H674.683V15.128C675.179 14.68 675.667 14.328 676.147 14.072C676.627 13.816 677.219 13.688 677.923 13.688V16.28C677.683 16.184 677.435 16.136 677.179 16.136C676.923 16.136 676.643 16.184 676.339 16.28C676.051 16.36 675.787 16.504 675.547 16.712C675.291 16.92 675.083 17.192 674.923 17.528C674.763 17.864 674.683 18.28 674.683 18.776V26H672.235Z" fill="black"/>
<path d="M19.008 30.92V13.832H21.456V14.936C21.76 14.584 22.072 14.288 22.392 14.048C22.712 13.808 23.176 13.688 23.784 13.688C24.792 13.688 25.504 14.072 25.92 14.84C26.064 15.112 26.168 15.448 26.232 15.848C26.296 16.248 26.328 16.784 26.328 17.456V22.088C26.328 22.984 26.304 23.632 26.256 24.032C26.16 24.832 25.792 25.432 25.152 25.832C24.832 26.04 24.368 26.144 23.76 26.144C23.28 26.144 22.848 26.04 22.464 25.832C22.096 25.608 21.776 25.296 21.504 24.896H21.456V30.92H19.008ZM23.88 17.792C23.88 17.296 23.784 16.896 23.592 16.592C23.4 16.288 23.096 16.136 22.68 16.136C22.312 16.136 22.016 16.28 21.792 16.568C21.568 16.84 21.456 17.2 21.456 17.648V22.376C21.456 22.76 21.568 23.08 21.792 23.336C22.032 23.576 22.328 23.696 22.68 23.696C23.144 23.696 23.456 23.552 23.616 23.264C23.792 22.976 23.88 22.64 23.88 22.256V17.792ZM28.1921 8.912H30.6401V22.568C30.6401 23.032 30.7201 23.352 30.8801 23.528C31.0561 23.688 31.3761 23.792 31.8401 23.84V26.144C31.2801 26.144 30.7761 26.096 30.3281 26C29.8801 25.92 29.4961 25.752 29.1761 25.496C28.8561 25.256 28.6081 24.92 28.4321 24.488C28.2721 24.04 28.1921 23.456 28.1921 22.736V8.912ZM37.4213 26V24.752H37.3733C37.0533 25.2 36.7253 25.544 36.3893 25.784C36.0693 26.024 35.6133 26.144 35.0213 26.144C34.7333 26.144 34.4373 26.096 34.1333 26C33.8453 25.92 33.5653 25.76 33.2933 25.52C33.0213 25.296 32.7973 24.976 32.6213 24.56C32.4613 24.128 32.3813 23.576 32.3813 22.904C32.3813 22.216 32.4373 21.616 32.5493 21.104C32.6613 20.576 32.8693 20.136 33.1733 19.784C33.4613 19.448 33.8533 19.2 34.3493 19.04C34.8453 18.864 35.4773 18.776 36.2453 18.776C36.3253 18.776 36.4133 18.776 36.5093 18.776C36.6053 18.776 36.6933 18.784 36.7733 18.8C36.8533 18.816 36.9493 18.824 37.0613 18.824C37.1733 18.824 37.2933 18.832 37.4213 18.848V17.576C37.4213 17.16 37.3333 16.816 37.1573 16.544C36.9813 16.272 36.6613 16.136 36.1973 16.136C35.8773 16.136 35.5813 16.24 35.3092 16.448C35.0533 16.656 34.8853 16.96 34.8053 17.36H32.4293C32.4933 16.272 32.8613 15.392 33.5333 14.72C33.8533 14.4 34.2373 14.152 34.6853 13.976C35.1333 13.784 35.6373 13.688 36.1973 13.688C36.7093 13.688 37.1893 13.768 37.6373 13.928C38.0853 14.088 38.4773 14.328 38.8133 14.648C39.1333 14.968 39.3893 15.368 39.5813 15.848C39.7733 16.328 39.8693 16.888 39.8693 17.528V26H37.4213ZM37.4213 20.768C37.1493 20.72 36.9253 20.696 36.7493 20.696C36.2213 20.696 35.7653 20.824 35.3813 21.08C35.0133 21.32 34.8293 21.768 34.8293 22.424C34.8293 22.888 34.9413 23.264 35.1653 23.552C35.3893 23.84 35.7013 23.984 36.1013 23.984C36.5173 23.984 36.8373 23.848 37.0613 23.576C37.3013 23.304 37.4213 22.92 37.4213 22.424V20.768ZM40.3588 13.832H42.9508L44.6308 21.416H44.6788L46.3348 13.832H48.8548L45.3508 28.112C45.2228 28.656 45.0388 29.104 44.7988 29.456C44.5748 29.808 44.3108 30.096 44.0068 30.32C43.7028 30.544 43.3748 30.696 43.0228 30.776C42.6868 30.872 42.3348 30.92 41.9668 30.92H41.2948V28.616H41.8468C42.0868 28.616 42.2948 28.584 42.4708 28.52C42.6468 28.456 42.8068 28.312 42.9508 28.088C43.0788 27.864 43.1988 27.544 43.3108 27.128C43.4228 26.728 43.5508 26.168 43.6948 25.448L40.3588 13.832ZM54.2814 13.832V10.136H56.7294V13.832H58.2414V15.752H56.7294V22.496C56.7294 22.784 56.7534 23.008 56.8014 23.168C56.8654 23.328 56.9614 23.448 57.0894 23.528C57.2174 23.608 57.3694 23.656 57.5454 23.672C57.7374 23.688 57.9694 23.696 58.2414 23.696V26H57.2334C56.6734 26 56.2014 25.912 55.8174 25.736C55.4494 25.56 55.1534 25.336 54.9294 25.064C54.7054 24.792 54.5374 24.488 54.4254 24.152C54.3294 23.8 54.2814 23.464 54.2814 23.144V15.752H53.0574V13.832H54.2814ZM59.1799 26V8.912H61.6279V15.008H61.6759C61.9319 14.624 62.2359 14.312 62.5879 14.072C62.9559 13.816 63.4199 13.688 63.9799 13.688C64.2839 13.688 64.5879 13.744 64.8919 13.856C65.1959 13.952 65.4679 14.12 65.7079 14.36C65.9479 14.6 66.1399 14.912 66.2839 15.296C66.4279 15.664 66.4999 16.12 66.4999 16.664V26H64.0519V17.576C64.0519 17.128 63.9479 16.776 63.7399 16.52C63.5319 16.264 63.2359 16.136 62.8519 16.136C62.3879 16.136 62.0679 16.28 61.8919 16.568C61.7159 16.856 61.6279 17.272 61.6279 17.816V26H59.1799ZM68.508 26V13.832H70.956V26H68.508ZM68.508 11.36V8.912H70.956V11.36H68.508ZM77.4011 17.24C77.3851 16.824 77.2491 16.512 76.9931 16.304C76.7531 16.096 76.4731 15.992 76.1531 15.992C75.7691 15.992 75.4731 16.12 75.2651 16.376C75.0571 16.616 74.9531 16.896 74.9531 17.216C74.9531 17.44 75.0091 17.664 75.1211 17.888C75.2331 18.096 75.5211 18.288 75.9851 18.464L77.4251 19.04C78.3371 19.392 78.9611 19.872 79.2971 20.48C79.6491 21.088 79.8251 21.752 79.8251 22.472C79.8251 22.984 79.7291 23.464 79.5371 23.912C79.3611 24.344 79.1131 24.728 78.7931 25.064C78.4731 25.4 78.0891 25.664 77.6411 25.856C77.1931 26.048 76.7051 26.144 76.1771 26.144C75.1851 26.144 74.3531 25.832 73.6811 25.208C73.3451 24.904 73.0731 24.528 72.8651 24.08C72.6571 23.616 72.5451 23.08 72.5291 22.472H74.8331C74.8811 22.808 74.9931 23.12 75.1691 23.408C75.3611 23.696 75.6891 23.84 76.1531 23.84C76.5051 23.84 76.8171 23.728 77.0891 23.504C77.3771 23.264 77.5211 22.936 77.5211 22.52C77.5211 22.184 77.4331 21.896 77.2571 21.656C77.0811 21.416 76.7611 21.208 76.2971 21.032L75.1211 20.6C74.3531 20.312 73.7451 19.888 73.2971 19.328C72.8651 18.752 72.6491 18.056 72.6491 17.24C72.6491 16.728 72.7451 16.256 72.9371 15.824C73.1291 15.376 73.3931 14.992 73.7291 14.672C74.0491 14.352 74.4251 14.112 74.8571 13.952C75.2891 13.776 75.7531 13.688 76.2491 13.688C76.7451 13.688 77.2011 13.776 77.6171 13.952C78.0491 14.128 78.4171 14.376 78.7211 14.696C79.0251 15.016 79.2651 15.4 79.4411 15.848C79.6171 16.28 79.7051 16.744 79.7051 17.24H77.4011ZM88.2998 27.416C88.3158 27.704 88.4278 27.976 88.6358 28.232C88.8598 28.488 89.1798 28.616 89.5958 28.616C89.9958 28.616 90.2838 28.488 90.4598 28.232C90.6358 27.992 90.7238 27.68 90.7238 27.296V24.896H90.6758C90.4038 25.296 90.0758 25.608 89.6918 25.832C89.3238 26.04 88.8918 26.144 88.3958 26.144C87.3718 26.144 86.6598 25.76 86.2598 24.992C86.1158 24.72 86.0118 24.384 85.9478 23.984C85.8838 23.584 85.8518 23.048 85.8518 22.376V17.744C85.8518 16.864 85.8758 16.216 85.9238 15.8C86.0198 15 86.3958 14.4 87.0518 14C87.3558 13.792 87.8118 13.688 88.4198 13.688C88.7238 13.688 88.9798 13.72 89.1878 13.784C89.4118 13.848 89.6118 13.936 89.7878 14.048C89.9638 14.16 90.1238 14.296 90.2678 14.456C90.4118 14.6 90.5638 14.76 90.7238 14.936V13.832H93.1718V27.488C93.1718 27.904 93.0998 28.32 92.9558 28.736C92.8278 29.168 92.6118 29.552 92.3078 29.888C92.0038 30.24 91.6198 30.52 91.1558 30.728C90.6918 30.952 90.1398 31.064 89.4998 31.064C89.1318 31.064 88.7478 31 88.3478 30.872C87.9478 30.76 87.5798 30.56 87.2438 30.272C86.8918 30 86.5878 29.632 86.3318 29.168C86.0918 28.72 85.9318 28.136 85.8518 27.416H88.2998ZM88.2998 22.256C88.2998 22.64 88.3798 22.976 88.5398 23.264C88.7158 23.552 89.0358 23.696 89.4998 23.696C89.8518 23.696 90.1398 23.576 90.3638 23.336C90.6038 23.08 90.7238 22.76 90.7238 22.376V17.648C90.7238 17.2 90.6118 16.84 90.3878 16.568C90.1638 16.28 89.8678 16.136 89.4998 16.136C89.0838 16.136 88.7798 16.288 88.5878 16.592C88.3958 16.896 88.2998 17.296 88.2998 17.792V22.256ZM99.8119 26V24.752H99.7639C99.4439 25.2 99.1159 25.544 98.7799 25.784C98.4599 26.024 98.0039 26.144 97.4119 26.144C97.1239 26.144 96.8279 26.096 96.5239 26C96.2359 25.92 95.9559 25.76 95.6839 25.52C95.4119 25.296 95.1879 24.976 95.0119 24.56C94.8519 24.128 94.7719 23.576 94.7719 22.904C94.7719 22.216 94.8279 21.616 94.9399 21.104C95.0519 20.576 95.2599 20.136 95.5639 19.784C95.8519 19.448 96.2439 19.2 96.7399 19.04C97.2359 18.864 97.8679 18.776 98.6359 18.776C98.7159 18.776 98.8039 18.776 98.8999 18.776C98.9959 18.776 99.0839 18.784 99.1639 18.8C99.2439 18.816 99.3399 18.824 99.4519 18.824C99.5639 18.824 99.6839 18.832 99.8119 18.848V17.576C99.8119 17.16 99.7239 16.816 99.5479 16.544C99.3719 16.272 99.0519 16.136 98.5879 16.136C98.2679 16.136 97.9719 16.24 97.6999 16.448C97.4439 16.656 97.2759 16.96 97.1959 17.36H94.8199C94.8839 16.272 95.2519 15.392 95.9239 14.72C96.2439 14.4 96.6279 14.152 97.0759 13.976C97.5239 13.784 98.0279 13.688 98.5879 13.688C99.0999 13.688 99.5799 13.768 100.028 13.928C100.476 14.088 100.868 14.328 101.204 14.648C101.524 14.968 101.78 15.368 101.972 15.848C102.164 16.328 102.26 16.888 102.26 17.528V26H99.8119ZM99.8119 20.768C99.5399 20.72 99.3159 20.696 99.1399 20.696C98.6119 20.696 98.1559 20.824 97.7719 21.08C97.4039 21.32 97.2199 21.768 97.2199 22.424C97.2199 22.888 97.3319 23.264 97.5559 23.552C97.7799 23.84 98.0919 23.984 98.4919 23.984C98.9079 23.984 99.2279 23.848 99.4519 23.576C99.6919 23.304 99.8119 22.92 99.8119 22.424V20.768ZM104.063 26V13.832H106.511V15.008H106.559C106.815 14.624 107.119 14.312 107.471 14.072C107.839 13.816 108.303 13.688 108.863 13.688C109.391 13.688 109.831 13.816 110.183 14.072C110.535 14.328 110.823 14.608 111.047 14.912C111.351 14.576 111.687 14.288 112.055 14.048C112.423 13.808 112.935 13.688 113.591 13.688C113.895 13.688 114.207 13.744 114.527 13.856C114.847 13.952 115.135 14.12 115.391 14.36C115.647 14.6 115.855 14.912 116.015 15.296C116.175 15.664 116.255 16.12 116.255 16.664V26H113.807V17.576C113.807 17.128 113.703 16.776 113.495 16.52C113.287 16.264 112.991 16.136 112.607 16.136C112.143 16.136 111.823 16.28 111.647 16.568C111.471 16.856 111.383 17.272 111.383 17.816V26H108.935V17.576C108.935 17.128 108.831 16.776 108.623 16.52C108.415 16.264 108.119 16.136 107.735 16.136C107.271 16.136 106.951 16.28 106.775 16.568C106.599 16.856 106.511 17.272 106.511 17.816V26H104.063ZM125.346 20.84H120.498V22.496C120.498 22.88 120.602 23.176 120.81 23.384C121.034 23.592 121.33 23.696 121.698 23.696C122.162 23.696 122.466 23.56 122.61 23.288C122.77 23.016 122.866 22.744 122.898 22.472H125.346C125.346 23.544 125.018 24.408 124.362 25.064C124.042 25.4 123.658 25.664 123.21 25.856C122.762 26.048 122.258 26.144 121.698 26.144C120.93 26.144 120.274 25.984 119.73 25.664C119.202 25.344 118.794 24.92 118.506 24.392C118.33 24.072 118.21 23.704 118.146 23.288C118.082 22.872 118.05 22.416 118.05 21.92V17.912C118.05 17.416 118.082 16.96 118.146 16.544C118.21 16.128 118.33 15.76 118.506 15.44C118.794 14.912 119.202 14.488 119.73 14.168C120.274 13.848 120.93 13.688 121.698 13.688C122.258 13.688 122.762 13.784 123.21 13.976C123.674 14.168 124.066 14.432 124.386 14.768C125.026 15.488 125.346 16.392 125.346 17.48V20.84ZM120.498 18.92H122.898V17.528C122.898 17.064 122.786 16.72 122.562 16.496C122.354 16.256 122.066 16.136 121.698 16.136C121.33 16.136 121.034 16.256 120.81 16.496C120.602 16.72 120.498 17.064 120.498 17.528V18.92ZM131.386 17.912C131.386 17.416 131.418 16.96 131.482 16.544C131.546 16.128 131.666 15.76 131.842 15.44C132.13 14.912 132.538 14.488 133.066 14.168C133.61 13.848 134.266 13.688 135.034 13.688C135.802 13.688 136.45 13.848 136.978 14.168C137.522 14.488 137.938 14.912 138.226 15.44C138.402 15.76 138.522 16.128 138.586 16.544C138.65 16.96 138.682 17.416 138.682 17.912V21.92C138.682 22.416 138.65 22.872 138.586 23.288C138.522 23.704 138.402 24.072 138.226 24.392C137.938 24.92 137.522 25.344 136.978 25.664C136.45 25.984 135.802 26.144 135.034 26.144C134.266 26.144 133.61 25.984 133.066 25.664C132.538 25.344 132.13 24.92 131.842 24.392C131.666 24.072 131.546 23.704 131.482 23.288C131.418 22.872 131.386 22.416 131.386 21.92V17.912ZM133.834 22.304C133.834 22.768 133.938 23.12 134.146 23.36C134.37 23.584 134.666 23.696 135.034 23.696C135.402 23.696 135.69 23.584 135.898 23.36C136.122 23.12 136.234 22.768 136.234 22.304V17.528C136.234 17.064 136.122 16.72 135.898 16.496C135.69 16.256 135.402 16.136 135.034 16.136C134.666 16.136 134.37 16.256 134.146 16.496C133.938 16.72 133.834 17.064 133.834 17.528V22.304ZM140.485 26V13.832H142.933V15.008H142.981C143.237 14.624 143.541 14.312 143.893 14.072C144.261 13.816 144.725 13.688 145.285 13.688C145.589 13.688 145.893 13.744 146.197 13.856C146.501 13.952 146.773 14.12 147.013 14.36C147.253 14.6 147.445 14.912 147.589 15.296C147.733 15.664 147.805 16.12 147.805 16.664V26H145.357V17.576C145.357 17.128 145.253 16.776 145.045 16.52C144.837 16.264 144.541 16.136 144.157 16.136C143.693 16.136 143.373 16.28 143.197 16.568C143.021 16.856 142.933 17.272 142.933 17.816V26H140.485ZM154.266 13.832V10.136H156.714V13.832H158.226V15.752H156.714V22.496C156.714 22.784 156.738 23.008 156.786 23.168C156.85 23.328 156.946 23.448 157.074 23.528C157.202 23.608 157.354 23.656 157.53 23.672C157.722 23.688 157.954 23.696 158.226 23.696V26H157.218C156.658 26 156.186 25.912 155.802 25.736C155.434 25.56 155.138 25.336 154.914 25.064C154.69 24.792 154.522 24.488 154.41 24.152C154.314 23.8 154.266 23.464 154.266 23.144V15.752H153.042V13.832H154.266ZM159.164 26V8.912H161.612V15.008H161.66C161.916 14.624 162.22 14.312 162.572 14.072C162.94 13.816 163.404 13.688 163.964 13.688C164.268 13.688 164.572 13.744 164.876 13.856C165.18 13.952 165.452 14.12 165.692 14.36C165.932 14.6 166.124 14.912 166.268 15.296C166.412 15.664 166.484 16.12 166.484 16.664V26H164.036V17.576C164.036 17.128 163.932 16.776 163.724 16.52C163.516 16.264 163.22 16.136 162.836 16.136C162.372 16.136 162.052 16.28 161.876 16.568C161.7 16.856 161.612 17.272 161.612 17.816V26H159.164ZM175.572 20.84H170.724V22.496C170.724 22.88 170.828 23.176 171.036 23.384C171.26 23.592 171.556 23.696 171.924 23.696C172.388 23.696 172.692 23.56 172.836 23.288C172.996 23.016 173.092 22.744 173.124 22.472H175.572C175.572 23.544 175.244 24.408 174.588 25.064C174.268 25.4 173.884 25.664 173.436 25.856C172.988 26.048 172.484 26.144 171.924 26.144C171.156 26.144 170.5 25.984 169.956 25.664C169.428 25.344 169.02 24.92 168.732 24.392C168.556 24.072 168.436 23.704 168.372 23.288C168.308 22.872 168.276 22.416 168.276 21.92V17.912C168.276 17.416 168.308 16.96 168.372 16.544C168.436 16.128 168.556 15.76 168.732 15.44C169.02 14.912 169.428 14.488 169.956 14.168C170.5 13.848 171.156 13.688 171.924 13.688C172.484 13.688 172.988 13.784 173.436 13.976C173.9 14.168 174.292 14.432 174.612 14.768C175.252 15.488 175.572 16.392 175.572 17.48V20.84ZM170.724 18.92H173.124V17.528C173.124 17.064 173.012 16.72 172.788 16.496C172.58 16.256 172.292 16.136 171.924 16.136C171.556 16.136 171.26 16.256 171.036 16.496C170.828 16.72 170.724 17.064 170.724 17.528V18.92ZM184.42 22.496C184.42 22.88 184.524 23.176 184.732 23.384C184.956 23.592 185.252 23.696 185.62 23.696C186.084 23.696 186.388 23.56 186.532 23.288C186.692 23.016 186.788 22.744 186.82 22.472H189.268C189.268 23.544 188.94 24.408 188.284 25.064C187.964 25.4 187.58 25.664 187.132 25.856C186.684 26.048 186.18 26.144 185.62 26.144C184.852 26.144 184.196 25.984 183.652 25.664C183.124 25.344 182.716 24.92 182.428 24.392C182.252 24.072 182.132 23.704 182.068 23.288C182.004 22.872 181.972 22.416 181.972 21.92V17.912C181.972 17.416 182.004 16.96 182.068 16.544C182.132 16.128 182.252 15.76 182.428 15.44C182.716 14.912 183.124 14.488 183.652 14.168C184.196 13.848 184.852 13.688 185.62 13.688C186.18 13.688 186.684 13.784 187.132 13.976C187.596 14.168 187.988 14.432 188.308 14.768C188.948 15.488 189.268 16.424 189.268 17.576H186.82C186.82 17.08 186.708 16.72 186.484 16.496C186.276 16.256 185.988 16.136 185.62 16.136C185.252 16.136 184.956 16.256 184.732 16.496C184.524 16.72 184.42 17.064 184.42 17.528V22.496ZM190.495 17.912C190.495 17.416 190.527 16.96 190.591 16.544C190.655 16.128 190.775 15.76 190.951 15.44C191.239 14.912 191.647 14.488 192.175 14.168C192.719 13.848 193.375 13.688 194.143 13.688C194.911 13.688 195.559 13.848 196.087 14.168C196.631 14.488 197.047 14.912 197.335 15.44C197.511 15.76 197.631 16.128 197.695 16.544C197.759 16.96 197.791 17.416 197.791 17.912V21.92C197.791 22.416 197.759 22.872 197.695 23.288C197.631 23.704 197.511 24.072 197.335 24.392C197.047 24.92 196.631 25.344 196.087 25.664C195.559 25.984 194.911 26.144 194.143 26.144C193.375 26.144 192.719 25.984 192.175 25.664C191.647 25.344 191.239 24.92 190.951 24.392C190.775 24.072 190.655 23.704 190.591 23.288C190.527 22.872 190.495 22.416 190.495 21.92V17.912ZM192.943 22.304C192.943 22.768 193.047 23.12 193.255 23.36C193.479 23.584 193.775 23.696 194.143 23.696C194.511 23.696 194.799 23.584 195.007 23.36C195.231 23.12 195.343 22.768 195.343 22.304V17.528C195.343 17.064 195.231 16.72 195.007 16.496C194.799 16.256 194.511 16.136 194.143 16.136C193.775 16.136 193.479 16.256 193.255 16.496C193.047 16.72 192.943 17.064 192.943 17.528V22.304ZM199.594 26V13.832H202.042V15.008H202.09C202.346 14.624 202.65 14.312 203.002 14.072C203.37 13.816 203.834 13.688 204.394 13.688C204.922 13.688 205.362 13.816 205.714 14.072C206.066 14.328 206.354 14.608 206.578 14.912C206.882 14.576 207.218 14.288 207.586 14.048C207.954 13.808 208.466 13.688 209.122 13.688C209.426 13.688 209.738 13.744 210.058 13.856C210.378 13.952 210.666 14.12 210.922 14.36C211.178 14.6 211.386 14.912 211.546 15.296C211.706 15.664 211.786 16.12 211.786 16.664V26H209.338V17.576C209.338 17.128 209.234 16.776 209.026 16.52C208.818 16.264 208.522 16.136 208.138 16.136C207.674 16.136 207.354 16.28 207.178 16.568C207.002 16.856 206.914 17.272 206.914 17.816V26H204.466V17.576C204.466 17.128 204.362 16.776 204.154 16.52C203.946 16.264 203.65 16.136 203.266 16.136C202.802 16.136 202.482 16.28 202.306 16.568C202.13 16.856 202.042 17.272 202.042 17.816V26H199.594ZM213.797 30.92V13.832H216.245V14.936C216.549 14.584 216.861 14.288 217.181 14.048C217.501 13.808 217.965 13.688 218.573 13.688C219.581 13.688 220.293 14.072 220.709 14.84C220.853 15.112 220.957 15.448 221.021 15.848C221.085 16.248 221.117 16.784 221.117 17.456V22.088C221.117 22.984 221.093 23.632 221.045 24.032C220.949 24.832 220.581 25.432 219.941 25.832C219.621 26.04 219.157 26.144 218.549 26.144C218.069 26.144 217.637 26.04 217.253 25.832C216.885 25.608 216.565 25.296 216.293 24.896H216.245V30.92H213.797ZM218.669 17.792C218.669 17.296 218.573 16.896 218.381 16.592C218.189 16.288 217.885 16.136 217.469 16.136C217.101 16.136 216.805 16.28 216.581 16.568C216.357 16.84 216.245 17.2 216.245 17.648V22.376C216.245 22.76 216.357 23.08 216.581 23.336C216.821 23.576 217.117 23.696 217.469 23.696C217.933 23.696 218.245 23.552 218.405 23.264C218.581 22.976 218.669 22.64 218.669 22.256V17.792ZM230.445 13.832V26H227.997V24.824H227.949C227.693 25.208 227.381 25.528 227.013 25.784C226.661 26.024 226.205 26.144 225.645 26.144C225.341 26.144 225.037 26.096 224.733 26C224.429 25.888 224.157 25.712 223.917 25.472C223.677 25.232 223.485 24.928 223.341 24.56C223.197 24.176 223.125 23.712 223.125 23.168V13.832H225.573V22.256C225.573 22.704 225.677 23.056 225.885 23.312C226.093 23.568 226.389 23.696 226.773 23.696C227.237 23.696 227.557 23.552 227.733 23.264C227.909 22.976 227.997 22.56 227.997 22.016V13.832H230.445ZM232.453 13.832V10.136H234.901V13.832H236.413V15.752H234.901V22.496C234.901 22.784 234.925 23.008 234.973 23.168C235.037 23.328 235.133 23.448 235.261 23.528C235.389 23.608 235.541 23.656 235.717 23.672C235.909 23.688 236.141 23.696 236.413 23.696V26H235.405C234.845 26 234.373 25.912 233.989 25.736C233.621 25.56 233.325 25.336 233.101 25.064C232.877 24.792 232.709 24.488 232.597 24.152C232.501 23.8 232.453 23.464 232.453 23.144V15.752H231.229V13.832H232.453ZM244.432 20.84H239.584V22.496C239.584 22.88 239.688 23.176 239.896 23.384C240.12 23.592 240.416 23.696 240.784 23.696C241.248 23.696 241.552 23.56 241.696 23.288C241.856 23.016 241.952 22.744 241.984 22.472H244.432C244.432 23.544 244.104 24.408 243.448 25.064C243.128 25.4 242.744 25.664 242.296 25.856C241.848 26.048 241.344 26.144 240.784 26.144C240.016 26.144 239.36 25.984 238.816 25.664C238.288 25.344 237.88 24.92 237.592 24.392C237.416 24.072 237.296 23.704 237.232 23.288C237.168 22.872 237.136 22.416 237.136 21.92V17.912C237.136 17.416 237.168 16.96 237.232 16.544C237.296 16.128 237.416 15.76 237.592 15.44C237.88 14.912 238.288 14.488 238.816 14.168C239.36 13.848 240.016 13.688 240.784 13.688C241.344 13.688 241.848 13.784 242.296 13.976C242.76 14.168 243.152 14.432 243.472 14.768C244.112 15.488 244.432 16.392 244.432 17.48V20.84ZM239.584 18.92H241.984V17.528C241.984 17.064 241.872 16.72 241.648 16.496C241.44 16.256 241.152 16.136 240.784 16.136C240.416 16.136 240.12 16.256 239.896 16.496C239.688 16.72 239.584 17.064 239.584 17.528V18.92ZM246.235 26V13.832H248.683V15.128C249.179 14.68 249.667 14.328 250.147 14.072C250.627 13.816 251.219 13.688 251.923 13.688V16.28C251.683 16.184 251.435 16.136 251.179 16.136C250.923 16.136 250.643 16.184 250.339 16.28C250.051 16.36 249.787 16.504 249.547 16.712C249.291 16.92 249.083 17.192 248.923 17.528C248.763 17.864 248.683 18.28 248.683 18.776V26H246.235Z" fill="black"/>
</svg>
