<svg width="701" height="41" viewBox="0 0 701 41" fill="none" xmlns="http://www.w3.org/2000/svg">
<rect x="0.154541" y="0.486328" width="700" height="40" fill="#A69929"/>
<rect x="0.310303" y="3.48633" width="700" height="3" fill="black"/>
<rect x="0.310303" y="34.4863" width="700" height="3" fill="black"/>
<path d="M175.355 19.9732C174.835 20.7598 174.548 21.6198 174.495 22.5532V24.2532C174.561 25.1332 174.861 25.9399 175.395 26.6732L176.815 28.2332L175.375 29.5332L173.935 27.9532C173.495 27.4199 173.161 26.8399 172.935 26.2132C172.668 25.5599 172.535 24.9065 172.535 24.2532V22.5532C172.548 21.8732 172.668 21.2132 172.895 20.5732C173.108 19.9332 173.401 19.3398 173.775 18.7932L176.275 15.4932H169.695V13.5332H176.475C177.275 13.5065 177.881 13.8265 178.295 14.4932C178.575 15.2132 178.461 15.8865 177.955 16.5132L175.355 19.9732ZM177.295 20.7532V19.1132H178.935V20.7532H177.295ZM179.715 20.7532V19.1132H181.355V20.7532H179.715ZM187.655 29.2132C186.921 29.1865 186.335 28.8932 185.895 28.3332C185.481 27.7865 185.275 27.1665 185.275 26.4732V22.4332C185.435 20.7665 186.348 19.8532 188.015 19.6932H188.075V16.0732H185.655V14.1332H188.075V12.6532H190.015V14.1332H192.575V16.0732H190.015V19.6932H191.875C193.528 19.8532 194.441 20.7665 194.615 22.4332V26.4732C194.601 27.9932 193.881 28.9065 192.455 29.2132H191.315V27.2532H192.395C192.568 27.0132 192.655 26.7532 192.655 26.4732V22.4332C192.601 21.9532 192.341 21.6932 191.875 21.6532H190.015V26.4732C190.015 27.1532 189.808 27.7732 189.395 28.3332C188.941 28.8932 188.361 29.1865 187.655 29.2132ZM187.235 22.4332V26.4732C187.221 26.8199 187.361 27.0799 187.655 27.2532C187.935 27.0932 188.075 26.8332 188.075 26.4732V21.6532H188.015C187.535 21.6932 187.275 21.9532 187.235 22.4332ZM196.135 19.2932L194.215 19.6932L193.395 15.7132L195.315 15.3132L196.135 19.2932ZM204.795 18.0532V19.4532H207.515V18.0532H204.795ZM204.795 16.2532H207.515V14.9132H204.795V16.2532ZM199.375 19.4932C200.468 18.9332 201.501 18.3132 202.475 17.6332L202.795 19.1732V15.2532L201.935 16.9332C201.161 15.9998 200.341 15.0865 199.475 14.1932L200.595 12.4332C201.501 13.3265 202.235 14.2132 202.795 15.0932V12.9132H204.835C204.875 12.6865 204.955 12.1598 205.075 11.3332L207.175 11.4932C207.095 11.9332 207.015 12.4065 206.935 12.9132H209.515V15.0532C210.168 14.2398 210.875 13.3665 211.635 12.4332L212.855 14.1332C212.161 15.0532 211.335 15.9665 210.375 16.8732L209.515 15.3132V18.9932L209.835 17.6132C211.008 18.1865 212.041 18.8132 212.935 19.4932L212.155 21.5932C211.248 20.9265 210.368 20.3265 209.515 19.7932V21.3132H207.215V22.2732H212.395V24.4732H208.135C209.255 25.6199 210.848 26.6265 212.915 27.4932L212.155 29.6332C210.048 28.6065 208.401 27.4199 207.215 26.0732V29.8732H205.095V26.0732C203.908 27.4199 202.261 28.6065 200.155 29.6332L199.395 27.4932C201.461 26.6399 203.055 25.6332 204.175 24.4732H199.915V22.2732H205.095V21.3132H202.795V19.7732C202.035 20.4665 201.115 21.0798 200.035 21.6132L199.375 19.4932ZM225.075 23.3132L226.955 23.7332L226.275 26.7532C225.795 28.2732 224.761 29.0999 223.175 29.2332H221.075C219.395 29.0732 218.488 28.1599 218.355 26.4932V12.6732H220.295V26.4932C220.321 26.9732 220.581 27.2332 221.075 27.2732H223.175C223.761 27.1932 224.161 26.8732 224.375 26.3132L225.075 23.3132ZM239.675 26.6132C239.968 25.5865 240.141 24.5399 240.195 23.4732V21.7132H238.015L237.835 26.4532C237.808 27.1332 237.581 27.7465 237.155 28.2932C236.688 28.8265 236.095 29.1132 235.375 29.1532C234.655 29.1132 234.068 28.8199 233.615 28.2732C233.201 27.7132 232.995 27.0932 232.995 26.4132V22.4932C233.155 20.8132 234.068 19.8999 235.735 19.7532H236.135L236.295 15.4532C236.295 15.2398 236.228 15.0665 236.095 14.9332C235.948 14.7732 235.781 14.6999 235.595 14.7132H233.475V12.7532H235.595C236.341 12.7532 236.981 13.0265 237.515 13.5732C238.021 14.1065 238.268 14.7598 238.255 15.5332L238.095 19.7532H240.195V14.3132H242.135V19.7532H243.475V21.7132H242.135V23.4732C242.095 24.7399 241.895 25.9865 241.535 27.2132L240.955 29.0532L239.095 28.4332L239.675 26.6132ZM235.895 26.3732L236.075 21.7132H235.735C235.255 21.7398 234.995 21.9998 234.955 22.4932V26.4132C234.941 26.7599 235.081 27.0199 235.375 27.1932C235.721 27.0332 235.895 26.7599 235.895 26.3732ZM255.755 29.4932L251.135 22.6332C250.735 22.0198 250.541 21.3532 250.555 20.6332C250.555 19.8998 250.768 19.2332 251.195 18.6332L255.575 12.4932L257.155 13.6132L252.775 19.7732C252.455 20.3598 252.448 20.9532 252.755 21.5532L257.375 28.4132L255.755 29.4932ZM275.175 19.4932C275.468 20.0665 275.461 20.6399 275.155 21.2132L274.495 22.4332L272.775 21.4932L273.315 20.5132C273.275 20.5132 273.235 20.5132 273.195 20.5132H269.875V18.5532H273.195C274.021 18.5265 274.681 18.8398 275.175 19.4932ZM268.555 25.1932H270.515V26.7332C270.635 27.1065 270.895 27.2865 271.295 27.2732H275.175V29.2332H271.295C269.681 29.1399 268.768 28.3065 268.555 26.7332V25.1932ZM267.715 16.1932V20.9332C267.688 22.1732 267.561 23.3999 267.335 24.6132L266.395 29.0732L264.495 28.6732L265.435 24.2332C265.635 23.1398 265.741 22.0398 265.755 20.9332V16.1932H264.555V14.2532H265.755V12.6932H267.715V14.2532H271.255V16.1932H267.715ZM272.315 14.1932V12.5532H273.955V14.1932H272.315ZM274.735 14.1932V12.5532H276.395V14.1932H274.735ZM286.795 12.4732L287.255 14.6332H291.495V16.5932H287.635L288.735 22.1132C288.935 22.9265 288.788 23.6799 288.295 24.3732C287.961 24.7732 287.528 24.9865 286.995 25.0132H285.835V23.0532H286.815C286.855 22.8665 286.855 22.6865 286.815 22.5132L285.655 16.5932H281.375V14.6332H285.255L284.895 12.8532L286.795 12.4732ZM280.575 23.9132H282.515V26.5332C282.555 27.0132 282.815 27.2732 283.295 27.3132H286.295V29.2532H283.295C281.628 29.0932 280.721 28.1865 280.575 26.5332V23.9132ZM299.075 29.2532C297.515 29.0265 296.695 28.1199 296.615 26.5332V14.1132H298.555V26.5332C298.541 26.9199 298.715 27.1799 299.075 27.3132C299.568 27.1665 299.901 26.8399 300.075 26.3332L300.855 23.5332L302.715 24.0532L301.935 26.8532C301.735 27.5065 301.388 28.0599 300.895 28.5132C300.361 28.9799 299.755 29.2265 299.075 29.2532ZM305.815 16.1332L307.215 19.6932C307.641 20.9065 307.881 22.1532 307.935 23.4332V27.3532H305.975V23.4332C305.921 22.3932 305.728 21.3865 305.395 20.4132L303.995 16.8332L305.815 16.1332Z" fill="black"/>
<path d="M146.307 30.0132V12.9252H149.979C150.651 12.9252 151.243 13.0132 151.755 13.1892C152.267 13.3652 152.731 13.6772 153.147 14.1252C153.563 14.5732 153.851 15.1012 154.011 15.7092C154.171 16.3012 154.251 17.1092 154.251 18.1332C154.251 18.9012 154.203 19.5492 154.107 20.0772C154.027 20.6052 153.843 21.1012 153.555 21.5652C153.219 22.1252 152.771 22.5652 152.211 22.8852C151.651 23.1892 150.915 23.3412 150.003 23.3412H148.755V30.0132H146.307ZM148.755 15.2292V21.0372H149.931C150.427 21.0372 150.811 20.9652 151.083 20.8212C151.355 20.6772 151.555 20.4772 151.683 20.2212C151.811 19.9812 151.883 19.6852 151.899 19.3332C151.931 18.9812 151.947 18.5892 151.947 18.1572C151.947 17.7572 151.939 17.3812 151.923 17.0292C151.907 16.6612 151.835 16.3412 151.707 16.0692C151.579 15.7972 151.387 15.5892 151.131 15.4452C150.875 15.3012 150.507 15.2292 150.027 15.2292H148.755ZM165.056 25.1412V26.1972C165.056 26.7252 164.952 27.2292 164.744 27.7092C164.552 28.1732 164.28 28.5892 163.928 28.9572C163.576 29.3252 163.16 29.6212 162.68 29.8452C162.216 30.0532 161.712 30.1572 161.168 30.1572C160.704 30.1572 160.232 30.0932 159.752 29.9652C159.272 29.8372 158.84 29.6132 158.456 29.2932C158.072 28.9732 157.752 28.5652 157.496 28.0692C157.256 27.5572 157.136 26.9092 157.136 26.1252V16.7172C157.136 16.1572 157.232 15.6372 157.424 15.1572C157.616 14.6772 157.888 14.2612 158.24 13.9092C158.592 13.5572 159.008 13.2852 159.488 13.0932C159.984 12.8852 160.528 12.7812 161.12 12.7812C162.272 12.7812 163.208 13.1572 163.928 13.9092C164.28 14.2772 164.552 14.7172 164.744 15.2292C164.952 15.7252 165.056 16.2692 165.056 16.8612V17.8212H162.608V17.0052C162.608 16.5252 162.472 16.1092 162.2 15.7572C161.928 15.4052 161.56 15.2292 161.096 15.2292C160.488 15.2292 160.08 15.4212 159.872 15.8052C159.68 16.1732 159.584 16.6452 159.584 17.2212V25.9572C159.584 26.4532 159.688 26.8692 159.896 27.2052C160.12 27.5412 160.512 27.7092 161.072 27.7092C161.232 27.7092 161.4 27.6852 161.576 27.6372C161.768 27.5732 161.944 27.4772 162.104 27.3492C162.248 27.2212 162.368 27.0452 162.464 26.8212C162.56 26.5972 162.608 26.3172 162.608 25.9812V25.1412H165.056Z" fill="black"/>
<path d="M323.163 32.4063V15.3183H325.611V16.4223C325.915 16.0703 326.227 15.7743 326.547 15.5343C326.867 15.2943 327.331 15.1743 327.939 15.1743C328.947 15.1743 329.659 15.5583 330.075 16.3263C330.219 16.5983 330.323 16.9343 330.387 17.3343C330.451 17.7343 330.483 18.2703 330.483 18.9423V23.5743C330.483 24.4703 330.459 25.1183 330.411 25.5183C330.315 26.3183 329.947 26.9183 329.307 27.3183C328.987 27.5263 328.523 27.6303 327.915 27.6303C327.435 27.6303 327.003 27.5263 326.619 27.3183C326.251 27.0943 325.931 26.7823 325.659 26.3823H325.611V32.4063H323.163ZM328.035 19.2783C328.035 18.7823 327.939 18.3823 327.747 18.0783C327.555 17.7743 327.251 17.6223 326.835 17.6223C326.467 17.6223 326.171 17.7663 325.947 18.0543C325.723 18.3263 325.611 18.6863 325.611 19.1343V23.8623C325.611 24.2463 325.723 24.5663 325.947 24.8223C326.187 25.0623 326.483 25.1823 326.835 25.1823C327.299 25.1823 327.611 25.0383 327.771 24.7503C327.947 24.4623 328.035 24.1263 328.035 23.7423V19.2783ZM332.347 10.3983H334.795V24.0543C334.795 24.5183 334.875 24.8383 335.035 25.0143C335.211 25.1743 335.531 25.2783 335.995 25.3263V27.6303C335.435 27.6303 334.931 27.5823 334.483 27.4863C334.035 27.4063 333.651 27.2383 333.331 26.9823C333.011 26.7423 332.763 26.4063 332.587 25.9743C332.427 25.5263 332.347 24.9423 332.347 24.2223V10.3983ZM341.576 27.4863V26.2383H341.528C341.208 26.6863 340.88 27.0303 340.544 27.2703C340.224 27.5103 339.768 27.6303 339.176 27.6303C338.888 27.6303 338.592 27.5823 338.288 27.4863C338 27.4063 337.72 27.2463 337.448 27.0063C337.176 26.7823 336.952 26.4623 336.776 26.0463C336.616 25.6143 336.536 25.0623 336.536 24.3903C336.536 23.7023 336.592 23.1023 336.704 22.5903C336.816 22.0623 337.024 21.6223 337.328 21.2703C337.616 20.9343 338.008 20.6863 338.504 20.5263C339 20.3503 339.632 20.2623 340.4 20.2623C340.48 20.2623 340.568 20.2623 340.664 20.2623C340.76 20.2623 340.848 20.2703 340.928 20.2863C341.008 20.3023 341.104 20.3103 341.216 20.3103C341.328 20.3103 341.448 20.3183 341.576 20.3343V19.0623C341.576 18.6463 341.488 18.3023 341.312 18.0303C341.136 17.7583 340.816 17.6223 340.352 17.6223C340.032 17.6223 339.736 17.7263 339.464 17.9343C339.208 18.1423 339.04 18.4463 338.96 18.8463H336.584C336.648 17.7583 337.016 16.8783 337.688 16.2063C338.008 15.8863 338.392 15.6383 338.84 15.4623C339.288 15.2703 339.792 15.1743 340.352 15.1743C340.864 15.1743 341.344 15.2543 341.792 15.4143C342.24 15.5743 342.632 15.8143 342.968 16.1343C343.288 16.4543 343.544 16.8543 343.736 17.3343C343.928 17.8143 344.024 18.3743 344.024 19.0143V27.4863H341.576ZM341.576 22.2543C341.304 22.2063 341.08 22.1823 340.904 22.1823C340.376 22.1823 339.92 22.3103 339.536 22.5663C339.168 22.8063 338.984 23.2543 338.984 23.9103C338.984 24.3743 339.096 24.7503 339.32 25.0383C339.544 25.3263 339.856 25.4703 340.256 25.4703C340.672 25.4703 340.992 25.3343 341.216 25.0623C341.456 24.7903 341.576 24.4063 341.576 23.9103V22.2543ZM344.513 15.3183H347.105L348.785 22.9023H348.833L350.489 15.3183H353.009L349.505 29.5983C349.377 30.1423 349.193 30.5903 348.953 30.9423C348.729 31.2943 348.465 31.5823 348.161 31.8063C347.857 32.0303 347.529 32.1823 347.177 32.2623C346.841 32.3583 346.489 32.4063 346.121 32.4063H345.449V30.1023H346.001C346.241 30.1023 346.449 30.0703 346.625 30.0063C346.801 29.9423 346.961 29.7983 347.105 29.5743C347.233 29.3503 347.353 29.0303 347.465 28.6143C347.577 28.2143 347.705 27.6543 347.849 26.9343L344.513 15.3183ZM358.436 15.3183V11.6223H360.884V15.3183H362.396V17.2383H360.884V23.9823C360.884 24.2703 360.908 24.4943 360.956 24.6543C361.02 24.8143 361.116 24.9343 361.244 25.0143C361.372 25.0943 361.524 25.1423 361.7 25.1583C361.892 25.1743 362.124 25.1823 362.396 25.1823V27.4863H361.388C360.828 27.4863 360.356 27.3983 359.972 27.2223C359.604 27.0463 359.308 26.8223 359.084 26.5503C358.86 26.2783 358.692 25.9743 358.58 25.6383C358.484 25.2863 358.436 24.9503 358.436 24.6303V17.2383H357.212V15.3183H358.436ZM363.334 27.4863V10.3983H365.782V16.4943H365.83C366.086 16.1103 366.39 15.7983 366.742 15.5583C367.11 15.3023 367.574 15.1743 368.134 15.1743C368.438 15.1743 368.742 15.2303 369.046 15.3423C369.35 15.4383 369.622 15.6063 369.862 15.8463C370.102 16.0863 370.294 16.3983 370.438 16.7823C370.582 17.1503 370.654 17.6063 370.654 18.1503V27.4863H368.206V19.0623C368.206 18.6143 368.102 18.2623 367.894 18.0063C367.686 17.7503 367.39 17.6223 367.006 17.6223C366.542 17.6223 366.222 17.7663 366.046 18.0543C365.87 18.3423 365.782 18.7583 365.782 19.3023V27.4863H363.334ZM372.663 27.4863V15.3183H375.111V27.4863H372.663ZM372.663 12.8463V10.3983H375.111V12.8463H372.663ZM381.556 18.7263C381.54 18.3103 381.404 17.9983 381.148 17.7903C380.908 17.5823 380.628 17.4783 380.308 17.4783C379.924 17.4783 379.628 17.6063 379.42 17.8623C379.212 18.1023 379.108 18.3823 379.108 18.7023C379.108 18.9263 379.164 19.1503 379.276 19.3743C379.388 19.5823 379.676 19.7743 380.14 19.9503L381.58 20.5263C382.492 20.8783 383.116 21.3583 383.452 21.9663C383.804 22.5743 383.98 23.2383 383.98 23.9583C383.98 24.4703 383.884 24.9503 383.692 25.3983C383.516 25.8303 383.268 26.2143 382.948 26.5503C382.628 26.8863 382.244 27.1503 381.796 27.3423C381.348 27.5343 380.86 27.6303 380.332 27.6303C379.34 27.6303 378.508 27.3183 377.836 26.6943C377.5 26.3903 377.228 26.0143 377.02 25.5663C376.812 25.1023 376.7 24.5663 376.684 23.9583H378.988C379.036 24.2943 379.148 24.6063 379.324 24.8943C379.516 25.1823 379.844 25.3263 380.308 25.3263C380.66 25.3263 380.972 25.2143 381.244 24.9903C381.532 24.7503 381.676 24.4223 381.676 24.0063C381.676 23.6703 381.588 23.3823 381.412 23.1423C381.236 22.9023 380.916 22.6943 380.452 22.5183L379.276 22.0863C378.508 21.7983 377.9 21.3743 377.452 20.8143C377.02 20.2383 376.804 19.5423 376.804 18.7263C376.804 18.2143 376.9 17.7423 377.092 17.3103C377.284 16.8623 377.548 16.4783 377.884 16.1583C378.204 15.8383 378.58 15.5983 379.012 15.4383C379.444 15.2623 379.908 15.1743 380.404 15.1743C380.9 15.1743 381.356 15.2623 381.772 15.4383C382.204 15.6143 382.572 15.8623 382.876 16.1823C383.18 16.5023 383.42 16.8863 383.596 17.3343C383.772 17.7663 383.86 18.2303 383.86 18.7263H381.556ZM392.454 28.9023C392.47 29.1903 392.582 29.4623 392.79 29.7183C393.014 29.9743 393.334 30.1023 393.75 30.1023C394.15 30.1023 394.438 29.9743 394.614 29.7183C394.79 29.4783 394.878 29.1663 394.878 28.7823V26.3823H394.83C394.558 26.7823 394.23 27.0943 393.846 27.3183C393.478 27.5263 393.046 27.6303 392.55 27.6303C391.526 27.6303 390.814 27.2463 390.414 26.4783C390.27 26.2063 390.166 25.8703 390.102 25.4703C390.038 25.0703 390.006 24.5343 390.006 23.8623V19.2303C390.006 18.3503 390.03 17.7023 390.078 17.2863C390.174 16.4863 390.55 15.8863 391.206 15.4863C391.51 15.2783 391.966 15.1743 392.574 15.1743C392.878 15.1743 393.134 15.2063 393.342 15.2703C393.566 15.3343 393.766 15.4223 393.942 15.5343C394.118 15.6463 394.278 15.7823 394.422 15.9423C394.566 16.0863 394.718 16.2463 394.878 16.4223V15.3183H397.326V28.9743C397.326 29.3903 397.254 29.8063 397.11 30.2223C396.982 30.6543 396.766 31.0383 396.462 31.3743C396.158 31.7263 395.774 32.0063 395.31 32.2143C394.846 32.4383 394.294 32.5503 393.654 32.5503C393.286 32.5503 392.902 32.4863 392.502 32.3583C392.102 32.2463 391.734 32.0463 391.398 31.7583C391.046 31.4863 390.742 31.1183 390.486 30.6543C390.246 30.2063 390.086 29.6223 390.006 28.9023H392.454ZM392.454 23.7423C392.454 24.1263 392.534 24.4623 392.694 24.7503C392.87 25.0383 393.19 25.1823 393.654 25.1823C394.006 25.1823 394.294 25.0623 394.518 24.8223C394.758 24.5663 394.878 24.2463 394.878 23.8623V19.1343C394.878 18.6863 394.766 18.3263 394.542 18.0543C394.318 17.7663 394.022 17.6223 393.654 17.6223C393.238 17.6223 392.934 17.7743 392.742 18.0783C392.55 18.3823 392.454 18.7823 392.454 19.2783V23.7423ZM403.966 27.4863V26.2383H403.918C403.598 26.6863 403.27 27.0303 402.934 27.2703C402.614 27.5103 402.158 27.6303 401.566 27.6303C401.278 27.6303 400.982 27.5823 400.678 27.4863C400.39 27.4063 400.11 27.2463 399.838 27.0063C399.566 26.7823 399.342 26.4623 399.166 26.0463C399.006 25.6143 398.926 25.0623 398.926 24.3903C398.926 23.7023 398.982 23.1023 399.094 22.5903C399.206 22.0623 399.414 21.6223 399.718 21.2703C400.006 20.9343 400.398 20.6863 400.894 20.5263C401.39 20.3503 402.022 20.2623 402.79 20.2623C402.87 20.2623 402.958 20.2623 403.054 20.2623C403.15 20.2623 403.238 20.2703 403.318 20.2863C403.398 20.3023 403.494 20.3103 403.606 20.3103C403.718 20.3103 403.838 20.3183 403.966 20.3343V19.0623C403.966 18.6463 403.878 18.3023 403.702 18.0303C403.526 17.7583 403.206 17.6223 402.742 17.6223C402.422 17.6223 402.126 17.7263 401.854 17.9343C401.598 18.1423 401.43 18.4463 401.35 18.8463H398.974C399.038 17.7583 399.406 16.8783 400.078 16.2063C400.398 15.8863 400.782 15.6383 401.23 15.4623C401.678 15.2703 402.182 15.1743 402.742 15.1743C403.254 15.1743 403.734 15.2543 404.182 15.4143C404.63 15.5743 405.022 15.8143 405.358 16.1343C405.678 16.4543 405.934 16.8543 406.126 17.3343C406.318 17.8143 406.414 18.3743 406.414 19.0143V27.4863H403.966ZM403.966 22.2543C403.694 22.2063 403.47 22.1823 403.294 22.1823C402.766 22.1823 402.31 22.3103 401.926 22.5663C401.558 22.8063 401.374 23.2543 401.374 23.9103C401.374 24.3743 401.486 24.7503 401.71 25.0383C401.934 25.3263 402.246 25.4703 402.646 25.4703C403.062 25.4703 403.382 25.3343 403.606 25.0623C403.846 24.7903 403.966 24.4063 403.966 23.9103V22.2543ZM408.217 27.4863V15.3183H410.665V16.4943H410.713C410.969 16.1103 411.273 15.7983 411.625 15.5583C411.993 15.3023 412.457 15.1743 413.017 15.1743C413.545 15.1743 413.985 15.3023 414.337 15.5583C414.689 15.8143 414.977 16.0943 415.201 16.3983C415.505 16.0623 415.841 15.7743 416.209 15.5343C416.577 15.2943 417.089 15.1743 417.745 15.1743C418.049 15.1743 418.361 15.2303 418.681 15.3423C419.001 15.4383 419.289 15.6063 419.545 15.8463C419.801 16.0863 420.009 16.3983 420.169 16.7823C420.329 17.1503 420.409 17.6063 420.409 18.1503V27.4863H417.961V19.0623C417.961 18.6143 417.857 18.2623 417.649 18.0063C417.441 17.7503 417.145 17.6223 416.761 17.6223C416.297 17.6223 415.977 17.7663 415.801 18.0543C415.625 18.3423 415.537 18.7583 415.537 19.3023V27.4863H413.089V19.0623C413.089 18.6143 412.985 18.2623 412.777 18.0063C412.569 17.7503 412.273 17.6223 411.889 17.6223C411.425 17.6223 411.105 17.7663 410.929 18.0543C410.753 18.3423 410.665 18.7583 410.665 19.3023V27.4863H408.217ZM429.5 22.3263H424.652V23.9823C424.652 24.3663 424.756 24.6623 424.964 24.8703C425.188 25.0783 425.484 25.1823 425.852 25.1823C426.316 25.1823 426.62 25.0463 426.764 24.7743C426.924 24.5023 427.02 24.2303 427.052 23.9583H429.5C429.5 25.0303 429.172 25.8943 428.516 26.5503C428.196 26.8863 427.812 27.1503 427.364 27.3423C426.916 27.5343 426.412 27.6303 425.852 27.6303C425.084 27.6303 424.428 27.4703 423.884 27.1503C423.356 26.8303 422.948 26.4063 422.66 25.8783C422.484 25.5583 422.364 25.1903 422.3 24.7743C422.236 24.3583 422.204 23.9023 422.204 23.4063V19.3983C422.204 18.9023 422.236 18.4463 422.3 18.0303C422.364 17.6143 422.484 17.2463 422.66 16.9263C422.948 16.3983 423.356 15.9743 423.884 15.6543C424.428 15.3343 425.084 15.1743 425.852 15.1743C426.412 15.1743 426.916 15.2703 427.364 15.4623C427.828 15.6543 428.22 15.9183 428.54 16.2543C429.18 16.9743 429.5 17.8783 429.5 18.9663V22.3263ZM424.652 20.4063H427.052V19.0143C427.052 18.5503 426.94 18.2063 426.716 17.9823C426.508 17.7423 426.22 17.6223 425.852 17.6223C425.484 17.6223 425.188 17.7423 424.964 17.9823C424.756 18.2063 424.652 18.5503 424.652 19.0143V20.4063ZM435.54 19.3983C435.54 18.9023 435.572 18.4463 435.636 18.0303C435.7 17.6143 435.82 17.2463 435.996 16.9263C436.284 16.3983 436.692 15.9743 437.22 15.6543C437.764 15.3343 438.42 15.1743 439.188 15.1743C439.956 15.1743 440.604 15.3343 441.132 15.6543C441.676 15.9743 442.092 16.3983 442.38 16.9263C442.556 17.2463 442.676 17.6143 442.74 18.0303C442.804 18.4463 442.836 18.9023 442.836 19.3983V23.4063C442.836 23.9023 442.804 24.3583 442.74 24.7743C442.676 25.1903 442.556 25.5583 442.38 25.8783C442.092 26.4063 441.676 26.8303 441.132 27.1503C440.604 27.4703 439.956 27.6303 439.188 27.6303C438.42 27.6303 437.764 27.4703 437.22 27.1503C436.692 26.8303 436.284 26.4063 435.996 25.8783C435.82 25.5583 435.7 25.1903 435.636 24.7743C435.572 24.3583 435.54 23.9023 435.54 23.4063V19.3983ZM437.988 23.7903C437.988 24.2543 438.092 24.6063 438.3 24.8463C438.524 25.0703 438.82 25.1823 439.188 25.1823C439.556 25.1823 439.844 25.0703 440.052 24.8463C440.276 24.6063 440.388 24.2543 440.388 23.7903V19.0143C440.388 18.5503 440.276 18.2063 440.052 17.9823C439.844 17.7423 439.556 17.6223 439.188 17.6223C438.82 17.6223 438.524 17.7423 438.3 17.9823C438.092 18.2063 437.988 18.5503 437.988 19.0143V23.7903ZM444.639 27.4863V15.3183H447.087V16.4943H447.135C447.391 16.1103 447.695 15.7983 448.047 15.5583C448.415 15.3023 448.879 15.1743 449.439 15.1743C449.743 15.1743 450.047 15.2303 450.351 15.3423C450.655 15.4383 450.927 15.6063 451.167 15.8463C451.407 16.0863 451.599 16.3983 451.743 16.7823C451.887 17.1503 451.959 17.6063 451.959 18.1503V27.4863H449.511V19.0623C449.511 18.6143 449.407 18.2623 449.199 18.0063C448.991 17.7503 448.695 17.6223 448.311 17.6223C447.847 17.6223 447.527 17.7663 447.351 18.0543C447.175 18.3423 447.087 18.7583 447.087 19.3023V27.4863H444.639ZM458.42 15.3183V11.6223H460.868V15.3183H462.38V17.2383H460.868V23.9823C460.868 24.2703 460.892 24.4943 460.94 24.6543C461.004 24.8143 461.1 24.9343 461.228 25.0143C461.356 25.0943 461.508 25.1423 461.684 25.1583C461.876 25.1743 462.108 25.1823 462.38 25.1823V27.4863H461.372C460.812 27.4863 460.34 27.3983 459.956 27.2223C459.588 27.0463 459.292 26.8223 459.068 26.5503C458.844 26.2783 458.676 25.9743 458.564 25.6383C458.468 25.2863 458.42 24.9503 458.42 24.6303V17.2383H457.196V15.3183H458.42ZM463.319 27.4863V10.3983H465.767V16.4943H465.815C466.071 16.1103 466.375 15.7983 466.727 15.5583C467.095 15.3023 467.559 15.1743 468.119 15.1743C468.423 15.1743 468.727 15.2303 469.031 15.3423C469.335 15.4383 469.607 15.6063 469.847 15.8463C470.087 16.0863 470.279 16.3983 470.423 16.7823C470.567 17.1503 470.639 17.6063 470.639 18.1503V27.4863H468.191V19.0623C468.191 18.6143 468.087 18.2623 467.879 18.0063C467.671 17.7503 467.375 17.6223 466.991 17.6223C466.527 17.6223 466.207 17.7663 466.031 18.0543C465.855 18.3423 465.767 18.7583 465.767 19.3023V27.4863H463.319ZM479.727 22.3263H474.879V23.9823C474.879 24.3663 474.983 24.6623 475.191 24.8703C475.415 25.0783 475.711 25.1823 476.079 25.1823C476.543 25.1823 476.847 25.0463 476.991 24.7743C477.151 24.5023 477.247 24.2303 477.279 23.9583H479.727C479.727 25.0303 479.399 25.8943 478.743 26.5503C478.423 26.8863 478.039 27.1503 477.591 27.3423C477.143 27.5343 476.639 27.6303 476.079 27.6303C475.311 27.6303 474.655 27.4703 474.111 27.1503C473.583 26.8303 473.175 26.4063 472.887 25.8783C472.711 25.5583 472.591 25.1903 472.527 24.7743C472.463 24.3583 472.431 23.9023 472.431 23.4063V19.3983C472.431 18.9023 472.463 18.4463 472.527 18.0303C472.591 17.6143 472.711 17.2463 472.887 16.9263C473.175 16.3983 473.583 15.9743 474.111 15.6543C474.655 15.3343 475.311 15.1743 476.079 15.1743C476.639 15.1743 477.143 15.2703 477.591 15.4623C478.055 15.6543 478.447 15.9183 478.767 16.2543C479.407 16.9743 479.727 17.8783 479.727 18.9663V22.3263ZM474.879 20.4063H477.279V19.0143C477.279 18.5503 477.167 18.2063 476.943 17.9823C476.735 17.7423 476.447 17.6223 476.079 17.6223C475.711 17.6223 475.415 17.7423 475.191 17.9823C474.983 18.2063 474.879 18.5503 474.879 19.0143V20.4063ZM488.575 23.9823C488.575 24.3663 488.679 24.6623 488.887 24.8703C489.111 25.0783 489.407 25.1823 489.775 25.1823C490.239 25.1823 490.543 25.0463 490.687 24.7743C490.847 24.5023 490.943 24.2303 490.975 23.9583H493.423C493.423 25.0303 493.095 25.8943 492.439 26.5503C492.119 26.8863 491.735 27.1503 491.287 27.3423C490.839 27.5343 490.335 27.6303 489.775 27.6303C489.007 27.6303 488.351 27.4703 487.807 27.1503C487.279 26.8303 486.871 26.4063 486.583 25.8783C486.407 25.5583 486.287 25.1903 486.223 24.7743C486.159 24.3583 486.127 23.9023 486.127 23.4063V19.3983C486.127 18.9023 486.159 18.4463 486.223 18.0303C486.287 17.6143 486.407 17.2463 486.583 16.9263C486.871 16.3983 487.279 15.9743 487.807 15.6543C488.351 15.3343 489.007 15.1743 489.775 15.1743C490.335 15.1743 490.839 15.2703 491.287 15.4623C491.751 15.6543 492.143 15.9183 492.463 16.2543C493.103 16.9743 493.423 17.9103 493.423 19.0623H490.975C490.975 18.5663 490.863 18.2063 490.639 17.9823C490.431 17.7423 490.143 17.6223 489.775 17.6223C489.407 17.6223 489.111 17.7423 488.887 17.9823C488.679 18.2063 488.575 18.5503 488.575 19.0143V23.9823ZM494.65 19.3983C494.65 18.9023 494.682 18.4463 494.746 18.0303C494.81 17.6143 494.93 17.2463 495.106 16.9263C495.394 16.3983 495.802 15.9743 496.33 15.6543C496.874 15.3343 497.53 15.1743 498.298 15.1743C499.066 15.1743 499.714 15.3343 500.242 15.6543C500.786 15.9743 501.202 16.3983 501.49 16.9263C501.666 17.2463 501.786 17.6143 501.85 18.0303C501.914 18.4463 501.946 18.9023 501.946 19.3983V23.4063C501.946 23.9023 501.914 24.3583 501.85 24.7743C501.786 25.1903 501.666 25.5583 501.49 25.8783C501.202 26.4063 500.786 26.8303 500.242 27.1503C499.714 27.4703 499.066 27.6303 498.298 27.6303C497.53 27.6303 496.874 27.4703 496.33 27.1503C495.802 26.8303 495.394 26.4063 495.106 25.8783C494.93 25.5583 494.81 25.1903 494.746 24.7743C494.682 24.3583 494.65 23.9023 494.65 23.4063V19.3983ZM497.098 23.7903C497.098 24.2543 497.202 24.6063 497.41 24.8463C497.634 25.0703 497.93 25.1823 498.298 25.1823C498.666 25.1823 498.954 25.0703 499.162 24.8463C499.386 24.6063 499.498 24.2543 499.498 23.7903V19.0143C499.498 18.5503 499.386 18.2063 499.162 17.9823C498.954 17.7423 498.666 17.6223 498.298 17.6223C497.93 17.6223 497.634 17.7423 497.41 17.9823C497.202 18.2063 497.098 18.5503 497.098 19.0143V23.7903ZM503.748 27.4863V15.3183H506.196V16.4943H506.244C506.5 16.1103 506.804 15.7983 507.156 15.5583C507.524 15.3023 507.988 15.1743 508.548 15.1743C509.076 15.1743 509.516 15.3023 509.868 15.5583C510.22 15.8143 510.508 16.0943 510.732 16.3983C511.036 16.0623 511.372 15.7743 511.74 15.5343C512.108 15.2943 512.62 15.1743 513.276 15.1743C513.58 15.1743 513.892 15.2303 514.212 15.3423C514.532 15.4383 514.82 15.6063 515.076 15.8463C515.332 16.0863 515.54 16.3983 515.7 16.7823C515.86 17.1503 515.94 17.6063 515.94 18.1503V27.4863L513.492 27.4863V19.0623C513.492 18.6143 513.388 18.2623 513.18 18.0063C512.972 17.7503 512.676 17.6223 512.292 17.6223C511.828 17.6223 511.508 17.7663 511.332 18.0543C511.156 18.3423 511.068 18.7583 511.068 19.3023V27.4863H508.62V19.0623C508.62 18.6143 508.516 18.2623 508.308 18.0063C508.1 17.7503 507.804 17.6223 507.42 17.6223C506.956 17.6223 506.636 17.7663 506.46 18.0543C506.284 18.3423 506.196 18.7583 506.196 19.3023V27.4863H503.748ZM517.952 32.4063V15.3183H520.4V16.4223C520.704 16.0703 521.016 15.7743 521.336 15.5343C521.656 15.2943 522.12 15.1743 522.728 15.1743C523.736 15.1743 524.448 15.5583 524.864 16.3263C525.008 16.5983 525.112 16.9343 525.176 17.3343C525.24 17.7343 525.272 18.2703 525.272 18.9423V23.5743C525.272 24.4703 525.248 25.1183 525.2 25.5183C525.104 26.3183 524.736 26.9183 524.096 27.3183C523.776 27.5263 523.312 27.6303 522.704 27.6303C522.224 27.6303 521.792 27.5263 521.408 27.3183C521.04 27.0943 520.72 26.7823 520.448 26.3823H520.4V32.4063H517.952ZM522.824 19.2783C522.824 18.7823 522.728 18.3823 522.536 18.0783C522.344 17.7743 522.04 17.6223 521.624 17.6223C521.256 17.6223 520.96 17.7663 520.736 18.0543C520.512 18.3263 520.4 18.6863 520.4 19.1343V23.8623C520.4 24.2463 520.512 24.5663 520.736 24.8223C520.976 25.0623 521.272 25.1823 521.624 25.1823C522.088 25.1823 522.4 25.0383 522.56 24.7503C522.736 24.4623 522.824 24.1263 522.824 23.7423V19.2783ZM534.6 15.3183V27.4863H532.152V26.3103H532.104C531.848 26.6943 531.536 27.0143 531.168 27.2703C530.816 27.5103 530.36 27.6303 529.8 27.6303C529.496 27.6303 529.192 27.5823 528.888 27.4863C528.584 27.3743 528.312 27.1983 528.072 26.9583C527.832 26.7183 527.64 26.4143 527.496 26.0463C527.352 25.6623 527.28 25.1983 527.28 24.6543V15.3183H529.728V23.7423C529.728 24.1903 529.832 24.5423 530.04 24.7983C530.248 25.0543 530.544 25.1823 530.928 25.1823C531.392 25.1823 531.712 25.0383 531.888 24.7503C532.064 24.4623 532.152 24.0463 532.152 23.5023V15.3183H534.6ZM536.608 15.3183V11.6223H539.056V15.3183H540.568V17.2383H539.056V23.9823C539.056 24.2703 539.08 24.4943 539.128 24.6543C539.192 24.8143 539.288 24.9343 539.416 25.0143C539.544 25.0943 539.696 25.1423 539.872 25.1583C540.064 25.1743 540.296 25.1823 540.568 25.1823V27.4863H539.56C539 27.4863 538.528 27.3983 538.144 27.2223C537.776 27.0463 537.48 26.8223 537.256 26.5503C537.032 26.2783 536.864 25.9743 536.752 25.6383C536.656 25.2863 536.608 24.9503 536.608 24.6303V17.2383H535.384V15.3183H536.608ZM548.586 22.3263H543.738V23.9823C543.738 24.3663 543.842 24.6623 544.05 24.8703C544.274 25.0783 544.57 25.1823 544.938 25.1823C545.402 25.1823 545.706 25.0463 545.85 24.7743C546.01 24.5023 546.106 24.2303 546.138 23.9583H548.586C548.586 25.0303 548.258 25.8943 547.602 26.5503C547.282 26.8863 546.898 27.1503 546.45 27.3423C546.002 27.5343 545.498 27.6303 544.938 27.6303C544.17 27.6303 543.514 27.4703 542.97 27.1503C542.442 26.8303 542.034 26.4063 541.746 25.8783C541.57 25.5583 541.45 25.1903 541.386 24.7743C541.322 24.3583 541.29 23.9023 541.29 23.4063V19.3983C541.29 18.9023 541.322 18.4463 541.386 18.0303C541.45 17.6143 541.57 17.2463 541.746 16.9263C542.034 16.3983 542.442 15.9743 542.97 15.6543C543.514 15.3343 544.17 15.1743 544.938 15.1743C545.498 15.1743 546.002 15.2703 546.45 15.4623C546.914 15.6543 547.306 15.9183 547.626 16.2543C548.266 16.9743 548.586 17.8783 548.586 18.9663V22.3263ZM543.738 20.4063H546.138V19.0143C546.138 18.5503 546.026 18.2063 545.802 17.9823C545.594 17.7423 545.306 17.6223 544.938 17.6223C544.57 17.6223 544.274 17.7423 544.05 17.9823C543.842 18.2063 543.738 18.5503 543.738 19.0143V20.4063ZM550.389 27.4863V15.3183H552.837V16.6143C553.333 16.1663 553.821 15.8143 554.301 15.5583C554.781 15.3023 555.373 15.1743 556.077 15.1743V17.7663C555.837 17.6703 555.589 17.6223 555.333 17.6223C555.077 17.6223 554.797 17.6703 554.493 17.7663C554.205 17.8463 553.941 17.9903 553.701 18.1983C553.445 18.4063 553.237 18.6783 553.077 19.0143C552.917 19.3503 552.837 19.7663 552.837 20.2623V27.4863H550.389Z" fill="black"/>
</svg>
