<svg width="390" height="126" viewBox="0 0 390 126" fill="none" xmlns="http://www.w3.org/2000/svg">
<rect x="-144.261" y="86.0933" width="700" height="40" transform="rotate(-7 -144.261 86.0933)" fill="#FFEC41"/>
<rect x="-143.896" y="89.0708" width="700" height="3" transform="rotate(-7 -143.896 89.0708)" fill="black"/>
<rect x="-140.118" y="119.84" width="700" height="3" transform="rotate(-7 -140.118 119.84)" fill="black"/>
<path d="M152.933 67.8724C152.513 68.7165 152.333 69.6051 152.394 70.5379L152.601 72.2253C152.775 73.0906 153.171 73.8547 153.789 74.5175L155.389 75.8929L154.118 77.3587L152.496 75.9659C151.995 75.4902 151.593 74.9551 151.292 74.3608C150.947 73.7448 150.735 73.1126 150.656 72.4641L150.449 70.7768C150.379 70.1002 150.418 69.4305 150.565 68.7677C150.698 68.1065 150.917 67.4818 151.221 66.8937L153.3 63.3136L146.769 64.1155L146.531 62.1701L153.26 61.3439C154.051 61.2199 154.692 61.4636 155.183 62.0749C155.549 62.7554 155.519 63.4375 155.092 64.1213L152.933 67.8724ZM154.954 68.4101L154.754 66.7823L156.382 66.5825L156.582 68.2102L154.954 68.4101ZM157.356 68.1152L157.156 66.4874L158.784 66.2875L158.984 67.9153L157.356 68.1152ZM166.268 75.5445C165.536 75.6074 164.918 75.3877 164.413 74.8855C163.937 74.3933 163.656 73.8031 163.571 73.115L163.079 69.1051C163.035 67.4313 163.83 66.4135 165.465 66.0516L165.524 66.0443L165.083 62.4512L162.681 62.7462L162.445 60.8206L164.847 60.5257L164.666 59.0567L166.592 58.8203L166.772 60.2893L169.313 59.9773L169.55 61.9028L167.009 62.2148L167.45 65.8078L169.296 65.5812C170.956 65.5385 171.974 66.3337 172.349 67.9668L172.842 71.9767C173.014 73.487 172.41 74.4813 171.032 74.9595L169.9 75.0984L169.661 73.1531L170.733 73.0214C170.876 72.7621 170.93 72.4935 170.896 72.2156L170.404 68.2057C170.293 67.7358 170.003 67.5094 169.535 67.5266L167.689 67.7532L168.276 72.5373C168.359 73.2122 168.229 73.8528 167.887 74.459C167.506 75.0701 166.966 75.4319 166.268 75.5445ZM165.024 68.8662L165.517 72.8761C165.546 73.2218 165.716 73.4628 166.029 73.5991C166.287 73.4062 166.394 73.131 166.351 72.7737L165.763 67.9897L165.704 67.997C165.232 68.0952 165.006 68.3849 165.024 68.8662ZM173.475 64.665L171.618 65.296L170.32 61.4456L172.176 60.8146L173.475 64.665ZM181.92 62.3788L182.09 63.7684L184.79 63.4369L184.619 62.0473L181.92 62.3788ZM181.7 60.5923L184.4 60.2608L184.237 58.9308L181.537 59.2622L181.7 60.5923ZM176.716 64.4686C177.733 63.7796 178.683 63.0383 179.566 62.2447L180.071 63.7342L179.593 59.8434L178.945 61.6157C178.063 60.7836 177.138 59.977 176.169 59.1959L177.066 57.3126C178.075 58.0888 178.911 58.8794 179.574 59.6846L179.308 57.5209L181.333 57.2723C181.345 57.0424 181.36 56.5099 181.379 55.6748L183.483 55.5777C183.457 56.0242 183.435 56.5037 183.417 57.0163L185.978 56.7019L186.239 58.826C186.788 57.9391 187.383 56.9861 188.024 55.9671L189.442 57.5058C188.866 58.5034 188.157 59.5107 187.314 60.5276L186.271 59.084L186.719 62.7366L186.869 61.3279C188.103 61.754 189.205 62.25 190.175 62.8161L189.656 64.9955C188.675 64.4443 187.729 63.956 186.817 63.5306L187.002 65.0393L184.719 65.3196L184.836 66.2725L189.977 65.6412L190.245 67.8248L186.017 68.3439C187.269 69.3456 188.973 70.1505 191.13 70.7589L190.636 72.9756C188.42 72.2133 186.641 71.2361 185.299 70.0441L185.762 73.8158L183.658 74.0742L183.195 70.3025C182.181 71.7837 180.691 73.1622 178.726 74.438L177.71 72.4066C179.658 71.3077 181.116 70.1144 182.087 68.8265L177.859 69.3457L177.59 67.1621L182.732 66.5308L182.615 65.578L180.332 65.8583L180.144 64.3298C179.474 65.1105 178.636 65.8314 177.629 66.4924L176.716 64.4686ZM202.69 65.1281L204.607 65.3159L204.3 68.3962C204.009 69.9634 203.084 70.9098 201.525 71.2355L199.441 71.4915C197.754 71.5374 196.743 70.7414 196.407 69.1034L194.723 55.3864L196.649 55.15L198.333 68.8669C198.418 69.3401 198.707 69.5665 199.202 69.5461L201.286 69.2902C201.859 69.1392 202.217 68.7729 202.36 68.1911L202.69 65.1281ZM217.583 66.6242C217.749 65.5695 217.793 64.5095 217.716 63.4443L217.502 61.6974L215.338 61.9631L215.737 66.6897C215.794 67.3678 215.643 68.0042 215.286 68.5988C214.888 69.185 214.334 69.5419 213.625 69.6693C212.905 69.7174 212.287 69.4977 211.77 69.0104C211.292 68.5049 211.011 67.9147 210.928 67.2398L210.451 63.349C210.405 61.662 211.2 60.6442 212.836 60.2955L213.233 60.2468L212.868 55.9593C212.842 55.7476 212.755 55.5837 212.606 55.4676C212.441 55.3266 212.267 55.2742 212.083 55.3102L209.979 55.5685L209.74 53.6231L211.844 53.3648C212.585 53.2738 213.254 53.4671 213.85 53.9447C214.418 54.4123 214.742 55.0307 214.823 55.7999L215.179 60.0079L217.263 59.752L216.6 54.3525L218.526 54.1161L219.189 59.5156L220.519 59.3523L220.757 61.2976L219.427 61.461L219.642 63.2078C219.757 64.4699 219.71 65.7317 219.502 66.9931L219.151 68.89L217.229 68.5013L217.583 66.6242ZM213.802 66.8467L213.413 62.1995L213.075 62.2409C212.602 62.3259 212.376 62.6156 212.396 63.1102L212.874 67.0009C212.903 67.3466 213.073 67.5876 213.386 67.7239C213.71 67.5229 213.849 67.2305 213.802 66.8467ZM233.894 67.5231L228.472 61.2773C228.001 60.7173 227.728 60.0791 227.653 59.3629C227.564 58.635 227.694 57.9473 228.045 57.2998L231.644 50.6718L233.348 51.5908L229.752 58.2387C229.506 58.86 229.571 59.4497 229.949 60.0079L235.37 66.2537L233.894 67.5231ZM251.951 55.2309C252.312 55.7642 252.375 56.3341 252.14 56.9406L251.634 58.2319L249.812 57.5085L250.229 56.47C250.189 56.4749 250.149 56.4798 250.11 56.4846L246.814 56.8892L246.576 54.9438L249.871 54.5392C250.688 54.412 251.381 54.6426 251.951 55.2309ZM246.075 61.6952L248.02 61.4564L248.208 62.9849C248.372 63.3408 248.652 63.4878 249.048 63.4258L252.899 62.9529L253.138 64.8983L249.287 65.3712C247.674 65.4752 246.666 64.7594 246.262 63.2237L246.075 61.6952ZM244.144 52.8647L244.722 57.5693C244.846 58.8034 244.87 60.0363 244.793 61.2682L244.404 65.8095L242.469 65.6441L242.861 61.1226C242.926 60.0131 242.898 58.9083 242.776 57.8082L242.199 53.1035L241.008 53.2498L240.771 51.3242L241.962 51.178L241.772 49.6296L243.718 49.3908L243.908 50.9391L247.421 50.5077L247.658 52.4333L244.144 52.8647ZM248.466 50.319L248.266 48.6912L249.894 48.4913L250.094 50.1191L248.466 50.319ZM250.868 50.0241L250.668 48.3963L252.316 48.194L252.516 49.8218L250.868 50.0241ZM262.628 46.8471L263.348 48.935L267.557 48.4183L267.796 50.3636L263.964 50.8341L265.729 56.1789C266.026 56.9618 265.973 57.7273 265.568 58.4756C265.285 58.9133 264.881 59.1778 264.355 59.2693L263.204 59.4107L262.965 57.4653L263.938 57.3458C263.955 57.1557 263.933 56.977 263.872 56.8099L261.999 51.0754L257.751 51.597L257.512 49.6516L261.363 49.1787L260.789 47.4559L262.628 46.8471ZM257.849 58.9599L259.775 58.7235L260.094 61.3239C260.192 61.7955 260.482 62.0219 260.963 62.0031L263.941 61.6375L264.177 63.563L261.2 63.9286C259.526 63.9729 258.515 63.1835 258.168 61.5604L257.849 58.9599ZM276.862 62.0055C275.286 61.9706 274.362 61.1707 274.089 59.6056L272.575 47.2782L274.501 47.0417L276.014 59.3692C276.048 59.7546 276.252 59.9915 276.625 60.08C277.097 59.8743 277.388 59.5094 277.499 58.9854L277.932 56.1112L279.841 56.4007L279.408 59.2749C279.289 59.9477 279.013 60.5391 278.578 61.0492C278.106 61.5774 277.534 61.8962 276.862 62.0055ZM281.953 48.1619L283.776 51.5248C284.348 52.677 284.738 53.8852 284.947 55.1491L285.424 59.0399L283.479 59.2788L283.001 55.388C282.822 54.3622 282.507 53.3866 282.057 52.4612L280.232 49.0785L281.953 48.1619Z" fill="black"/>
<path d="M125.325 81.3775L123.243 64.4169L126.887 63.9694C127.554 63.8875 128.153 63.9027 128.682 64.015C129.212 64.1273 129.71 64.3804 130.178 64.7744C130.645 65.1683 130.996 65.6573 131.229 66.2413C131.459 66.8093 131.637 67.6016 131.762 68.6179C131.856 69.3802 131.887 70.0292 131.856 70.565C131.841 71.0988 131.719 71.6135 131.49 72.1092C131.224 72.706 130.833 73.1973 130.316 73.5831C129.798 73.9531 129.086 74.1937 128.181 74.3048L126.942 74.4569L127.755 81.0792L125.325 81.3775ZM125.953 66.4054L126.661 72.1701L127.828 72.0268C128.321 71.9663 128.693 71.8481 128.945 71.672C129.198 71.4959 129.372 71.273 129.468 71.0033C129.566 70.7495 129.601 70.447 129.574 70.0956C129.563 69.7424 129.531 69.3513 129.478 68.9226C129.43 68.5255 129.376 68.1533 129.317 67.8059C129.256 67.4426 129.146 67.1337 128.986 66.8794C128.825 66.625 128.609 66.4419 128.338 66.3302C128.066 66.2185 127.692 66.1919 127.216 66.2504L125.953 66.4054ZM143.341 74.2569L143.47 75.305C143.534 75.829 143.492 76.342 143.344 76.8437C143.21 77.3277 142.991 77.7737 142.687 78.1819C142.382 78.59 142.005 78.9345 141.556 79.2154C141.121 79.4784 140.633 79.643 140.093 79.7093C139.633 79.7658 139.157 79.7598 138.665 79.6913C138.173 79.6227 137.716 79.4531 137.296 79.1822C136.876 78.9114 136.509 78.5455 136.194 78.0844C135.894 77.6054 135.696 76.9769 135.6 76.1987L134.454 66.8609C134.385 66.305 134.417 65.7772 134.549 65.2774C134.681 64.7776 134.901 64.3315 135.207 63.9392C135.514 63.547 135.893 63.2263 136.346 62.9772C136.813 62.7103 137.341 62.5408 137.928 62.4687C139.072 62.3283 140.046 62.5874 140.853 63.246C141.247 63.5684 141.571 63.972 141.823 64.4568C142.09 64.9237 142.26 65.451 142.332 66.0386L142.449 66.9914L140.019 67.2898L139.92 66.4798C139.861 66.0034 139.676 65.6071 139.363 65.2909C139.05 64.9746 138.663 64.8448 138.203 64.9013C137.599 64.9754 137.218 65.2157 137.058 65.6222C136.912 66.0109 136.875 66.4911 136.945 67.0628L138.009 75.7336C138.07 76.2259 138.224 76.6262 138.471 76.9343C138.734 77.2405 139.144 77.3595 139.7 77.2912C139.859 77.2717 140.022 77.2274 140.191 77.1584C140.374 77.0714 140.537 76.9547 140.68 76.8082C140.808 76.6636 140.905 76.4742 140.973 76.2402C141.041 76.0062 141.055 75.7224 141.014 75.3889L140.911 74.5552L143.341 74.2569Z" fill="black"/>
<path d="M301.198 62.5499L299.115 45.5893L301.545 45.2909L301.68 46.3867C301.938 46.0003 302.212 45.6684 302.5 45.3912C302.789 45.114 303.235 44.9384 303.838 44.8643C304.839 44.7414 305.592 45.0358 306.099 45.7474C306.275 45.9998 306.419 46.3206 306.531 46.7098C306.643 47.0991 306.74 47.6272 306.822 48.2942L307.387 52.8916C307.496 53.781 307.551 54.427 307.552 54.8299C307.554 55.6357 307.262 56.276 306.676 56.751C306.384 56.9965 305.936 57.1563 305.332 57.2304C304.856 57.2889 304.414 57.2383 304.008 57.0786C303.615 56.9011 303.26 56.6305 302.941 56.2666L302.893 56.2724L303.628 62.2515L301.198 62.5499ZM304.434 48.926C304.373 48.4337 304.229 48.0484 304.001 47.77C303.774 47.4917 303.454 47.3779 303.041 47.4286C302.675 47.4734 302.399 47.6524 302.212 47.9656C302.023 48.2628 301.955 48.6338 302.01 49.0785L302.586 53.7712C302.633 54.1524 302.783 54.4563 303.037 54.6831C303.304 54.8921 303.613 54.9751 303.962 54.9322C304.423 54.8757 304.715 54.6947 304.838 54.3894C304.978 54.0821 305.024 53.7379 304.978 53.3567L304.434 48.926ZM307.631 39.5867L310.061 39.2883L311.725 52.8425C311.782 53.3031 311.9 53.6109 312.081 53.7661C312.275 53.9035 312.605 53.9677 313.071 53.9588L313.352 56.2456C312.796 56.3139 312.29 56.3277 311.834 56.287C311.379 56.2622 310.978 56.1422 310.629 55.9271C310.282 55.7279 309.995 55.4246 309.768 55.0173C309.554 54.5922 309.404 54.0223 309.316 53.3076L307.631 39.5867ZM318.874 55.4225L318.722 54.1838L318.674 54.1897C318.411 54.6734 318.128 55.0548 317.824 55.3339C317.535 55.6111 317.097 55.7858 316.51 55.858C316.224 55.8931 315.924 55.8815 315.611 55.8233C315.315 55.7789 315.018 55.6543 314.718 55.4492C314.421 55.26 314.16 54.9697 313.934 54.5783C313.723 54.169 313.576 53.6308 313.494 52.9638C313.411 52.281 313.393 51.6786 313.442 51.1568C313.489 50.6191 313.641 50.157 313.9 49.7706C314.145 49.402 314.504 49.1081 314.977 48.8888C315.448 48.6537 316.064 48.4893 316.827 48.3957C316.906 48.386 316.993 48.3752 317.089 48.3635C317.184 48.3518 317.272 48.3491 317.354 48.3552C317.435 48.3613 317.531 48.3576 317.642 48.3439C317.753 48.3303 317.874 48.3236 318.003 48.3239L317.848 47.0613C317.797 46.6484 317.668 46.3177 317.46 46.0692C317.252 45.8207 316.918 45.7247 316.457 45.7812C316.14 45.8202 315.858 45.9595 315.614 46.1991C315.385 46.4368 315.255 46.759 315.225 47.1658L312.866 47.4553C312.797 46.3676 313.055 45.4493 313.64 44.7005C313.919 44.3438 314.27 44.0509 314.693 43.8216C315.114 43.5764 315.603 43.4197 316.159 43.3515C316.667 43.2891 317.153 43.31 317.617 43.4142C318.081 43.5184 318.5 43.7089 318.872 43.9855C319.229 44.2641 319.532 44.63 319.781 45.083C320.03 45.536 320.193 46.0801 320.271 46.7154L321.304 55.1242L318.874 55.4225ZM318.237 50.2295C317.961 50.215 317.735 50.2185 317.561 50.24C317.037 50.3043 316.6 50.4869 316.25 50.7878C315.914 51.0709 315.786 51.538 315.866 52.1891C315.922 52.6496 316.079 53.0092 316.337 53.2677C316.594 53.5263 316.921 53.6312 317.318 53.5824C317.731 53.5317 318.032 53.3578 318.221 53.0605C318.426 52.7613 318.499 52.3655 318.438 51.8732L318.237 50.2295ZM320.307 42.9872L322.88 42.6714L325.471 49.9941L325.519 49.9882L326.238 42.259L328.74 41.9518L327.002 56.5524C326.941 57.108 326.813 57.5751 326.618 57.9537C326.438 58.3304 326.212 58.6484 325.937 58.9078C325.663 59.1671 325.356 59.358 325.016 59.4803C324.694 59.6165 324.351 59.7071 323.985 59.7519L323.318 59.8338L323.038 57.547L323.586 57.4797C323.824 57.4505 324.026 57.3933 324.193 57.3084C324.36 57.2234 324.501 57.061 324.617 56.8211C324.717 56.5832 324.797 56.2509 324.857 55.8244C324.92 55.4137 324.978 54.8423 325.034 54.1101L320.307 42.9872ZM334.126 41.2905L333.675 37.6221L336.105 37.3237L336.556 40.9922L338.056 40.8079L338.29 42.7136L336.79 42.8979L337.611 49.5916C337.646 49.8774 337.698 50.0968 337.765 50.2498C337.848 50.4008 337.958 50.5082 338.094 50.572C338.231 50.6358 338.388 50.6649 338.565 50.6594C338.757 50.6519 338.988 50.6315 339.258 50.5984L339.539 52.8852L338.539 53.008C337.983 53.0763 337.504 53.0465 337.101 52.9186C336.714 52.7887 336.393 52.6025 336.138 52.3598C335.882 52.1171 335.678 51.8359 335.526 51.516C335.388 51.1784 335.3 50.8507 335.261 50.5331L334.36 43.1962L333.145 43.3454L332.911 41.4397L334.126 41.2905ZM340.471 52.7708L338.388 35.8102L340.818 35.5119L341.561 41.5624L341.608 41.5566C341.816 41.1442 342.079 40.7975 342.4 40.5164C342.734 40.2175 343.179 40.0339 343.734 39.9656C344.036 39.9286 344.345 39.9471 344.66 40.0212C344.973 40.0795 345.264 40.2131 345.531 40.422C345.799 40.631 346.027 40.9173 346.217 41.2809C346.405 41.6286 346.532 42.0724 346.598 42.6123L347.736 51.8788L345.306 52.1771L344.28 43.8159C344.225 43.3712 344.079 43.0345 343.841 42.8058C343.604 42.577 343.294 42.4861 342.913 42.5329C342.453 42.5894 342.152 42.7713 342.013 43.0786C341.873 43.3859 341.837 43.8096 341.903 44.3495L342.9 52.4725L340.471 52.7708ZM349.729 51.634L348.246 39.5567L350.676 39.2584L352.159 51.3357L349.729 51.634ZM347.945 37.1031L347.647 34.6734L350.076 34.3751L350.375 36.8048L347.945 37.1031ZM357.488 41.8555C357.422 41.4446 357.249 41.1515 356.969 40.9762C356.706 40.799 356.415 40.7299 356.098 40.7689C355.717 40.8157 355.438 40.9788 355.263 41.2583C355.086 41.5218 355.017 41.8124 355.056 42.13C355.083 42.3524 355.166 42.5679 355.304 42.7766C355.441 42.9694 355.75 43.1248 356.232 43.243L357.732 43.6392C358.68 43.8774 359.358 44.2778 359.765 44.8403C360.189 45.4009 360.444 46.0385 360.532 46.7531C360.594 47.2613 360.558 47.7494 360.422 48.2175C360.3 48.6677 360.1 49.0791 359.824 49.4516C359.547 49.8241 359.198 50.1329 358.777 50.378C358.355 50.6232 357.883 50.778 357.359 50.8423C356.374 50.9632 355.51 50.7549 354.767 50.2175C354.397 49.9567 354.081 49.6166 353.82 49.1973C353.557 48.7621 353.38 48.2438 353.29 47.6423L355.577 47.3615C355.666 47.6891 355.815 47.9852 356.025 48.2496C356.25 48.512 356.594 48.615 357.054 48.5584C357.403 48.5155 357.699 48.3663 357.942 48.1109C358.199 47.8375 358.302 47.4944 358.251 47.0815C358.21 46.748 358.088 46.4729 357.884 46.2562C357.68 46.0394 357.337 45.8719 356.855 45.7538L355.635 45.4683C354.838 45.2761 354.182 44.9293 353.67 44.4281C353.171 43.909 352.871 43.2446 352.772 42.4346C352.709 41.9265 352.747 41.4463 352.885 40.9941C353.021 40.526 353.236 40.1127 353.531 39.7542C353.809 39.3976 354.153 39.1135 354.563 38.9021C354.97 38.6747 355.42 38.5308 355.912 38.4704C356.404 38.4099 356.868 38.4417 357.302 38.5657C357.752 38.6877 358.148 38.889 358.489 39.1696C358.829 39.4502 359.114 39.8021 359.344 40.2253C359.571 40.6326 359.715 41.0824 359.775 41.5747L357.488 41.8555ZM369.546 50.6275C369.597 50.9114 369.741 51.1677 369.979 51.3964C370.232 51.6232 370.566 51.7113 370.979 51.6606C371.376 51.6118 371.646 51.4497 371.789 51.1741C371.935 50.9145 371.984 50.5941 371.937 50.2129L371.645 47.8308L371.597 47.8367C371.376 48.2668 371.088 48.6165 370.735 48.8856C370.395 49.1369 369.979 49.2928 369.486 49.3532C368.47 49.478 367.716 49.1837 367.226 48.4701C367.05 48.2177 366.906 47.8969 366.793 47.5077C366.681 47.1185 366.584 46.5904 366.502 45.9234L365.938 41.3259C365.83 40.4524 365.775 39.8064 365.772 39.3876C365.77 38.5819 366.07 37.9405 366.672 37.4636C366.949 37.2201 367.389 37.0613 367.992 36.9872C368.294 36.9501 368.552 36.9507 368.766 36.9889C368.996 37.0251 369.205 37.088 369.394 37.1778C369.582 37.2675 369.757 37.383 369.92 37.5242C370.08 37.6496 370.251 37.7899 370.431 37.9451L370.296 36.8493L372.726 36.551L374.39 50.1052C374.441 50.5181 374.42 50.9397 374.328 51.3702C374.254 51.8146 374.086 52.222 373.825 52.5926C373.567 52.979 373.22 53.3037 372.784 53.5667C372.351 53.8456 371.817 54.024 371.182 54.102C370.816 54.1469 370.427 54.1301 370.015 54.0519C369.604 53.9894 369.215 53.8358 368.846 53.5909C368.463 53.3638 368.117 53.0356 367.806 52.6062C367.513 52.1908 367.283 51.6307 367.116 50.9258L369.546 50.6275ZM368.917 45.5059C368.964 45.8871 369.084 46.2108 369.278 46.4772C369.488 46.7416 369.823 46.8455 370.284 46.7889C370.633 46.746 370.904 46.5918 371.097 46.3263C371.304 46.043 371.384 45.7108 371.338 45.3296L370.761 40.6369C370.707 40.1922 370.552 39.8485 370.296 39.6059C370.039 39.3473 369.728 39.2404 369.362 39.2853C368.949 39.336 368.666 39.5239 368.513 39.849C368.359 40.1742 368.313 40.5829 368.373 41.0752L368.917 45.5059ZM380.8 47.819L380.648 46.5803L380.6 46.5862C380.337 47.0699 380.053 47.4513 379.749 47.7304C379.461 48.0076 379.023 48.1823 378.435 48.2545C378.149 48.2896 377.85 48.278 377.536 48.2197C377.241 48.1754 376.943 48.0508 376.644 47.8457C376.347 47.6565 376.085 47.3662 375.86 46.9747C375.649 46.5655 375.502 46.0273 375.42 45.3603C375.336 44.6775 375.319 44.0751 375.367 43.5533C375.414 43.0156 375.567 42.5535 375.826 42.1671C376.071 41.7985 376.43 41.5046 376.902 41.2853C377.373 41.0502 377.99 40.8858 378.752 40.7922C378.832 40.7825 378.919 40.7717 379.014 40.76C379.109 40.7483 379.198 40.7455 379.279 40.7517C379.36 40.7578 379.457 40.7541 379.568 40.7404C379.679 40.7268 379.799 40.7201 379.928 40.7203L379.773 39.4578C379.722 39.0449 379.593 38.7142 379.385 38.4657C379.177 38.2172 378.843 38.1212 378.383 38.1777C378.065 38.2167 377.784 38.356 377.539 38.5956C377.311 38.8333 377.181 39.1555 377.15 39.5623L374.792 39.8518C374.723 38.7641 374.981 37.8458 375.566 37.0969C375.845 36.7403 376.196 36.4474 376.619 36.2181C377.04 35.9729 377.529 35.8162 378.084 35.748C378.593 35.6856 379.079 35.7065 379.543 35.8107C380.007 35.9149 380.425 36.1053 380.798 36.382C381.155 36.6606 381.457 37.0265 381.706 37.4795C381.955 37.9325 382.119 38.4766 382.197 39.1119L383.229 47.5207L380.8 47.819ZM380.162 42.626C379.886 42.6115 379.661 42.615 379.486 42.6365C378.962 42.7008 378.525 42.8834 378.175 43.1843C377.839 43.4674 377.711 43.9345 377.791 44.5856C377.848 45.0461 378.005 45.4057 378.262 45.6642C378.52 45.9228 378.847 46.0277 379.244 45.9789C379.657 45.9282 379.958 45.7543 380.147 45.457C380.352 45.1578 380.424 44.762 380.364 44.2697L380.162 42.626ZM385.019 47.301L383.536 35.2237L385.966 34.9254L386.109 36.0926L386.157 36.0867C386.364 35.6744 386.628 35.3277 386.948 35.0466C387.282 34.7476 387.727 34.564 388.283 34.4958C388.807 34.4314 389.259 34.5049 389.64 34.7161C390.02 34.9273 390.34 35.1701 390.6 35.4445C390.86 35.074 391.159 34.7472 391.495 34.4641C391.831 34.181 392.324 33.9995 392.975 33.9196C393.277 33.8825 393.594 33.9001 393.925 33.9723C394.254 34.0286 394.561 34.1602 394.844 34.3672C395.127 34.5742 395.372 34.8586 395.577 35.2202C395.781 35.566 395.916 36.0088 395.982 36.5488L397.12 45.8152L394.69 46.1135L393.664 37.7523C393.609 37.3076 393.463 36.9709 393.225 36.7422C392.988 36.5134 392.678 36.4225 392.297 36.4693C391.837 36.5258 391.536 36.7077 391.397 37.015C391.257 37.3223 391.221 37.746 391.287 38.2859L392.284 46.4089L389.855 46.7072L388.828 38.346C388.773 37.9014 388.627 37.5647 388.39 37.3359C388.152 37.1072 387.843 37.0162 387.461 37.063C387.001 37.1196 386.701 37.3015 386.561 37.6088C386.422 37.9161 386.385 38.3397 386.451 38.8797L387.449 47.0027L385.019 47.301ZM405.514 39.5857L400.703 40.1765L400.904 41.8202C400.951 42.2013 401.091 42.4824 401.322 42.6635C401.57 42.8427 401.876 42.9098 402.242 42.865C402.702 42.8084 402.987 42.6364 403.097 42.3489C403.223 42.0594 403.285 41.7777 403.284 41.5039L405.713 41.2055C405.844 42.2695 405.624 43.1671 405.053 43.8981C404.776 44.2706 404.427 44.5795 404.006 44.8246C403.584 45.0698 403.096 45.2265 402.54 45.2947C401.778 45.3883 401.107 45.3095 400.528 45.0582C399.965 44.8049 399.509 44.4338 399.158 43.9448C398.945 43.6486 398.781 43.298 398.666 42.8929C398.552 42.4878 398.465 42.0391 398.404 41.5468L397.916 37.5687C397.856 37.0764 397.832 36.6199 397.845 36.1992C397.857 35.7785 397.932 35.3986 398.067 35.0595C398.289 34.5004 398.642 34.0298 399.127 33.6478C399.628 33.2639 400.26 33.0252 401.022 32.9316C401.578 32.8633 402.09 32.8972 402.558 33.0332C403.042 33.1672 403.463 33.3815 403.822 33.676C404.545 34.3126 404.972 35.1709 405.105 36.2507L405.514 39.5857ZM400.469 38.2708L402.851 37.9783L402.681 36.5967C402.625 36.1362 402.471 35.8084 402.222 35.6134C401.986 35.4005 401.686 35.3165 401.32 35.3613C400.955 35.4062 400.676 35.5614 400.483 35.8269C400.304 36.0746 400.242 36.4287 400.299 36.8892L400.469 38.2708ZM411.153 35.9434C411.092 35.4511 411.068 34.9946 411.081 34.5739C411.094 34.1532 411.168 33.7734 411.304 33.4343C411.525 32.8751 411.879 32.4046 412.364 32.0226C412.865 31.6387 413.496 31.3999 414.259 31.3063C415.021 31.2127 415.684 31.2926 416.247 31.5459C416.826 31.7972 417.29 32.1673 417.64 32.6563C417.854 32.9524 418.018 33.3031 418.132 33.7082C418.246 34.1133 418.334 34.562 418.394 35.0543L418.883 39.0324C418.943 39.5247 418.967 39.9812 418.954 40.4019C418.941 40.8226 418.867 41.2025 418.731 41.5416C418.51 42.1007 418.149 42.5723 417.648 42.9562C417.163 43.3381 416.539 43.5759 415.777 43.6695C415.014 43.7631 414.344 43.6842 413.765 43.4329C413.202 43.1796 412.745 42.8085 412.395 42.3196C412.181 42.0234 412.017 41.6728 411.903 41.2677C411.789 40.8626 411.701 40.4139 411.641 39.9216L411.153 35.9434ZM414.118 40.0044C414.174 40.4649 414.32 40.8016 414.556 41.0145C414.806 41.2095 415.113 41.2846 415.478 41.2397C415.844 41.1949 416.116 41.0486 416.295 40.801C416.488 40.5354 416.556 40.1724 416.5 39.7119L415.918 34.9715C415.861 34.5109 415.708 34.1832 415.458 33.9881C415.223 33.7753 414.922 33.6913 414.557 33.7361C414.192 33.7809 413.913 33.9361 413.719 34.2016C413.54 34.4493 413.479 34.8034 413.536 35.264L414.118 40.0044ZM421.169 42.8623L419.686 30.785L422.116 30.4866L422.259 31.6539L422.307 31.648C422.514 31.2357 422.778 30.889 423.098 30.6079C423.432 30.3089 423.877 30.1253 424.433 30.0571C424.735 30.02 425.043 30.0386 425.359 30.1127C425.672 30.1709 425.963 30.3045 426.23 30.5135C426.497 30.7224 426.726 31.0087 426.916 31.3723C427.104 31.72 427.231 32.1638 427.297 32.7038L428.435 41.9702L426.005 42.2685L424.978 33.9073C424.924 33.4627 424.778 33.126 424.54 32.8972C424.302 32.6685 423.993 32.5775 423.612 32.6243C423.151 32.6809 422.851 32.8628 422.712 33.1701C422.572 33.4774 422.535 33.901 422.602 34.441L423.599 42.564L421.169 42.8623ZM433.365 29.1055L432.914 25.437L435.344 25.1387L435.795 28.8071L437.295 28.6229L437.529 30.5286L436.029 30.7128L436.85 37.4066C436.886 37.6924 436.937 37.9118 437.004 38.0648C437.087 38.2158 437.197 38.3232 437.334 38.387C437.47 38.4508 437.627 38.4799 437.804 38.4743C437.996 38.4668 438.227 38.4465 438.497 38.4133L438.778 40.7002L437.778 40.823C437.222 40.8913 436.743 40.8614 436.34 40.7336C435.953 40.6037 435.632 40.4175 435.377 40.1748C435.121 39.9321 434.918 39.6508 434.765 39.331C434.627 38.9933 434.539 38.6657 434.5 38.3481L433.599 31.0112L432.384 31.1603L432.15 29.2546L433.365 29.1055ZM439.71 40.5858L437.627 23.6252L440.057 23.3268L440.8 29.3774L440.848 29.3716C441.055 28.9592 441.319 28.6125 441.639 28.3314C441.973 28.0324 442.418 27.8489 442.973 27.7806C443.275 27.7436 443.584 27.7621 443.899 27.8362C444.213 27.8944 444.503 28.028 444.77 28.237C445.038 28.446 445.267 28.7322 445.456 29.0958C445.644 29.4435 445.771 29.8874 445.837 30.4273L446.975 39.6937L444.545 39.9921L443.519 31.6308C443.464 31.1862 443.318 30.8495 443.08 30.6207C442.843 30.392 442.533 30.301 442.152 30.3478C441.692 30.4044 441.392 30.5863 441.252 30.8936C441.112 31.2009 441.076 31.6245 441.142 32.1645L442.139 40.2875L439.71 40.5858ZM455.367 33.4646L450.555 34.0554L450.757 35.6991C450.803 36.0802 450.943 36.3614 451.175 36.5425C451.422 36.7216 451.729 36.7888 452.094 36.7439C452.554 36.6874 452.84 36.5153 452.949 36.2278C453.075 35.9383 453.137 35.6567 453.136 35.3828L455.566 35.0845C455.696 36.1485 455.476 37.046 454.905 37.7771C454.628 38.1495 454.279 38.4584 453.858 38.7035C453.437 38.9487 452.948 39.1054 452.392 39.1737C451.63 39.2673 450.959 39.1884 450.38 38.9371C449.817 38.6838 449.361 38.3127 449.011 37.8237C448.797 37.5276 448.633 37.1769 448.519 36.7718C448.404 36.3667 448.317 35.918 448.257 35.4257L447.768 31.4476C447.708 30.9553 447.684 30.4988 447.697 30.0781C447.71 29.6574 447.784 29.2775 447.92 28.9385C448.141 28.3793 448.494 27.9087 448.979 27.5268C449.48 27.1429 450.112 26.9041 450.874 26.8105C451.43 26.7423 451.942 26.7761 452.41 26.9121C452.894 27.0461 453.315 27.2604 453.674 27.5549C454.397 28.1915 454.825 29.0498 454.957 30.1297L455.367 33.4646ZM450.321 32.1498L452.703 31.8573L452.533 30.4756C452.477 30.0151 452.324 29.6873 452.074 29.4923C451.838 29.2794 451.538 29.1954 451.173 29.2403C450.807 29.2851 450.528 29.4403 450.335 29.7058C450.156 29.9535 450.095 30.3076 450.151 30.7681L450.321 32.1498ZM464.35 34.03C464.397 34.4111 464.537 34.6922 464.768 34.8733C465.016 35.0525 465.323 35.1196 465.688 35.0748C466.148 35.0182 466.433 34.8462 466.543 34.5587C466.669 34.2692 466.731 33.9875 466.73 33.7137L469.159 33.4153C469.29 34.4793 469.07 35.3769 468.499 36.1079C468.222 36.4804 467.873 36.7893 467.452 37.0344C467.03 37.2796 466.542 37.4363 465.986 37.5045C465.224 37.5981 464.553 37.5193 463.974 37.268C463.411 37.0147 462.955 36.6436 462.604 36.1546C462.391 35.8584 462.227 35.5078 462.113 35.1027C461.998 34.6976 461.911 34.2489 461.851 33.7566L461.362 29.7785C461.302 29.2862 461.278 28.8297 461.291 28.409C461.303 27.9883 461.378 27.6084 461.513 27.2693C461.735 26.7102 462.088 26.2396 462.573 25.8577C463.074 25.4737 463.706 25.235 464.468 25.1414C465.024 25.0731 465.536 25.107 466.004 25.243C466.488 25.377 466.909 25.5913 467.268 25.8858C467.991 26.5224 468.422 27.4124 468.563 28.5558L466.133 28.8542C466.073 28.3619 465.918 28.0182 465.668 27.8232C465.432 27.6103 465.132 27.5263 464.766 27.5711C464.401 27.616 464.122 27.7712 463.929 28.0367C463.75 28.2844 463.688 28.6385 463.745 29.099L464.35 34.03ZM469.821 28.7398C469.761 28.2475 469.737 27.791 469.75 27.3703C469.763 26.9496 469.837 26.5697 469.973 26.2307C470.194 25.6715 470.547 25.2009 471.033 24.819C471.534 24.4351 472.165 24.1963 472.927 24.1027C473.69 24.0091 474.352 24.089 474.915 24.3422C475.494 24.5936 475.959 24.9637 476.309 25.4527C476.523 25.7488 476.687 26.0995 476.801 26.5046C476.915 26.9097 477.003 27.3584 477.063 27.8507L477.551 31.8288C477.612 32.3211 477.636 32.7776 477.623 33.1983C477.61 33.619 477.536 33.9989 477.4 34.3379C477.179 34.8971 476.817 35.3686 476.316 35.7525C475.831 36.1345 475.208 36.3723 474.445 36.4659C473.683 36.5595 473.013 36.4806 472.434 36.2293C471.871 35.976 471.414 35.6049 471.064 35.1159C470.85 34.8198 470.686 34.4691 470.572 34.064C470.458 33.6589 470.37 33.2102 470.31 32.7179L469.821 28.7398ZM472.786 32.8007C472.843 33.2613 472.989 33.598 473.225 33.8109C473.474 34.0059 473.782 34.081 474.147 34.0361C474.512 33.9913 474.785 33.845 474.964 33.5973C475.157 33.3318 475.225 32.9688 475.168 32.5083L474.586 27.7679C474.53 27.3073 474.377 26.9795 474.127 26.7845C473.891 26.5716 473.591 26.4876 473.226 26.5325C472.86 26.5773 472.581 26.7325 472.388 26.998C472.209 27.2457 472.148 27.5998 472.204 28.0603L472.786 32.8007ZM479.838 35.6587L478.355 23.5814L480.785 23.283L480.928 24.4503L480.976 24.4444C481.183 24.0321 481.447 23.6854 481.767 23.4042C482.101 23.1053 482.546 22.9217 483.102 22.8535C483.626 22.7891 484.078 22.8625 484.459 23.0737C484.839 23.2849 485.159 23.5277 485.419 23.8022C485.679 23.4316 485.978 23.1048 486.314 22.8218C486.65 22.5387 487.143 22.3572 487.795 22.2773C488.096 22.2402 488.413 22.2578 488.744 22.3299C489.073 22.3862 489.38 22.5179 489.663 22.7249C489.946 22.9319 490.191 23.2162 490.396 23.5779C490.6 23.9236 490.735 24.3665 490.801 24.9064L491.939 34.1728L489.509 34.4712L488.483 26.11C488.428 25.6653 488.282 25.3286 488.044 25.0999C487.807 24.8711 487.497 24.7801 487.116 24.8269C486.656 24.8835 486.356 25.0654 486.216 25.3727C486.076 25.68 486.04 26.1036 486.106 26.6436L487.103 34.7666L484.674 35.0649L483.647 26.7037C483.592 26.259 483.446 25.9223 483.209 25.6936C482.971 25.4649 482.662 25.3739 482.281 25.4207C481.82 25.4772 481.52 25.6592 481.38 25.9665C481.241 26.2738 481.204 26.6974 481.27 27.2373L482.268 35.3603L479.838 35.6587ZM494.535 38.8111L492.452 21.8504L494.882 21.5521L495.017 22.6479C495.276 22.2614 495.549 21.9296 495.837 21.6524C496.126 21.3752 496.572 21.1996 497.175 21.1255C498.176 21.0026 498.929 21.297 499.436 22.0086C499.612 22.261 499.756 22.5818 499.868 22.971C499.98 23.3602 500.078 23.8884 500.159 24.5553L500.724 29.1528C500.833 30.0421 500.888 30.6882 500.889 31.0911C500.892 31.8968 500.599 32.5372 500.013 33.0122C499.721 33.2577 499.273 33.4174 498.669 33.4915C498.193 33.55 497.752 33.4995 497.345 33.3398C496.952 33.1623 496.597 32.8917 496.278 32.5278L496.23 32.5336L496.965 38.5127L494.535 38.8111ZM497.771 25.1872C497.71 24.6949 497.566 24.3096 497.339 24.0312C497.111 23.7529 496.791 23.6391 496.378 23.6898C496.013 23.7346 495.736 23.9136 495.549 24.2268C495.36 24.524 495.293 24.895 495.347 25.3397L495.923 30.0324C495.97 30.4136 496.12 30.7175 496.374 30.9443C496.641 31.1533 496.95 31.2363 497.299 31.1934C497.76 31.1369 498.052 30.9559 498.176 30.6506C498.315 30.3433 498.361 29.999 498.315 29.6179L497.771 25.1872ZM508.976 19.8215L510.459 31.8988L508.03 32.1972L507.886 31.0299L507.839 31.0358C507.631 31.4481 507.361 31.8038 507.027 32.1027C506.706 32.3838 506.268 32.5585 505.713 32.6267C505.411 32.6638 505.103 32.6532 504.79 32.595C504.475 32.5208 504.183 32.3793 503.916 32.1703C503.648 31.9614 503.421 31.683 503.233 31.3353C503.043 30.9717 502.915 30.52 502.849 29.98L501.711 20.7136L504.141 20.4153L505.167 28.7765C505.222 29.2212 505.368 29.5579 505.606 29.7866C505.843 30.0153 506.153 30.1063 506.534 30.0595C506.994 30.003 507.295 29.8211 507.434 29.5137C507.574 29.2064 507.61 28.7828 507.544 28.2429L506.547 20.1199L508.976 19.8215ZM510.97 19.5768L510.519 15.9084L512.949 15.61L513.399 19.2785L514.9 19.0942L515.134 20.9999L513.633 21.1842L514.455 27.8779C514.49 28.1638 514.541 28.3832 514.609 28.5361C514.692 28.6871 514.801 28.7945 514.938 28.8583C515.075 28.9221 515.232 28.9513 515.408 28.9457C515.601 28.9382 515.832 28.9178 516.102 28.8847L516.383 31.1715L515.382 31.2944C514.827 31.3626 514.347 31.3328 513.945 31.2049C513.558 31.0751 513.237 30.8888 512.982 30.6461C512.726 30.4034 512.522 30.1222 512.37 29.8023C512.232 29.4647 512.143 29.137 512.104 28.8194L511.204 21.4825L509.989 21.6317L509.755 19.726L510.97 19.5768ZM523.713 25.0728L518.901 25.6636L519.103 27.3073C519.15 27.6884 519.289 27.9695 519.521 28.1506C519.768 28.3298 520.075 28.3969 520.44 28.3521C520.901 28.2955 521.186 28.1235 521.296 27.836C521.421 27.5465 521.483 27.2648 521.482 26.9909L523.912 26.6926C524.042 27.7566 523.822 28.6542 523.251 29.3852C522.974 29.7577 522.625 30.0665 522.204 30.3117C521.783 30.5569 521.294 30.7136 520.738 30.7818C519.976 30.8754 519.305 30.7966 518.727 30.5452C518.163 30.292 517.707 29.9208 517.357 29.4319C517.143 29.1357 516.979 28.7851 516.865 28.38C516.751 27.9749 516.663 27.5262 516.603 27.0339L516.114 23.0558C516.054 22.5635 516.03 22.107 516.043 21.6863C516.056 21.2656 516.13 20.8857 516.266 20.5466C516.487 19.9874 516.84 19.5169 517.326 19.1349C517.826 18.751 518.458 18.5123 519.22 18.4187C519.776 18.3504 520.288 18.3843 520.756 18.5202C521.24 18.6543 521.661 18.8685 522.02 19.163C522.743 19.7997 523.171 20.6579 523.303 21.7378L523.713 25.0728ZM518.667 23.7579L521.049 23.4654L520.879 22.0838C520.823 21.6233 520.67 21.2955 520.42 21.1004C520.184 20.8876 519.884 20.8036 519.519 20.8484C519.153 20.8933 518.874 21.0484 518.681 21.314C518.502 21.5616 518.441 21.9157 518.497 22.3763L518.667 23.7579ZM526.131 29.9746L524.648 17.8973L527.078 17.599L527.236 18.8853C527.673 18.3802 528.115 17.9713 528.56 17.6588C529.005 17.3462 529.577 17.147 530.276 17.0612L530.592 19.6339C530.342 19.5678 530.09 19.5504 529.836 19.5816C529.582 19.6128 529.31 19.6946 529.02 19.8269C528.744 19.9414 528.499 20.1165 528.286 20.3522C528.058 20.5899 527.884 20.8852 527.766 21.2382C527.649 21.5912 527.62 22.0138 527.68 22.5061L528.561 29.6763L526.131 29.9746Z" fill="black"/>
<path d="M-121.627 114.466L-123.709 97.5058L-121.28 97.2074L-121.145 98.3032C-120.886 97.9168 -120.613 97.585 -120.324 97.3077C-120.036 97.0305 -119.59 96.8549 -118.986 96.7808C-117.986 96.6579 -117.233 96.9523 -116.726 97.6639C-116.55 97.9163 -116.406 98.2371 -116.293 98.6263C-116.181 99.0156 -116.084 99.5437 -116.002 100.211L-115.438 104.808C-115.329 105.697 -115.273 106.344 -115.272 106.746C-115.27 107.552 -115.562 108.193 -116.149 108.668C-116.441 108.913 -116.889 109.073 -117.492 109.147C-117.969 109.205 -118.41 109.155 -118.817 108.995C-119.209 108.818 -119.565 108.547 -119.884 108.183L-119.931 108.189L-119.197 114.168L-121.627 114.466ZM-118.391 100.842C-118.451 100.35 -118.596 99.9649 -118.823 99.6865C-119.051 99.4082 -119.371 99.2944 -119.784 99.3451C-120.149 99.3899 -120.425 99.5689 -120.613 99.8821C-120.802 100.179 -120.869 100.55 -120.815 100.995L-120.238 105.688C-120.192 106.069 -120.041 106.373 -119.788 106.6C-119.52 106.809 -119.212 106.892 -118.863 106.849C-118.402 106.792 -118.11 106.611 -117.986 106.306C-117.847 105.999 -117.8 105.654 -117.847 105.273L-118.391 100.842ZM-115.193 91.5032L-112.764 91.2048L-111.099 104.759C-111.043 105.22 -110.924 105.527 -110.744 105.683C-110.55 105.82 -110.22 105.884 -109.753 105.875L-109.472 108.162C-110.028 108.23 -110.534 108.244 -110.991 108.203C-111.445 108.179 -111.847 108.059 -112.196 107.844C-112.542 107.644 -112.829 107.341 -113.057 106.934C-113.27 106.509 -113.421 105.939 -113.509 105.224L-115.193 91.5032ZM-103.95 107.339L-104.103 106.1L-104.15 106.106C-104.413 106.59 -104.697 106.971 -105.001 107.25C-105.289 107.528 -105.727 107.702 -106.315 107.774C-106.601 107.81 -106.9 107.798 -107.214 107.74C-107.51 107.695 -107.807 107.571 -108.106 107.366C-108.403 107.177 -108.665 106.886 -108.89 106.495C-109.102 106.085 -109.248 105.547 -109.33 104.88C-109.414 104.197 -109.432 103.595 -109.383 103.073C-109.336 102.536 -109.183 102.074 -108.924 101.687C-108.679 101.318 -108.321 101.025 -107.848 100.805C-107.377 100.57 -106.76 100.406 -105.998 100.312C-105.919 100.302 -105.831 100.292 -105.736 100.28C-105.641 100.268 -105.552 100.266 -105.471 100.272C-105.39 100.278 -105.293 100.274 -105.182 100.26C-105.071 100.247 -104.951 100.24 -104.822 100.24L-104.977 98.9778C-105.028 98.5649 -105.157 98.2342 -105.365 97.9857C-105.573 97.7372 -105.907 97.6412 -106.367 97.6977C-106.685 97.7367 -106.966 97.876 -107.211 98.1156C-107.44 98.3533 -107.569 98.6755 -107.6 99.0823L-109.958 99.3718C-110.027 98.2841 -109.769 97.3658 -109.184 96.617C-108.906 96.2603 -108.555 95.9674 -108.131 95.7381C-107.71 95.4929 -107.222 95.3362 -106.666 95.268C-106.158 95.2056 -105.671 95.2265 -105.207 95.3307C-104.743 95.4349 -104.325 95.6254 -103.952 95.902C-103.596 96.1806 -103.293 96.5465 -103.044 96.9995C-102.795 97.4525 -102.631 97.9966 -102.553 98.6319L-101.521 107.041L-103.95 107.339ZM-104.588 102.146C-104.864 102.132 -105.089 102.135 -105.264 102.156C-105.788 102.221 -106.225 102.403 -106.575 102.704C-106.911 102.987 -107.039 103.454 -106.959 104.106C-106.902 104.566 -106.745 104.926 -106.488 105.184C-106.231 105.443 -105.903 105.548 -105.506 105.499C-105.093 105.448 -104.792 105.274 -104.603 104.977C-104.398 104.678 -104.326 104.282 -104.386 103.79L-104.588 102.146ZM-102.518 94.9037L-99.945 94.5879L-97.3533 101.911L-97.3056 101.905L-96.5862 94.1755L-94.085 93.8683L-95.8226 108.469C-95.8833 109.024 -96.0114 109.492 -96.2067 109.87C-96.3861 110.247 -96.613 110.565 -96.8875 110.824C-97.1619 111.084 -97.4689 111.274 -97.8086 111.397C-98.1304 111.533 -98.4739 111.624 -98.8392 111.668L-99.5061 111.75L-99.7869 109.463L-99.239 109.396C-99.0008 109.367 -98.7983 109.31 -98.6314 109.225C-98.4645 109.14 -98.3233 108.977 -98.2076 108.738C-98.1079 108.5 -98.0278 108.167 -97.9673 107.741C-97.9049 107.33 -97.8461 106.759 -97.7909 106.027L-102.518 94.9037ZM-88.6988 93.207L-89.1493 89.5386L-86.7195 89.2402L-86.2691 92.9087L-84.7683 92.7244L-84.5344 94.6301L-86.0351 94.8144L-85.2132 101.508C-85.1781 101.794 -85.127 102.013 -85.0598 102.166C-84.9768 102.317 -84.8669 102.425 -84.7301 102.489C-84.5933 102.552 -84.4366 102.581 -84.26 102.576C-84.0674 102.568 -83.8362 102.548 -83.5662 102.515L-83.2854 104.802L-84.2859 104.925C-84.8417 104.993 -85.321 104.963 -85.7235 104.835C-86.1102 104.705 -86.4313 104.519 -86.6868 104.276C-86.9423 104.034 -87.1461 103.752 -87.2982 103.433C-87.4364 103.095 -87.525 102.767 -87.564 102.45L-88.4648 95.1127L-89.6797 95.2619L-89.9137 93.3562L-88.6988 93.207ZM-82.354 104.687L-84.4365 87.7267L-82.0067 87.4284L-81.2638 93.4789L-81.2162 93.4731C-81.0089 93.0607 -80.7452 92.714 -80.4251 92.4329C-80.091 92.134 -79.6461 91.9504 -79.0902 91.8821C-78.7885 91.8451 -78.4799 91.8636 -78.1646 91.9377C-77.8511 91.996 -77.5607 92.1296 -77.2932 92.3385C-77.0258 92.5475 -76.7972 92.8338 -76.6074 93.1974C-76.4197 93.5451 -76.2926 93.9889 -76.2263 94.5288L-75.0886 103.795L-77.5183 104.094L-78.5449 95.7324C-78.5995 95.2877 -78.7457 94.951 -78.9833 94.7223C-79.221 94.4935 -79.5303 94.4026 -79.9115 94.4494C-80.372 94.5059 -80.6721 94.6878 -80.8117 94.9951C-80.9513 95.3024 -80.9879 95.7261 -80.9216 96.266L-79.9242 104.389L-82.354 104.687ZM-73.0954 103.551L-74.5783 91.4732L-72.1486 91.1749L-70.6656 103.252L-73.0954 103.551ZM-74.8796 89.0197L-75.1779 86.5899L-72.7481 86.2916L-72.4498 88.7213L-74.8796 89.0197ZM-65.3361 93.772C-65.4027 93.3611 -65.5757 93.068 -65.8552 92.8927C-66.1187 92.7155 -66.4093 92.6464 -66.7269 92.6854C-67.1081 92.7322 -67.3863 92.8953 -67.5615 93.1748C-67.7387 93.4383 -67.8078 93.7289 -67.7688 94.0465C-67.7415 94.2689 -67.6586 94.4844 -67.5202 94.6931C-67.3837 94.8859 -67.0744 95.0413 -66.5924 95.1595L-65.093 95.5557C-64.1449 95.7939 -63.467 96.1943 -63.0594 96.7568C-62.6359 97.3174 -62.3803 97.955 -62.2926 98.6696C-62.2302 99.1778 -62.267 99.6659 -62.4029 100.134C-62.525 100.584 -62.7243 100.996 -63.001 101.368C-63.2777 101.741 -63.6266 102.049 -64.0479 102.295C-64.4692 102.54 -64.9418 102.694 -65.4659 102.759C-66.4505 102.88 -67.3143 102.671 -68.0574 102.134C-68.4279 101.873 -68.7437 101.533 -69.0047 101.114C-69.2677 100.679 -69.4442 100.16 -69.5342 99.5588L-67.2474 99.278C-67.1588 99.6056 -67.0096 99.9017 -66.7998 100.166C-66.5741 100.429 -66.231 100.531 -65.7705 100.475C-65.4211 100.432 -65.1251 100.283 -64.8824 100.027C-64.6258 99.754 -64.5229 99.4109 -64.5736 98.998C-64.6145 98.6645 -64.737 98.3894 -64.9409 98.1727C-65.1448 97.9559 -65.4878 97.7884 -65.9698 97.6703L-67.1897 97.3848C-67.987 97.1926 -68.6422 96.8458 -69.1551 96.3446C-69.6541 95.8256 -69.9533 95.1611 -70.0527 94.3511C-70.1151 93.843 -70.0774 93.3628 -69.9394 92.9106C-69.8035 92.4425 -69.5882 92.0292 -69.2937 91.6707C-69.0151 91.3141 -68.6712 91.03 -68.2619 90.8186C-67.8546 90.5912 -67.4047 90.4473 -66.9124 90.3869C-66.4201 90.3264 -65.9568 90.3582 -65.5225 90.4822C-65.0722 90.6042 -64.6767 90.8056 -64.336 91.0861C-63.9953 91.3667 -63.7103 91.7186 -63.481 92.1418C-63.2536 92.5491 -63.1098 92.9989 -63.0493 93.4912L-65.3361 93.772ZM-53.2786 102.544C-53.2276 102.828 -53.0833 103.084 -52.8457 103.313C-52.5921 103.54 -52.2589 103.628 -51.846 103.577C-51.449 103.528 -51.1788 103.366 -51.0353 103.091C-50.8898 102.831 -50.8405 102.511 -50.8873 102.129L-51.1798 99.7473L-51.2274 99.7532C-51.4487 100.183 -51.7362 100.533 -52.09 100.802C-52.4299 101.053 -52.846 101.209 -53.3383 101.27C-54.3547 101.395 -55.1082 101.1 -55.5988 100.387C-55.7749 100.134 -55.9191 99.8134 -56.0313 99.4242C-56.1436 99.035 -56.2407 98.5069 -56.3226 97.8399L-56.8871 93.2424C-56.9943 92.369 -57.0495 91.7229 -57.0525 91.3041C-57.0547 90.4984 -56.7547 89.857 -56.1523 89.3801C-55.8759 89.1366 -55.436 88.9778 -54.8325 88.9037C-54.5308 88.8666 -54.2728 88.8672 -54.0585 88.9054C-53.8284 88.9416 -53.6192 89.0045 -53.4308 89.0943C-53.2425 89.184 -53.0671 89.2995 -52.9047 89.4407C-52.7442 89.5661 -52.5739 89.7064 -52.3936 89.8616L-52.5281 88.7658L-50.0984 88.4675L-48.4341 102.022C-48.3835 102.435 -48.4042 102.856 -48.4964 103.287C-48.5708 103.731 -48.7384 104.139 -48.9992 104.509C-49.2581 104.896 -49.6051 105.22 -50.0403 105.483C-50.4735 105.762 -51.0077 105.941 -51.643 106.019C-52.0082 106.063 -52.3972 106.047 -52.8098 105.968C-53.2205 105.906 -53.6101 105.752 -53.9787 105.507C-54.3612 105.28 -54.7078 104.952 -55.0184 104.523C-55.3112 104.107 -55.5412 103.547 -55.7084 102.842L-53.2786 102.544ZM-53.9075 97.4224C-53.8607 97.8036 -53.7403 98.1273 -53.5464 98.3937C-53.3366 98.6581 -53.0014 98.762 -52.5409 98.7054C-52.1915 98.6626 -51.9203 98.5083 -51.7272 98.2428C-51.5202 97.9595 -51.4401 97.6273 -51.4869 97.2461L-52.0631 92.5534C-52.1177 92.1087 -52.2727 91.765 -52.5282 91.5224C-52.7856 91.2638 -53.097 91.157 -53.4622 91.2018C-53.8751 91.2525 -54.1583 91.4404 -54.3119 91.7655C-54.4654 92.0907 -54.5119 92.4994 -54.4515 92.9917L-53.9075 97.4224ZM-42.0249 99.7355L-42.177 98.4968L-42.2246 98.5027C-42.4876 98.9864 -42.7712 99.3678 -43.0755 99.6469C-43.3639 99.9241 -43.8018 100.099 -44.3894 100.171C-44.6753 100.206 -44.9749 100.194 -45.2884 100.136C-45.584 100.092 -45.8814 99.9673 -46.1806 99.7622C-46.4779 99.573 -46.7392 99.2827 -46.9646 98.8913C-47.176 98.482 -47.3227 97.9438 -47.4046 97.2768C-47.4884 96.594 -47.506 95.9916 -47.4572 95.4698C-47.4104 94.9321 -47.2576 94.47 -46.9987 94.0836C-46.7538 93.715 -46.395 93.4211 -45.9222 93.2018C-45.4513 92.9667 -44.8348 92.8023 -44.0725 92.7087C-43.9931 92.699 -43.9057 92.6882 -43.8104 92.6765C-43.7152 92.6648 -43.6268 92.6621 -43.5455 92.6682C-43.4641 92.6743 -43.3679 92.6706 -43.2567 92.6569C-43.1455 92.6433 -43.0255 92.6366 -42.8965 92.6369L-43.0515 91.3743C-43.1022 90.9614 -43.2315 90.6307 -43.4393 90.3822C-43.6471 90.1337 -43.9813 90.0377 -44.4419 90.0942C-44.7595 90.1332 -45.0406 90.2725 -45.2852 90.5121C-45.514 90.7498 -45.6437 91.072 -45.6743 91.4788L-48.0326 91.7683C-48.1017 90.6806 -47.8437 89.7623 -47.2586 89.0135C-46.9799 88.6568 -46.629 88.3639 -46.2058 88.1346C-45.7846 87.8894 -45.296 87.7327 -44.7402 87.6645C-44.232 87.6021 -43.7458 87.623 -43.2817 87.7272C-42.8175 87.8314 -42.3992 88.0219 -42.0267 88.2985C-41.6701 88.5771 -41.3672 88.943 -41.1182 89.396C-40.8691 89.849 -40.7056 90.3931 -40.6276 91.0284L-39.5951 99.4372L-42.0249 99.7355ZM-42.6625 94.5425C-42.9383 94.528 -43.1636 94.5315 -43.3382 94.553C-43.8623 94.6173 -44.2993 94.7999 -44.6493 95.1008C-44.9853 95.3839 -45.1133 95.851 -45.0333 96.5021C-44.9768 96.9626 -44.8198 97.3222 -44.5624 97.5807C-44.305 97.8393 -43.9777 97.9442 -43.5807 97.8954C-43.1678 97.8447 -42.8668 97.6708 -42.6776 97.3735C-42.4725 97.0743 -42.4002 96.6785 -42.4607 96.1862L-42.6625 94.5425ZM-37.8057 99.2175L-39.2886 87.1402L-36.8589 86.8419L-36.7156 88.0091L-36.6679 88.0032C-36.4606 87.5909 -36.1969 87.2442 -35.8768 86.9631C-35.5427 86.6641 -35.0978 86.4805 -34.542 86.4123C-34.0179 86.348 -33.5656 86.4214 -33.185 86.6326C-32.8044 86.8438 -32.4845 87.0866 -32.2251 87.361C-31.9643 86.9905 -31.6659 86.6637 -31.3299 86.3806C-30.9939 86.0975 -30.5003 85.916 -29.8492 85.8361C-29.5475 85.7991 -29.231 85.8166 -28.8997 85.8888C-28.5704 85.9451 -28.2641 86.0767 -27.9807 86.2837C-27.6974 86.4907 -27.4529 86.7751 -27.2473 87.1367C-27.0437 87.4825 -26.9087 87.9253 -26.8424 88.4653L-25.7046 97.7317L-28.1344 98.03L-29.161 89.6688C-29.2156 89.2241 -29.3617 88.8874 -29.5994 88.6587C-29.837 88.4299 -30.1464 88.339 -30.5275 88.3858C-30.9881 88.4423 -31.2881 88.6242 -31.4277 88.9315C-31.5673 89.2388 -31.604 89.6625 -31.5377 90.2024L-30.5403 98.3254L-32.97 98.6238L-33.9967 90.2625C-34.0513 89.8179 -34.1974 89.4812 -34.435 89.2524C-34.6727 89.0237 -34.9821 88.9327 -35.3632 88.9795C-35.8238 89.0361 -36.1238 89.218 -36.2634 89.5253C-36.403 89.8326 -36.4397 90.2562 -36.3734 90.7962L-35.376 98.9192L-37.8057 99.2175ZM-17.3101 91.5022L-22.122 92.093L-21.9201 93.7367C-21.8733 94.1178 -21.734 94.3989 -21.5022 94.58C-21.2546 94.7592 -20.9481 94.8263 -20.5828 94.7815C-20.1223 94.7249 -19.8371 94.5529 -19.7274 94.2654C-19.6017 93.9759 -19.5396 93.6942 -19.541 93.4204L-17.1112 93.122C-16.9806 94.186 -17.2008 95.0836 -17.772 95.8146C-18.0486 96.1871 -18.3976 96.496 -18.8189 96.7411C-19.2401 96.9863 -19.7287 97.143 -20.2845 97.2112C-21.0468 97.3048 -21.7174 97.226 -22.2963 96.9747C-22.8594 96.7214 -23.316 96.3503 -23.6662 95.8613C-23.8799 95.5651 -24.0439 95.2145 -24.1581 94.8094C-24.2723 94.4043 -24.3596 93.9556 -24.4201 93.4633L-24.9085 89.4852C-24.969 88.9929 -24.9928 88.5364 -24.98 88.1157C-24.9672 87.695 -24.8929 87.3151 -24.7572 86.976C-24.5357 86.4169 -24.1824 85.9463 -23.6973 85.5644C-23.1964 85.1804 -22.5648 84.9417 -21.8025 84.8481C-21.2467 84.7798 -20.7347 84.8137 -20.2667 84.9497C-19.7827 85.0837 -19.3615 85.298 -19.0029 85.5925C-18.28 86.2291 -17.8522 87.0874 -17.7196 88.1672L-17.3101 91.5022ZM-22.3559 90.1873L-19.9738 89.8948L-20.1435 88.5132C-20.2 88.0527 -20.3531 87.7249 -20.6027 87.5299C-20.8384 87.317 -21.1389 87.233 -21.5042 87.2778C-21.8694 87.3227 -22.1486 87.4779 -22.3417 87.7434C-22.5208 87.9911 -22.5821 88.3452 -22.5256 88.8057L-22.3559 90.1873ZM-11.672 87.8599C-11.7325 87.3676 -11.7563 86.9111 -11.7434 86.4904C-11.7306 86.0697 -11.6564 85.6899 -11.5207 85.3508C-11.2992 84.7916 -10.9459 84.3211 -10.4608 83.9391C-9.95986 83.5552 -9.32825 83.3164 -8.56598 83.2228C-7.8037 83.1293 -7.14103 83.2091 -6.57797 83.4624C-5.99903 83.7137 -5.53446 84.0838 -5.18426 84.5728C-4.97057 84.8689 -4.80662 85.2196 -4.6924 85.6247C-4.57817 86.0298 -4.49084 86.4785 -4.43039 86.9708L-3.94194 90.9489C-3.88149 91.4412 -3.85768 91.8977 -3.87051 92.3184C-3.88333 92.7391 -3.95759 93.119 -4.09328 93.4581C-4.31479 94.0172 -4.67601 94.4888 -5.17696 94.8727C-5.66203 95.2546 -6.2857 95.4924 -7.04797 95.586C-7.81025 95.6796 -8.48086 95.6007 -9.0598 95.3494C-9.62286 95.0962 -10.0795 94.725 -10.4297 94.2361C-10.6434 93.9399 -10.8073 93.5893 -10.9216 93.1842C-11.0358 92.7791 -11.1231 92.3304 -11.1836 91.8381L-11.672 87.8599ZM-8.70701 91.9209C-8.65046 92.3814 -8.50434 92.7181 -8.26864 92.931C-8.01901 93.126 -7.71157 93.2011 -7.34631 93.1563C-6.98105 93.1114 -6.70885 92.9651 -6.5297 92.7175C-6.33662 92.452 -6.26835 92.0889 -6.3249 91.6284L-6.90694 86.888C-6.96349 86.4274 -7.11658 86.0997 -7.36621 85.9046C-7.60191 85.6918 -7.90239 85.6078 -8.26764 85.6526C-8.6329 85.6974 -8.91207 85.8526 -9.10515 86.1181C-9.2843 86.3658 -9.3456 86.7199 -9.28906 87.1805L-8.70701 91.9209ZM-1.65534 94.7788L-3.13825 82.7015L-0.708493 82.4032L-0.565175 83.5704L-0.517532 83.5645C-0.310239 83.1522 -0.0465277 82.8055 0.2736 82.5244C0.607659 82.2254 1.0526 82.0418 1.60843 81.9736C1.91016 81.9365 2.21872 81.9551 2.5341 82.0292C2.84754 82.0874 3.13798 82.221 3.40544 82.43C3.6729 82.639 3.90149 82.9252 4.09122 83.2888C4.27899 83.6365 4.40603 84.0804 4.47233 84.6203L5.6101 93.8867L3.18034 94.185L2.15372 85.8238C2.09912 85.3792 1.953 85.0425 1.71535 84.8137C1.4777 84.585 1.16831 84.494 0.78717 84.5408C0.326629 84.5974 0.0265634 84.7793 -0.113026 85.0866C-0.252616 85.3939 -0.289262 85.8175 -0.222966 86.3575L0.774413 94.4805L-1.65534 94.7788ZM10.5403 81.022L10.0899 77.3535L12.5196 77.0552L12.97 80.7236L14.4708 80.5394L14.7048 82.4451L13.204 82.6293L14.0259 89.3231C14.061 89.6089 14.1121 89.8283 14.1793 89.9813C14.2623 90.1323 14.3722 90.2397 14.509 90.3035C14.6458 90.3673 14.8025 90.3964 14.9791 90.3908C15.1717 90.3833 15.4029 90.363 15.6729 90.3298L15.9537 92.6167L14.9532 92.7395C14.3974 92.8078 13.9182 92.7779 13.5156 92.6501C13.1289 92.5202 12.8078 92.334 12.5523 92.0913C12.2968 91.8486 12.093 91.5674 11.9409 91.2475C11.8027 90.9098 11.7141 90.5822 11.6751 90.2646L10.7743 82.9277L9.55939 83.0768L9.3254 81.1711L10.5403 81.022ZM16.8851 92.5023L14.8026 75.5417L17.2324 75.2433L17.9753 81.2939L18.0229 81.2881C18.2302 80.8757 18.4939 80.529 18.8141 80.2479C19.1481 79.9489 19.5931 79.7654 20.1489 79.6971C20.4506 79.6601 20.7592 79.6786 21.0746 79.7527C21.388 79.8109 21.6784 79.9445 21.9459 80.1535C22.2134 80.3625 22.4419 80.6487 22.6317 81.0123C22.8194 81.36 22.9465 81.8039 23.0128 82.3438L24.1505 91.6102L21.7208 91.9086L20.6942 83.5474C20.6396 83.1027 20.4934 82.766 20.2558 82.5372C20.0182 82.3085 19.7088 82.2175 19.3276 82.2643C18.8671 82.3209 18.567 82.5028 18.4274 82.8101C18.2878 83.1174 18.2512 83.541 18.3175 84.081L19.3149 92.204L16.8851 92.5023ZM32.5421 85.3811L27.7302 85.9719L27.932 87.6156C27.9788 87.9967 28.1181 88.2779 28.3499 88.459C28.5976 88.6381 28.9041 88.7053 29.2693 88.6604C29.7299 88.6039 30.015 88.4318 30.1248 88.1443C30.2505 87.8548 30.3126 87.5732 30.3112 87.2993L32.741 87.001C32.8716 88.065 32.6514 88.9625 32.0802 89.6936C31.8035 90.0661 31.4546 90.3749 31.0333 90.62C30.612 90.8652 30.1235 91.0219 29.5677 91.0902C28.8054 91.1838 28.1348 91.1049 27.5558 90.8536C26.9928 90.6003 26.5362 90.2292 26.186 89.7402C25.9723 89.4441 25.8083 89.0934 25.6941 88.6883C25.5799 88.2832 25.4925 87.8345 25.4321 87.3422L24.9436 83.3641C24.8832 82.8718 24.8594 82.4153 24.8722 81.9946C24.885 81.5739 24.9593 81.194 25.095 80.855C25.3165 80.2958 25.6698 79.8252 26.1548 79.4433C26.6558 79.0594 27.2874 78.8206 28.0497 78.727C28.6055 78.6588 29.1174 78.6926 29.5855 78.8286C30.0694 78.9626 30.4907 79.1769 30.8493 79.4714C31.5722 80.108 32 80.9663 32.1326 82.0462L32.5421 85.3811ZM27.4962 84.0663L29.8783 83.7738L29.7087 82.3921C29.6522 81.9316 29.4991 81.6038 29.2494 81.4088C29.0137 81.1959 28.7133 81.1119 28.348 81.1568C27.9827 81.2016 27.7036 81.3568 27.5105 81.6223C27.3313 81.87 27.27 82.2241 27.3266 82.6846L27.4962 84.0663ZM41.5259 85.9465C41.5727 86.3276 41.712 86.6087 41.9438 86.7898C42.1915 86.969 42.4979 87.0361 42.8632 86.9913C43.3237 86.9348 43.6089 86.7627 43.7187 86.4752C43.8443 86.1857 43.9065 85.9041 43.9051 85.6302L46.3348 85.3318C46.4655 86.3959 46.2452 87.2934 45.674 88.0244C45.3974 88.3969 45.0484 88.7058 44.6272 88.9509C44.2059 89.1961 43.7173 89.3528 43.1615 89.4211C42.3992 89.5146 41.7286 89.4358 41.1497 89.1845C40.5866 88.9312 40.13 88.5601 39.7798 88.0711C39.5661 87.775 39.4022 87.4243 39.2879 87.0192C39.1737 86.6141 39.0864 86.1654 39.0259 85.6731L38.5375 81.695C38.477 81.2027 38.4532 80.7462 38.4661 80.3255C38.4789 79.9048 38.5531 79.5249 38.6888 79.1858C38.9103 78.6267 39.2636 78.1561 39.7487 77.7742C40.2496 77.3902 40.8812 77.1515 41.6435 77.0579C42.1993 76.9897 42.7113 77.0235 43.1793 77.1595C43.6633 77.2935 44.0845 77.5078 44.4431 77.8023C45.1661 78.4389 45.5978 79.3289 45.7382 80.4723L43.3084 80.7707C43.248 80.2784 43.0929 79.9347 42.8433 79.7397C42.6076 79.5268 42.3071 79.4428 41.9419 79.4877C41.5766 79.5325 41.2974 79.6877 41.1043 79.9532C40.9252 80.2009 40.8639 80.555 40.9204 81.0155L41.5259 85.9465ZM46.9968 80.6563C46.9363 80.164 46.9125 79.7075 46.9253 79.2868C46.9382 78.8661 47.0124 78.4862 47.1481 78.1472C47.3696 77.588 47.7229 77.1175 48.208 76.7355C48.7089 76.3516 49.3405 76.1128 50.1028 76.0192C50.8651 75.9256 51.5277 76.0055 52.0908 76.2587C52.6698 76.5101 53.1343 76.8802 53.4845 77.3692C53.6982 77.6653 53.8622 78.016 53.9764 78.4211C54.0906 78.8262 54.1779 79.2749 54.2384 79.7672L54.7268 83.7453C54.7873 84.2376 54.8111 84.6941 54.7983 85.1148C54.7854 85.5355 54.7112 85.9154 54.5755 86.2544C54.354 86.8136 53.9928 87.2851 53.4918 87.669C53.0068 88.051 52.3831 88.2888 51.6208 88.3824C50.8585 88.476 50.1879 88.3971 49.609 88.1458C49.0459 87.8925 48.5893 87.5214 48.2391 87.0324C48.0254 86.7363 47.8614 86.3857 47.7472 85.9806C47.633 85.5755 47.5457 85.1268 47.4852 84.6344L46.9968 80.6563ZM49.9618 84.7172C50.0183 85.1778 50.1644 85.5145 50.4001 85.7274C50.6498 85.9224 50.9572 85.9975 51.3225 85.9526C51.6877 85.9078 51.9599 85.7615 52.1391 85.5138C52.3322 85.2483 52.4004 84.8853 52.3439 84.4248L51.7618 79.6844C51.7053 79.2238 51.5522 78.896 51.3026 78.701C51.0669 78.4881 50.7664 78.4041 50.4011 78.449C50.0359 78.4938 49.7567 78.649 49.5636 78.9145C49.3845 79.1622 49.3232 79.5163 49.3797 79.9768L49.9618 84.7172ZM57.0134 87.5752L55.5305 75.4979L57.9603 75.1995L58.1036 76.3668L58.1512 76.3609C58.3585 75.9486 58.6223 75.6019 58.9424 75.3207C59.2764 75.0218 59.7214 74.8382 60.2772 74.77C60.8013 74.7056 61.2536 74.779 61.6342 74.9902C62.0147 75.2014 62.3347 75.4442 62.5941 75.7187C62.8549 75.3481 63.1533 75.0213 63.4893 74.7383C63.8253 74.4552 64.3189 74.2737 64.97 74.1938C65.2717 74.1567 65.5882 74.1743 65.9195 74.2464C66.2488 74.3027 66.5551 74.4344 66.8384 74.6414C67.1218 74.8484 67.3663 75.1327 67.5719 75.4944C67.7755 75.8401 67.9105 76.283 67.9768 76.8229L69.1146 86.0893L66.6848 86.3877L65.6582 78.0265C65.6036 77.5818 65.4575 77.2451 65.2198 77.0164C64.9822 76.7876 64.6728 76.6966 64.2916 76.7434C63.8311 76.8 63.531 76.9819 63.3914 77.2892C63.2519 77.5965 63.2152 78.0201 63.2815 78.5601L64.2789 86.6831L61.8491 86.9814L60.8225 78.6202C60.7679 78.1756 60.6218 77.8389 60.3841 77.6101C60.1465 77.3814 59.8371 77.2904 59.456 77.3372C58.9954 77.3937 58.6953 77.5757 58.5558 77.883C58.4162 78.1903 58.3795 78.6139 58.4458 79.1538L59.4432 87.2768L57.0134 87.5752ZM71.7103 90.7276L69.6278 73.7669L72.0575 73.4686L72.1921 74.5644C72.4509 74.178 72.7245 73.8461 73.0129 73.5689C73.3013 73.2917 73.7472 73.1161 74.3506 73.042C75.3511 72.9191 76.1046 73.2135 76.6111 73.9251C76.7872 74.1775 76.9314 74.4983 77.0436 74.8875C77.1559 75.2768 77.253 75.8049 77.3349 76.4718L77.8994 81.0693C78.0086 81.9586 78.0637 82.6047 78.0648 83.0076C78.067 83.8133 77.7749 84.4537 77.1884 84.9287C76.8962 85.1742 76.4483 85.334 75.8448 85.408C75.3684 85.4665 74.927 85.416 74.5205 85.2563C74.1279 85.0788 73.7723 84.8082 73.4536 84.4443L73.4059 84.4501L74.14 90.4292L71.7103 90.7276ZM74.9461 77.1037C74.8856 76.6114 74.7416 76.2261 74.514 75.9477C74.2864 75.6694 73.9661 75.5556 73.5532 75.6063C73.188 75.6511 72.9117 75.8301 72.7245 76.1433C72.5353 76.4405 72.468 76.8115 72.5226 77.2562L73.0988 81.9489C73.1456 82.3301 73.2958 82.634 73.5493 82.8608C73.8167 83.0698 74.1252 83.1528 74.4745 83.1099C74.9351 83.0534 75.2272 82.8724 75.3509 82.5671C75.4905 82.2598 75.5369 81.9155 75.4901 81.5344L74.9461 77.1037ZM86.1518 71.738L87.6347 83.8153L85.205 84.1137L85.0617 82.9465L85.014 82.9523C84.8067 83.3646 84.536 83.7203 84.202 84.0192C83.8819 84.3003 83.4439 84.475 82.8881 84.5432C82.5863 84.5803 82.2787 84.5697 81.9653 84.5115C81.6499 84.4373 81.3585 84.2958 81.091 84.0868C80.8236 83.8779 80.596 83.5995 80.4082 83.2518C80.2185 82.8883 80.0905 82.4365 80.0242 81.8965L78.8864 72.6301L81.3161 72.3318L82.3428 80.693C82.3974 81.1377 82.5435 81.4744 82.7811 81.7031C83.0188 81.9319 83.3282 82.0228 83.7093 81.976C84.1699 81.9195 84.4699 81.7376 84.6095 81.4303C84.7491 81.1229 84.7857 80.6993 84.7195 80.1594L83.7221 72.0364L86.1518 71.738ZM88.145 71.4933L87.6946 67.8249L90.1243 67.5265L90.5747 71.195L92.0755 71.0107L92.3095 72.9164L90.8087 73.1007L91.6306 79.7944C91.6657 80.0803 91.7168 80.2997 91.784 80.4526C91.867 80.6036 91.9769 80.711 92.1137 80.7748C92.2505 80.8386 92.4072 80.8678 92.5838 80.8622C92.7764 80.8547 93.0076 80.8343 93.2776 80.8012L93.5584 83.088L92.5579 83.2109C92.0021 83.2791 91.5229 83.2493 91.1203 83.1214C90.7336 82.9916 90.4125 82.8053 90.157 82.5626C89.9015 82.32 89.6977 82.0387 89.5456 81.7188C89.4074 81.3812 89.3188 81.0535 89.2798 80.7359L88.379 73.399L87.1641 73.5482L86.9301 71.6425L88.145 71.4933ZM100.888 76.9893L96.0763 77.5801L96.2781 79.2238C96.3249 79.6049 96.4642 79.886 96.696 80.0671C96.9437 80.2463 97.2502 80.3134 97.6154 80.2686C98.076 80.212 98.3611 80.04 98.4709 79.7525C98.5966 79.463 98.6587 79.1813 98.6573 78.9074L101.087 78.6091C101.218 79.6731 100.997 80.5707 100.426 81.3017C100.15 81.6742 99.8007 81.983 99.3794 82.2282C98.9582 82.4734 98.4696 82.6301 97.9138 82.6983C97.1515 82.7919 96.4809 82.7131 95.902 82.4617C95.3389 82.2085 94.8823 81.8374 94.5321 81.3484C94.3184 81.0522 94.1544 80.7016 94.0402 80.2965C93.926 79.8914 93.8386 79.4427 93.7782 78.9504L93.2897 74.9723C93.2293 74.48 93.2055 74.0235 93.2183 73.6028C93.2311 73.1821 93.3054 72.8022 93.4411 72.4631C93.6626 71.904 94.0159 71.4334 94.5009 71.0514C95.0019 70.6675 95.6335 70.4288 96.3958 70.3352C96.9516 70.2669 97.4635 70.3008 97.9316 70.4368C98.4155 70.5708 98.8368 70.785 99.1954 71.0795C99.9183 71.7162 100.346 72.5744 100.479 73.6543L100.888 76.9893ZM95.8423 75.6744L98.2245 75.3819L98.0548 74.0003C97.9983 73.5398 97.8452 73.212 97.5955 73.0169C97.3598 72.8041 97.0594 72.7201 96.6941 72.7649C96.3289 72.8098 96.0497 72.9649 95.8566 73.2305C95.6775 73.4781 95.6162 73.8322 95.6727 74.2928L95.8423 75.6744ZM103.306 81.8911L101.824 69.8138L104.253 69.5155L104.411 70.8018C104.849 70.2967 105.29 69.8879 105.736 69.5753C106.181 69.2627 106.753 69.0635 107.452 68.9777L107.767 71.5504C107.518 71.4843 107.266 71.4669 107.011 71.4981C106.757 71.5293 106.485 71.6111 106.195 71.7434C105.919 71.8579 105.675 72.033 105.462 72.2687C105.233 72.5064 105.06 72.8017 104.942 73.1547C104.824 73.5077 104.795 73.9303 104.856 74.4226L105.736 81.5928L103.306 81.8911Z" fill="black"/>
</svg>
